<svg width="30" height="30" viewBox="0 0 30 30" fill="none" xmlns="http://www.w3.org/2000/svg">
<path d="M3.75 13.75C3.75 9.06283 3.75 6.71925 4.94364 5.07634C5.32914 4.54575 5.79575 4.07914 6.32634 3.69364C7.96925 2.5 10.3128 2.5 15 2.5C19.6872 2.5 22.0307 2.5 23.6737 3.69364C24.2042 4.07914 24.6709 4.54575 25.0564 5.07634C26.25 6.71925 26.25 9.06283 26.25 13.75V16.25C26.25 20.9372 26.25 23.2807 25.0564 24.9237C24.6709 25.4543 24.2042 25.9209 23.6737 26.3064C22.0307 27.5 19.6872 27.5 15 27.5C10.3128 27.5 7.96925 27.5 6.32634 26.3064C5.79575 25.9209 5.32914 25.4543 4.94364 24.9237C3.75 23.2807 3.75 20.9372 3.75 16.25V13.75Z" stroke="black" stroke-width="1.5" stroke-linecap="round" stroke-linejoin="round"/>
<path d="M20 22H10M16.875 25H13.125" stroke="black" stroke-width="1.5" stroke-linecap="round" stroke-linejoin="round"/>
<path d="M23 21L18.7059 16.7059M18.7059 16.7059C18.935 16.4768 19.1479 16.2316 19.3429 15.9721C20.204 14.8259 20.7143 13.4011 20.7143 11.8571C20.7143 8.07005 17.6442 5 13.8571 5C10.07 5 7 8.07005 7 11.8571C7 15.6442 10.07 18.7143 13.8571 18.7143C15.7507 18.7143 17.465 17.9468 18.7059 16.7059Z" stroke="black" stroke-width="1.5" stroke-linecap="round"/>
<path d="M10.6055 14.9967C12.076 12.9207 15.4997 12.8074 17.0045 14.9967M15.4048 10.1974C15.4048 11.0809 14.6885 11.7972 13.805 11.7972C12.9215 11.7972 12.2052 11.0809 12.2052 10.1974C12.2052 9.31389 12.9215 8.59766 13.805 8.59766C14.6885 8.59766 15.4048 9.31389 15.4048 10.1974Z" stroke="black" stroke-width="1.5" stroke-linecap="round"/>
</svg>
