<svg width="30" height="30" viewBox="0 0 30 30" fill="none" xmlns="http://www.w3.org/2000/svg">
<path d="M12.5 16.6667C12.5 16.2792 12.5 16.0854 12.5426 15.9265C12.6582 15.4951 12.9951 15.1582 13.4265 15.0426C13.5854 15 13.7792 15 14.1667 15H15.8333C16.2208 15 16.4146 15 16.5735 15.0426C17.0049 15.1582 17.3418 15.4951 17.4574 15.9265C17.5 16.0854 17.5 16.2792 17.5 16.6667V17.5C17.5 18.8807 16.3807 20 15 20C13.6193 20 12.5 18.8807 12.5 17.5V16.6667Z" stroke="black" stroke-width="1.5" stroke-linecap="round" stroke-linejoin="round"/>
<path d="M17.375 16.875H18.8532C20.4585 16.875 21.2612 16.875 21.9445 16.7302C23.9225 16.3112 25.5362 15.0259 26.2424 13.3069C26.4863 12.713 26.5859 11.9944 26.785 10.5571C26.8598 10.0176 26.8971 9.74779 26.8612 9.52711C26.7565 8.88442 26.2415 8.35797 25.5477 8.18455C25.3094 8.125 25.0081 8.125 24.4055 8.125H5.59452C4.99189 8.125 4.69057 8.125 4.45234 8.18455C3.75853 8.35797 3.24346 8.88442 3.1388 9.52711C3.10286 9.74779 3.14023 10.0176 3.21498 10.5571C3.4141 11.9944 3.51365 12.713 3.75761 13.3069C4.46375 15.0259 6.07747 16.3112 8.05545 16.7302C8.73882 16.875 9.54147 16.875 11.1468 16.875H12.625" stroke="black" stroke-width="1.5"/>
<path d="M4.375 14.375V16.875C4.375 21.589 4.375 23.9461 5.75811 25.4105C7.14121 26.875 9.36729 26.875 13.8194 26.875H16.1806C20.6327 26.875 22.8588 26.875 24.2419 25.4105C25.625 23.9461 25.625 21.589 25.625 16.875V14.375" stroke="black" stroke-width="1.5" stroke-linecap="round" stroke-linejoin="round"/>
<path d="M19.375 8.125L19.2784 7.68348C18.7972 5.48342 18.5565 4.38339 17.9836 3.75419C17.4108 3.125 16.6498 3.125 15.1279 3.125H14.8721C13.3502 3.125 12.5892 3.125 12.0164 3.75419C11.4435 4.38339 11.2028 5.48342 10.7216 7.68348L10.625 8.125" stroke="black" stroke-width="1.5"/>
</svg>
