<svg width="30" height="30" viewBox="0 0 30 30" fill="none" xmlns="http://www.w3.org/2000/svg">
<path d="M24.375 13.7571V11.7163C24.375 7.3717 24.375 5.19939 23.0936 3.8497C21.8122 2.5 19.7498 2.5 15.625 2.5H11.875C7.75021 2.5 5.68782 2.5 4.40641 3.8497C3.125 5.19939 3.125 7.3717 3.125 11.7163V18.2994C3.125 22.644 3.125 24.8163 4.40641 26.166C5.39761 27.21 6.85612 27.4465 9.375 27.5" stroke="black" stroke-width="1.5" stroke-linecap="round" stroke-linejoin="round"/>
<path d="M8.75 20H13.75M8.75 13.75H18.75" stroke="black" stroke-width="1.5" stroke-linecap="round"/>
<path d="M18.5596 27.3196L18.4028 26.5862L18.4028 26.5862L18.5596 27.3196ZM17.0554 25.8154L17.7888 25.9722L17.0554 25.8154ZM18.1508 22.6396L17.6205 22.1093L17.6205 22.1093L18.1508 22.6396ZM21.7354 26.2242L21.205 25.6938L21.205 25.6938L21.7354 26.2242ZM26.6203 19.3466L27.2698 18.9716L27.2698 18.9716L26.6203 19.3466ZM25.8702 22.0894L26.4005 22.6197L26.4005 22.6197L25.8702 22.0894ZM26.6203 21.2476L27.2698 21.6226L27.2698 21.6226L26.6203 21.2476ZM25.0284 17.7547L25.4034 17.1052L25.4034 17.1052L25.0284 17.7547ZM22.2856 18.5048L22.816 19.0352L22.816 19.0352L22.2856 18.5048ZM23.1274 17.7547L22.7524 17.1052L22.7524 17.1052L23.1274 17.7547ZM25.3398 21.559L21.205 25.6938L22.2657 26.7545L26.4005 22.6197L25.3398 21.559ZM18.6812 23.17L22.816 19.0352L21.7553 17.9745L17.6205 22.1093L18.6812 23.17ZM18.4028 26.5862C17.9473 26.6836 17.6888 26.7369 17.5114 26.7482C17.3474 26.7586 17.4482 26.7178 17.5527 26.8223L16.492 27.883C16.8402 28.2311 17.2784 28.266 17.6066 28.2451C17.9213 28.2251 18.3096 28.1401 18.7165 28.0531L18.4028 26.5862ZM16.3219 25.6585C16.2349 26.0654 16.1499 26.4537 16.1299 26.7684C16.109 27.0966 16.1439 27.5348 16.492 27.883L17.5527 26.8223C17.6572 26.9268 17.6164 27.0276 17.6268 26.8636C17.6381 26.6862 17.6914 26.4277 17.7888 25.9722L16.3219 25.6585ZM25.3398 19.0352C25.7907 19.486 25.9075 19.6119 25.9708 19.7216L27.2698 18.9716C27.0829 18.6478 26.783 18.3571 26.4005 17.9745L25.3398 19.0352ZM26.4005 22.6197C26.783 22.2371 27.0829 21.9464 27.2698 21.6226L25.9708 20.8726C25.9075 20.9823 25.7907 21.1082 25.3398 21.559L26.4005 22.6197ZM25.9708 19.7216C26.1764 20.0777 26.1764 20.5165 25.9708 20.8726L27.2698 21.6226C27.7434 20.8024 27.7434 19.7918 27.2698 18.9716L25.9708 19.7216ZM26.4005 17.9745C26.0179 17.592 25.7272 17.2921 25.4034 17.1052L24.6534 18.4042C24.7631 18.4675 24.889 18.5843 25.3398 19.0352L26.4005 17.9745ZM22.816 19.0352C23.2668 18.5843 23.3927 18.4675 23.5024 18.4042L22.7524 17.1052C22.4286 17.2921 22.1379 17.592 21.7553 17.9745L22.816 19.0352ZM25.4034 17.1052C24.5832 16.6316 23.5726 16.6316 22.7524 17.1052L23.5024 18.4042C23.8585 18.1986 24.2973 18.1986 24.6534 18.4042L25.4034 17.1052ZM21.205 25.6938C20.9269 25.972 20.5561 26.1414 20.0658 26.2665C19.8203 26.3292 19.5604 26.3772 19.2773 26.4261C19.003 26.4735 18.6973 26.5233 18.4028 26.5862L18.7165 28.0531C18.9734 27.9981 19.2371 27.9553 19.5327 27.9042C19.8193 27.8547 20.1295 27.7984 20.4369 27.7199C21.0522 27.5628 21.7178 27.3024 22.2657 26.7545L21.205 25.6938ZM17.7888 25.9722C17.8517 25.6777 17.9015 25.372 17.9489 25.0977C17.9978 24.8146 18.0458 24.5547 18.1085 24.3092C18.2336 23.8189 18.403 23.4481 18.6812 23.17L17.6205 22.1093C17.0726 22.6572 16.8122 23.3228 16.6551 23.9381C16.5766 24.2455 16.5203 24.5557 16.4708 24.8423C16.4197 25.1379 16.3769 25.4016 16.3219 25.6585L17.7888 25.9722Z" fill="black"/>
<path d="M12.5 27.5H13.75" stroke="black" stroke-width="1.5" stroke-linecap="round"/>
<path d="M8.75 2.5L8.85275 3.1165C9.10217 4.61305 9.22689 5.36132 9.75141 5.80566C10.2759 6.25 11.0345 6.25 12.5517 6.25H14.9483C16.4655 6.25 17.2241 6.25 17.7486 5.80566C18.2731 5.36132 18.3978 4.61305 18.6473 3.1165L18.75 2.5" stroke="black" stroke-width="1.5" stroke-linecap="round" stroke-linejoin="round"/>
</svg>
