<svg width="160" height="110" viewBox="0 0 160 110" fill="none" xmlns="http://www.w3.org/2000/svg">
<g clip-path="url(#clip0_336_961)">
<path d="M111.502 0H48.4967C44.1487 0.016008 40.6375 3.44171 40.6211 7.68382V69.1544C40.6375 73.3965 44.1487 76.8222 48.4967 76.8382H111.502C115.85 76.8222 119.361 73.3965 119.378 69.1544V7.68382C119.361 3.45772 115.85 0.0320159 111.502 0Z" fill="#146AFF"/>
<path d="M71.2758 44.1679C69.3034 48.364 64.2198 50.2245 59.9089 48.3046C55.598 46.3847 53.6866 41.4365 55.659 37.2404C57.6315 33.0442 62.7151 31.1837 67.0259 33.1036C68.917 33.9349 70.4218 35.3996 71.2758 37.2404H78.0268C76.0544 29.4023 67.941 24.5927 59.8886 26.5126C51.8362 28.4325 46.8949 36.3299 48.8674 44.1679C50.8398 52.0059 58.9532 56.8156 67.0056 54.8957C72.4552 53.6091 76.7051 49.4724 78.0268 44.1679H71.2758Z" fill="white"/>
<path d="M96.3273 26.0772H95.2293C92.6061 26.2751 90.0847 27.146 87.9089 28.5711V12.3013H81.8086V54.1436H87.9496V52.6393C92.0164 55.3114 97.161 55.8656 101.736 54.1436C103.302 53.5696 104.766 52.7185 106.047 51.6497C112.31 46.4441 113.062 37.2602 107.694 31.164C104.847 27.9377 100.699 26.0772 96.3273 26.0772ZM104.868 41.9115C104.888 42.0105 104.888 42.0897 104.868 42.1886C104.827 42.5449 104.746 42.8814 104.624 43.2179C104.522 43.5741 104.38 43.9106 104.217 44.2471C103.383 45.9889 101.94 47.3942 100.15 48.2057C99.6215 48.463 99.0521 48.6609 98.4828 48.7995H97.6694H96.3273H95.1886H94.9039C94.1515 48.6807 93.3992 48.4432 92.7078 48.1265C92.0164 47.8098 91.3657 47.3744 90.7964 46.8598C90.2067 46.3452 89.6983 45.7316 89.2916 45.0784C89.2916 44.7221 88.8849 44.4055 88.7223 44.0492C88.2546 42.9804 88.0309 41.8324 88.0309 40.6844C88.0309 39.4572 88.2952 38.2301 88.8443 37.1216C90.1457 34.4694 92.7688 32.6682 95.7579 32.3713H96.612C101.37 32.3713 105.234 36.132 105.234 40.7635C105.132 41.0802 105.01 41.3969 104.868 41.7136V41.9115Z" fill="white"/>
<path d="M160.242 102.175C160.242 97.6478 157.073 95.0124 152.9 95.0124C148.886 94.8729 145.51 97.9269 145.351 101.849C145.351 102.035 145.351 102.221 145.351 102.423C145.176 106.376 148.329 109.724 152.39 109.895C152.549 109.895 152.725 109.91 152.884 109.895C154.429 109.91 155.942 109.538 157.28 108.81C158.681 108.034 159.685 106.748 160.099 105.229H157.041C156.292 106.546 154.954 107.182 153.059 107.182C150.495 107.182 148.6 105.229 148.6 103.368H160.21C160.242 102.857 160.242 102.516 160.242 102.175ZM148.552 100.748C148.982 98.8415 150.766 97.5393 152.772 97.6633C154.97 97.6633 156.77 98.95 157.041 100.748H148.6H148.552Z" fill="#146AFF"/>
<path d="M11.5189 104.283C10.4837 106.423 7.85578 107.353 5.65792 106.345C3.46006 105.337 2.50447 102.78 3.5397 100.64C4.57492 98.5009 7.20279 97.5707 9.40065 98.5784C10.3722 99.028 11.1366 99.7876 11.5667 100.749H14.9749C13.9716 96.7336 9.81474 94.2687 5.68978 95.2454C1.56481 96.222 -0.967506 100.268 0.0358647 104.283C1.03923 108.298 5.19605 110.763 9.32102 109.787C12.1082 109.12 14.2901 106.996 14.9749 104.283H11.5667H11.5189Z" fill="#146AFF"/>
<path d="M27.1605 95.6481C26.2049 95.214 25.1537 94.997 24.0866 95.0125C22.9877 95.028 21.9206 95.338 20.9969 95.9426V95.5241H17.8594V109.399H21.0128V102.748C20.965 101.849 21.0288 100.934 21.2039 100.051V99.9888C21.3951 99.3842 21.8091 98.8881 22.3825 98.5936C23.4177 97.9425 24.7556 97.9425 25.7908 98.5936L27.1605 95.6481Z" fill="#146AFF"/>
<path d="M39.0877 95.5243V102.175C39.1355 103.074 39.0718 103.989 38.8966 104.872V104.934C38.7054 105.523 38.2914 106.019 37.7339 106.314C36.6987 106.965 35.3609 106.965 34.3257 106.314C33.7682 106.019 33.3541 105.523 33.163 104.934V104.872C32.9878 103.989 32.9241 103.074 32.9719 102.175V95.5243H29.8184V103.09C29.7388 104.33 29.9299 105.57 30.36 106.733C30.8537 107.849 31.7615 108.748 32.9241 109.228C33.8797 109.663 34.9309 109.88 35.9979 109.864C37.0969 109.849 38.1639 109.539 39.0877 108.934V109.384H42.2093V95.5088H39.0877V95.5243Z" fill="#146AFF"/>
<path d="M49.2313 109.399V102.749C49.1835 101.834 49.2631 100.935 49.4383 100.036V99.9737C49.6294 99.3846 50.0435 98.8885 50.601 98.5939C51.6362 97.9428 52.974 97.9428 54.0092 98.5939C54.5667 98.8885 54.9807 99.3846 55.1719 99.9737V100.036C55.3471 100.935 55.4108 101.834 55.3471 102.749V109.399H58.4846V101.834C58.5642 100.594 58.389 99.3536 57.9749 98.1909C57.4812 97.0747 56.5734 96.1755 55.4108 95.695C54.4552 95.2609 53.404 95.0439 52.3369 95.0594C51.238 95.0749 50.1709 95.3849 49.2472 95.9895V95.5709H46.0938V109.399H49.2313Z" fill="#146AFF"/>
<path d="M73.0423 104.283C72.0071 106.422 69.3792 107.352 67.1814 106.345C64.9835 105.337 64.0279 102.779 65.0631 100.64C66.0984 98.5004 68.7262 97.5702 70.9241 98.5779C71.8956 99.0275 72.6601 99.7871 73.0901 100.748H76.4984C75.495 96.7331 71.3382 94.2682 67.2132 95.2449C63.0882 96.2215 60.5559 100.268 61.5593 104.283C62.5627 108.298 66.7195 110.763 70.8445 109.786C73.6316 109.12 75.8135 106.996 76.4984 104.283H73.0901H73.0423Z" fill="#146AFF"/>
<path d="M82.5363 109.399V102.748C82.4885 101.849 82.5522 100.935 82.7274 100.051V99.989C82.9185 99.3844 83.3326 98.8884 83.9059 98.5938C84.9412 97.9427 86.279 97.9427 87.3142 98.5938C87.8716 98.8884 88.2857 99.3844 88.4768 99.9735V100.036C88.652 100.919 88.7157 101.834 88.668 102.733V109.384H91.8055V101.818C91.8851 100.578 91.694 99.3379 91.264 98.1752C90.7703 97.0591 89.8625 96.1599 88.6998 95.6793C87.7442 95.2453 86.6931 95.0282 85.626 95.0437C84.5271 95.0592 83.46 95.3693 82.5363 95.9739V87.9746H79.3828V109.399H82.5363Z" fill="#146AFF"/>
<path d="M103.113 95.0127H102.556C101.202 95.1058 99.9122 95.5553 98.7974 96.2994V87.9746H95.6758V109.399H98.8133V108.624C102.285 110.996 107.079 110.19 109.516 106.81C111.953 103.431 111.125 98.7643 107.653 96.3925C106.315 95.4778 104.738 94.9972 103.113 95.0127ZM107.509 103.028V103.167C107.477 103.338 107.445 103.524 107.382 103.694C107.318 103.88 107.254 104.066 107.175 104.237V104.299C106.585 105.508 105.439 106.376 104.085 106.655L103.671 106.717H103.575C103.416 106.733 103.257 106.733 103.098 106.717C102.89 106.717 102.699 106.702 102.492 106.671H102.349C101.967 106.609 101.585 106.5 101.234 106.345H101.155C100.788 106.175 100.47 105.957 100.167 105.694C99.8645 105.43 99.6096 105.12 99.3867 104.795C99.2752 104.624 99.1796 104.454 99.1 104.268C98.5903 103.136 98.6063 101.849 99.1478 100.733C99.8007 99.3689 101.155 98.4543 102.683 98.2993C102.827 98.2993 102.986 98.2993 103.129 98.2993C105.502 98.3303 107.414 100.175 107.477 102.469C107.525 102.655 107.525 102.841 107.509 103.028Z" fill="#146AFF"/>
<path d="M142.816 99.679V99.6015C142.816 97.3381 141.032 95.0438 137.051 94.9973C133.069 94.9508 131.349 97.2761 131.301 99.5085V99.679C131.381 100.981 132.161 102.64 135.123 103.322L137.767 103.911C138.452 104.066 139.615 104.438 139.71 105.275C139.71 106.454 138.165 107.058 137.051 107.058C135.776 107.058 134.391 106.361 134.391 105.26V105.198H131.285V105.244C131.285 107.508 133.069 109.802 137.051 109.849C141.032 109.895 142.816 107.508 142.816 105.244V105.198C142.752 103.88 142.02 102.19 138.994 101.508L136.35 100.919C135.776 100.795 134.407 100.408 134.407 99.5705C134.407 98.2528 135.776 97.7877 137.066 97.7877C138.357 97.7877 139.726 98.4853 139.726 99.586V99.6635H142.816V99.679Z" fill="#146AFF"/>
<path d="M113.32 102.454C113.352 106.594 116.84 109.911 121.077 109.865C122.574 109.849 124.039 109.415 125.281 108.609V109.399H128.419V95.5248H125.297V96.3619C124.182 95.6178 122.892 95.1682 121.538 95.0752H120.981C116.776 95.0907 113.368 98.3772 113.32 102.454ZM116.553 102.454C116.553 100.083 118.528 98.1757 120.965 98.1602C121.108 98.1602 121.268 98.1602 121.411 98.1602C122.94 98.3152 124.294 99.2454 124.947 100.594C125.488 101.71 125.504 102.997 124.994 104.129C124.915 104.315 124.819 104.485 124.708 104.656C124.485 104.997 124.23 105.291 123.927 105.555C123.625 105.818 123.29 106.035 122.94 106.206H122.86C122.51 106.361 122.128 106.47 121.745 106.532H121.602C121.411 106.563 121.204 106.578 120.997 106.578C120.838 106.594 120.678 106.594 120.519 106.578H120.455L120.041 106.516C118.719 106.221 117.62 105.369 117.031 104.175V104.113C116.952 103.943 116.872 103.757 116.824 103.571C116.776 103.4 116.729 103.23 116.697 103.043V102.904C116.649 102.78 116.601 102.625 116.553 102.454Z" fill="#146AFF"/>
</g>
<defs>
<clipPath id="clip0_336_961">
<rect width="160" height="110" fill="white"/>
</clipPath>
</defs>
</svg>
