<svg width="236" height="40" viewBox="0 0 236 40" fill="none" xmlns="http://www.w3.org/2000/svg">
<g id="Logo">
<g id="Group 491">
<g id="Agreement Paper Enterprice">
<path id="Vector" d="M33.6954 3.85498L12.6914 19.5691L15.6086 34.2833L33.6954 3.85498Z" fill="#00BAF2"/>
<path id="Vector_2" d="M37.4863 0L16.774 15.5713L0 4.57139L37.4863 0Z" fill="#2E43DA"/>
<path id="Vector_3" d="M37.1949 0.287109L16.7744 15.5727L5.10547 5.71563L37.1949 0.287109Z" fill="#1129D8"/>
<path id="Vector_4" d="M37.4825 0L16.7702 15.5713L13.2695 9.42848L37.4825 0Z" fill="#0218B7"/>
<path id="Vector_5" d="M33.6954 3.85498L12.6914 19.5691L15.9004 24.7119L33.6954 3.85498Z" fill="#00A1E0"/>
</g>
<g id="Group">
<g id="Group_2">
<path id="Vector_6" d="M41.276 27.8567L40.6926 24.1427H33.3995L31.6492 27.8567H27.7109L36.9002 9.14371H41.276L45.2143 27.8567H41.276ZM38.6505 12.4292L35.8792 18.5716L34.7123 21.2857H40.1091L39.6716 18.5716L38.6505 12.4292Z" fill="black"/>
<path id="Vector_7" d="M57.9031 14.5719H61.2579L59.3617 26.9996C58.7783 31.2851 55.861 33.4278 51.3393 33.4278C48.4221 33.4278 46.3801 32.4278 45.5049 31.4279L47.4011 28.9995C48.4221 29.9994 49.589 30.5708 51.4852 30.5708C53.6731 30.5708 55.1317 29.5709 55.4234 27.4282L55.5693 26.8568C54.6941 27.4282 53.6731 27.7139 52.2145 27.7139C48.8597 27.7139 46.5259 25.4283 46.5259 22C46.5259 17.286 49.589 14.1434 53.6731 14.1434C55.4234 14.1434 56.7362 14.5719 57.6114 15.429L57.9031 14.5719ZM56.1528 23.7141L56.8821 18.2859C56.2986 17.5717 55.2776 17.286 54.1107 17.286C51.9228 17.286 50.3183 19.0002 50.3183 21.5714C50.3183 23.5713 51.4852 24.7141 53.5272 24.7141C54.5483 24.7141 55.2776 24.2855 56.1528 23.7141Z" fill="black"/>
<path id="Vector_8" d="M73.0737 14.4291L71.761 18.4288C71.4693 18.2859 71.0317 18.1431 70.4482 18.1431C69.7189 18.1431 68.8438 18.5716 67.9686 19.4287L66.9476 20.4287L65.7807 27.8567H61.9883L63.8845 14.5719H67.531L67.2393 16.8575L67.9686 16.0004C69.1355 14.7148 70.1565 14.1434 71.4693 14.1434C72.1986 14.1434 72.6362 14.2862 73.0737 14.4291Z" fill="black"/>
<path id="Vector_9" d="M85.4715 19.5716C85.4715 20.5715 85.3256 21.5714 85.1798 22H75.9905C75.9905 24.2855 77.3033 25.2855 79.3453 25.2855C80.6581 25.2855 81.6791 24.8569 82.846 23.857L84.4505 26.2854C82.846 27.571 81.2415 28.2853 78.7619 28.2853C74.9695 28.2853 72.344 26.1426 72.344 22.1428C72.344 17.286 75.6988 14.1434 79.7829 14.1434C83.2836 14.1434 85.4715 16.2861 85.4715 19.5716ZM81.9708 19.7144V19.4287C81.9708 17.8574 80.9498 17.0003 79.4912 17.0003C77.8867 17.0003 76.7198 18.0003 76.1364 19.7144H81.9708Z" fill="black"/>
<path id="Vector_10" d="M99.7669 19.5716C99.7669 20.5715 99.6211 21.5714 99.4752 22H90.2859C90.2859 24.2855 91.5987 25.2855 93.6407 25.2855C94.9535 25.2855 95.9745 24.8569 97.1414 23.857L98.7459 26.2854C97.1414 27.571 95.5369 28.2853 93.0573 28.2853C89.2649 28.2853 86.6394 26.1426 86.6394 22.1428C86.6394 17.286 89.9942 14.1434 94.0783 14.1434C97.7249 14.1434 99.7669 16.2861 99.7669 19.5716ZM96.4121 19.7144V19.4287C96.4121 17.8574 95.3911 17.0003 93.9325 17.0003C92.328 17.0003 91.1611 18.0003 90.5777 19.7144H96.4121Z" fill="black"/>
<path id="Vector_11" d="M122.813 18.5722L121.5 27.8573H117.707L118.874 19.715C119.02 18.4293 118.437 17.7151 117.562 17.7151C116.686 17.7151 116.103 18.1436 115.082 18.715L114.207 19.1436L112.894 27.8573H109.102L110.268 19.715C110.414 18.4293 109.977 17.7151 108.956 17.7151C108.226 17.7151 107.643 18.0008 106.622 18.5722L105.747 19.1436L104.434 27.8573H100.642L102.538 14.5725H106.184L105.893 16.1438L106.476 15.8581C107.789 15.001 108.956 14.1439 110.706 14.1439C112.31 14.1439 113.623 14.8582 114.061 16.2866L114.79 15.7152C116.103 14.8582 117.416 14.0011 119.166 14.0011C121.646 14.1439 123.25 15.5724 122.813 18.5722Z" fill="black"/>
<path id="Vector_12" d="M137.691 19.5716C137.691 20.5715 137.545 21.5714 137.399 22H128.21C128.21 24.2855 129.523 25.2855 131.565 25.2855C132.878 25.2855 133.899 24.8569 135.065 23.857L136.67 26.2854C135.065 27.571 133.461 28.2853 130.981 28.2853C127.189 28.2853 124.563 26.1426 124.563 22.1428C124.563 17.286 127.918 14.1434 132.002 14.1434C135.503 14.1434 137.691 16.2861 137.691 19.5716ZM134.19 19.7144V19.4287C134.19 17.8574 133.169 17.0003 131.711 17.0003C130.106 17.0003 128.939 18.0003 128.356 19.7144H134.19Z" fill="black"/>
<path id="Vector_13" d="M152.277 18.5716L150.964 27.8567H147.172L148.338 19.7144C148.484 18.4287 148.047 17.7145 147.026 17.7145C146.296 17.7145 145.421 18.2859 144.4 18.8573L143.525 19.4287L142.212 27.9995H138.42L140.462 14.5719H144.109L143.817 16.286L144.692 15.7146C145.859 15.0004 147.172 14.1433 148.922 14.1433C151.11 14.1433 152.714 15.5718 152.277 18.5716Z" fill="black"/>
<path id="Vector_14" d="M160.152 17.4277L159.423 22.7131C159.277 24.1416 159.715 24.7129 160.736 24.7129C161.319 24.7129 161.903 24.4273 162.486 24.1416L163.799 26.7128C162.778 27.5699 161.319 27.9984 159.569 27.9984C156.943 27.9984 155.047 26.7128 155.631 22.9988L156.506 17.4277H154.026L154.464 14.5708H157.235L157.819 10.8568H161.465L160.882 14.5708H164.82L164.382 17.4277H160.152Z" fill="black"/>
<path id="Vector_15" d="M190.201 16.1432C189.472 17.4288 188.305 18.4288 186.701 19.2859C185.242 20.1429 183.346 20.5715 181.304 20.7143L180.137 27.1425C179.699 29.5709 178.387 30.8565 176.49 30.8565C175.324 30.8565 174.303 30.5708 173.427 29.8566C172.552 29.2852 171.677 28.2853 171.239 26.9996C170.656 25.714 170.364 24.1427 170.364 22.1428C170.364 18.5716 170.948 15.429 172.115 13.0006C173.281 10.5722 174.886 8.5723 176.928 7.42953C178.97 6.1439 181.158 5.57251 183.492 5.57251C185.242 5.57251 186.701 5.8582 187.868 6.42959C189.034 7.00098 189.91 7.85807 190.493 8.858C191.077 9.85793 191.368 11.0007 191.368 12.2863C191.368 13.572 190.931 14.8576 190.201 16.1432ZM187.284 12.2863C187.284 11.1436 186.847 10.1436 186.117 9.42939C185.388 8.71515 184.075 8.28661 182.471 8.28661C180.575 8.28661 178.97 8.858 177.657 10.0008C176.345 11.1436 175.178 12.7149 174.448 14.8576C173.719 16.8575 173.281 19.2859 173.281 21.8571C173.281 22.9999 173.427 23.9998 173.573 24.7141C173.865 25.5711 174.157 26.2854 174.448 26.7139C174.74 27.1425 175.178 27.4282 175.469 27.4282C175.907 27.4282 176.199 26.8568 176.49 25.5711L177.366 20.5715C176.636 20.4286 176.345 20.4286 176.49 20.4286C175.907 20.2858 175.615 20.1429 175.469 20.0001C175.324 19.7144 175.178 19.4287 175.178 19.143C175.178 18.7145 175.324 18.4288 175.469 18.1431C175.761 17.8574 176.053 17.8574 176.345 17.8574C176.49 17.8574 176.636 17.8574 176.782 17.8574C177.22 17.8574 177.511 18.0002 177.803 18.0002C178.095 16.5718 178.387 14.7147 178.824 12.4292C178.97 11.8578 179.116 11.4293 179.554 11.1436C179.991 10.8579 180.429 10.715 180.866 10.715C181.45 10.715 181.887 10.8579 182.179 11.0007C182.471 11.1436 182.617 11.5721 182.617 12.0006C182.617 12.2863 182.617 12.572 182.617 12.7149L181.741 17.8574C185.534 17.4288 187.284 15.5718 187.284 12.2863Z" fill="black"/>
<path id="Vector_16" d="M189.909 26.7145C189.179 25.8574 188.888 24.8575 188.888 23.5718C188.888 22.1434 189.179 20.8577 189.909 19.5721C190.638 18.2865 191.513 17.2866 192.534 16.5723C193.701 15.8581 194.868 15.4295 196.035 15.4295C196.472 15.4295 196.764 15.5724 196.764 15.7152C196.91 15.8581 197.056 16.1438 197.056 16.5723C197.494 16.5723 197.785 16.4295 198.223 16.4295C199.098 16.4295 199.536 16.7152 199.536 17.4294C199.536 17.8579 199.39 18.715 199.098 20.1435C198.66 22.1434 198.515 23.5718 198.515 24.4289C198.515 24.7146 198.515 24.8575 198.66 25.0003C198.806 25.1432 198.952 25.286 199.244 25.286C199.536 25.286 199.973 25.0003 200.557 24.5718C200.994 24.1432 201.723 23.429 202.599 22.4291C202.745 22.1434 203.036 22.0005 203.328 22.0005C203.62 22.0005 203.766 22.1434 203.911 22.2862C204.057 22.4291 204.057 22.8576 204.057 23.1433C204.057 23.8575 203.911 24.4289 203.474 24.8575C202.745 25.7146 202.015 26.5716 201.14 27.143C200.265 27.7144 199.536 28.143 198.66 28.143C198.077 28.143 197.494 28.0001 197.056 27.5716C196.618 27.143 196.181 26.5716 195.889 26.0002C195.014 27.4287 193.701 28.2858 192.388 28.2858C191.367 28.0001 190.492 27.5716 189.909 26.7145ZM194.576 24.5718C194.868 24.1432 195.16 23.5718 195.306 22.7148L196.327 17.8579C195.597 17.8579 194.868 18.1436 194.285 18.715C193.701 19.2864 193.118 20.0007 192.68 20.8577C192.243 21.7148 192.097 22.7148 192.097 23.7147C192.097 24.2861 192.243 24.7146 192.388 25.0003C192.68 25.286 192.972 25.4289 193.264 25.4289C193.847 25.286 194.285 25.0003 194.576 24.5718Z" fill="black"/>
<path id="Vector_17" d="M216.311 22.2868C216.457 22.4296 216.457 22.8582 216.457 23.1439C216.457 23.8581 216.311 24.4295 215.873 24.858C215.144 25.858 214.269 26.5722 213.393 27.1436C212.518 27.715 211.497 28.0007 210.33 28.0007C209.309 28.0007 208.58 27.715 207.997 27.0008C206.976 27.715 205.955 28.0007 204.788 28.0007C204.496 31.429 204.058 34.286 203.183 36.5715C202.308 38.8571 201.141 39.9999 199.537 39.9999C198.516 39.9999 197.786 39.7142 197.349 38.9999C196.911 38.2857 196.619 37.2858 196.619 36.143C196.619 34.4288 197.057 32.429 197.786 30.0005C198.661 27.715 199.828 25.1437 201.579 22.4296C201.579 19.8584 201.579 18.0014 201.579 17.0014C201.579 16.43 201.725 16.1443 202.162 15.7158C202.6 15.4301 203.183 15.2873 203.767 15.2873C204.204 15.2873 204.496 15.4301 204.642 15.573C204.788 15.7158 204.933 16.0015 204.933 16.43C204.933 16.8586 204.933 17.1443 204.933 17.43C205.517 16.7157 206.1 16.1443 206.684 15.8587C207.267 15.573 207.851 15.4301 208.434 15.4301C209.455 15.4301 210.33 15.8587 210.914 16.5729C211.497 17.43 211.935 18.4299 211.935 19.7155C211.935 20.7155 211.789 21.5725 211.497 22.4296C211.206 23.2867 210.768 24.1438 210.184 24.858C210.622 25.0009 210.914 25.0009 211.206 25.0009C211.789 25.0009 212.372 24.858 212.956 24.4295C213.539 24.001 214.123 23.2867 214.998 22.2868C215.144 22.0011 215.435 21.8582 215.727 21.8582C216.019 21.8582 216.165 22.0011 216.311 22.2868ZM200.995 34.286C201.287 32.1433 201.579 29.572 201.579 26.5722C200.849 28.2864 200.12 30.0005 199.682 31.7147C199.245 33.286 198.953 34.7145 198.953 35.7144C198.953 36.2858 198.953 36.7144 199.099 37.0001C199.245 37.2858 199.391 37.4286 199.537 37.4286C200.266 37.4286 200.703 36.2858 200.995 34.286ZM206.83 24.4295C207.413 23.8581 207.851 23.1439 208.142 22.2868C208.434 21.4297 208.58 20.5726 208.58 19.7155C208.58 19.1441 208.434 18.7156 208.288 18.5728C208.142 18.2871 207.851 18.1442 207.413 18.1442C206.83 18.1442 205.955 18.8584 205.079 20.1441C205.079 20.8583 205.079 22.0011 205.079 23.5724C205.079 24.4295 205.079 25.0009 205.079 25.4294C205.663 25.2866 206.246 25.0009 206.83 24.4295Z" fill="black"/>
<path id="Vector_18" d="M226.227 22.2869C226.373 22.4297 226.373 22.8583 226.373 23.144C226.373 23.8582 226.227 24.4296 225.79 24.8581C225.06 25.7152 224.185 26.4295 223.018 27.0008C221.851 27.7151 220.539 28.0008 219.08 28.0008C217.184 28.0008 215.725 27.4294 214.704 26.4295C213.683 25.4295 213.1 24.001 213.1 22.2869C213.1 21.0013 213.391 19.8585 213.829 18.8585C214.412 17.8586 215.142 17.0015 216.017 16.2873C216.892 15.7159 218.059 15.2874 219.226 15.2874C220.247 15.2874 221.122 15.573 221.705 16.1444C222.289 16.7158 222.726 17.5729 222.726 18.5728C222.726 19.8585 222.289 20.8584 221.414 21.7155C220.539 22.5726 218.934 23.2868 216.892 23.8582C217.33 24.7153 218.205 25.1438 219.517 25.1438C220.393 25.1438 221.268 24.8581 222.289 24.2867C223.31 23.7154 224.185 23.0011 225.06 22.144C225.206 21.8583 225.498 21.7155 225.79 21.7155C225.935 21.8583 226.227 22.0012 226.227 22.2869ZM217.184 19.1442C216.746 19.8585 216.454 20.8584 216.454 21.8583C217.475 21.5726 218.351 21.2869 218.934 20.7156C219.518 20.287 219.809 19.5728 219.809 19.0014C219.809 18.7157 219.663 18.43 219.517 18.1443C219.372 17.8586 219.08 17.8586 218.788 17.8586C218.205 18.0015 217.621 18.43 217.184 19.1442Z" fill="black"/>
<path id="Vector_19" d="M235.563 19.572C235.855 19.8577 236 20.1434 236 20.572C236 20.8576 236 21.0005 235.855 21.2862C235.563 22.0004 235.125 22.429 234.688 23.0004C234.104 23.4289 233.521 23.7146 232.937 23.7146C232.5 23.7146 232.062 23.5717 231.625 23.1432C231.333 22.8575 231.041 22.2861 231.041 21.7147C231.041 21.429 231.041 21.0005 231.041 20.572C231.041 20.2863 231.041 20.1434 231.041 20.0006C231.041 19.8577 231.041 19.7149 230.895 19.7149C230.895 19.7149 230.749 19.572 230.604 19.572C230.312 19.572 230.02 19.8577 229.583 20.4291C229.145 21.0005 228.707 21.8576 228.27 22.7147C227.832 23.7146 227.541 24.7145 227.249 25.8573C227.103 26.7144 226.811 27.2858 226.519 27.5715C226.228 27.8572 225.79 28 225.207 28C224.477 28 224.04 27.7143 223.748 27.0001C223.456 26.2858 223.311 25.1431 223.311 23.5717C223.311 21.2862 223.602 19.1435 224.332 17.0008C224.477 16.4294 224.769 16.1437 225.061 15.858C225.498 15.5723 225.936 15.4294 226.665 15.4294C226.957 15.4294 227.249 15.4294 227.395 15.5723C227.541 15.7151 227.541 15.858 227.541 16.1437C227.541 16.4294 227.395 17.0008 227.103 18.0007C226.957 18.7149 226.811 19.2863 226.665 19.8577C226.519 20.4291 226.519 21.0005 226.374 21.8576C226.957 20.2863 227.686 19.1435 228.416 18.1435C229.145 17.1436 229.874 16.5722 230.604 16.1437C231.333 15.7151 231.916 15.5723 232.5 15.5723C233.083 15.5723 233.375 15.7151 233.667 16.0008C233.958 16.2865 234.104 16.7151 234.104 17.2865C234.104 17.5722 233.958 18.2864 233.813 19.1435H234.104C234.979 19.1435 235.271 19.2863 235.563 19.572Z" fill="black"/>
</g>
</g>
</g>
</g>
</svg>
