<svg width="16" height="16" viewBox="0 0 16 16" fill="none" xmlns="http://www.w3.org/2000/svg">
<path d="M7.9974 6.0026C7.26102 6.0026 6.66406 6.45032 6.66406 7.0026C6.66406 7.55489 7.26102 8.0026 7.9974 8.0026C8.73378 8.0026 9.33073 8.45032 9.33073 9.0026C9.33073 9.55489 8.73378 10.0026 7.9974 10.0026M7.9974 6.0026C8.57794 6.0026 9.07182 6.28087 9.25486 6.66927M7.9974 6.0026V5.33594M7.9974 10.0026C7.41685 10.0026 6.92297 9.72434 6.73993 9.33594M7.9974 10.0026V10.6693" stroke="white" stroke-linecap="round"/>
<path d="M1.33203 8.0013C1.33203 5.64298 1.33203 4.46382 2.0339 3.67657C2.14616 3.55065 2.26988 3.4342 2.40367 3.32855C3.24012 2.66797 4.49298 2.66797 6.9987 2.66797H8.9987C11.5044 2.66797 12.7573 2.66797 13.5937 3.32855C13.7275 3.4342 13.8512 3.55065 13.9635 3.67657C14.6654 4.46382 14.6654 5.64298 14.6654 8.0013C14.6654 10.3596 14.6654 11.5388 13.9635 12.326C13.8512 12.452 13.7275 12.5684 13.5937 12.6741C12.7573 13.3346 11.5044 13.3346 8.9987 13.3346H6.9987C4.49298 13.3346 3.24012 13.3346 2.40367 12.6741C2.26988 12.5684 2.14616 12.452 2.0339 12.326C1.33203 11.5388 1.33203 10.3596 1.33203 8.0013Z" stroke="white" stroke-linecap="round" stroke-linejoin="round"/>
<path d="M12.3398 8H12.3339" stroke="white" stroke-linecap="round" stroke-linejoin="round"/>
<path d="M3.66406 8H3.65807" stroke="white" stroke-linecap="round" stroke-linejoin="round"/>
</svg>
