<svg width="356" height="274" viewBox="0 0 356 274" fill="none" xmlns="http://www.w3.org/2000/svg">
<path d="M41.6373 51.4721C41.6373 51.4721 74.1166 21.987 114.04 36.0279C153.963 50.0682 185.089 113.952 223.658 116.059C262.229 118.164 298.092 96.4014 328.54 115.356C358.99 134.311 364.404 216.447 306.211 224.872C248.019 233.296 215.539 203.109 190.503 204.513C165.466 205.918 104.567 237.509 56.5235 223.468C8.4811 209.427 -34.8255 112.549 41.6373 51.4721Z" fill="black" fill-opacity="0.05"/>
<mask id="mask0_341_5333" style="mask-type:luminance" maskUnits="userSpaceOnUse" x="117" y="0" width="157" height="57">
<path d="M117.574 0.000293732H273.836V56.291H117.574V0.000293732Z" fill="white"/>
</mask>
<g mask="url(#mask0_341_5333)">
<g opacity="0.460007">
<path d="M258.644 56.291H119.805C118.346 56.291 117.279 54.8603 117.647 53.3953L130.608 1.73049C130.864 0.711308 131.751 0.000293732 132.766 0.000293732H271.604C273.064 0.000293732 274.13 1.43105 273.762 2.89604L260.801 54.5602C260.545 55.5793 259.659 56.291 258.644 56.291Z" fill="#007957"/>
<path d="M138.848 11.0527H187.159" stroke="white" stroke-width="4.59467" stroke-miterlimit="10" stroke-linecap="round" stroke-linejoin="round"/>
<path d="M135.129 34.1855H183.44" stroke="white" stroke-width="4.59467" stroke-miterlimit="10" stroke-linecap="round" stroke-linejoin="round"/>
<path d="M155.445 25.4473H203.756" stroke="white" stroke-width="4.59467" stroke-miterlimit="10" stroke-linecap="round" stroke-linejoin="round"/>
<path d="M137.609 18.7637H152.103" stroke="white" stroke-width="4.59467" stroke-miterlimit="10" stroke-linecap="round" stroke-linejoin="round"/>
<path d="M135.625 25.4473H150.118" stroke="white" stroke-width="4.59467" stroke-miterlimit="10" stroke-linecap="round" stroke-linejoin="round"/>
<path d="M194.836 11.0527H212.054" stroke="white" stroke-width="4.59467" stroke-miterlimit="10" stroke-linecap="round" stroke-linejoin="round"/>
<path d="M203.273 45.0391H177.561C177.431 45.0391 177.337 44.9122 177.37 44.7819L178.52 40.1949C178.543 40.1043 178.621 40.0412 178.712 40.0412H204.424C204.554 40.0412 204.648 40.1681 204.615 40.2983L203.465 44.8853C203.442 44.976 203.364 45.0391 203.273 45.0391Z" stroke="#84AEE5" stroke-width="1.532" stroke-miterlimit="10"/>
<path d="M171.316 45.0391H145.605C145.475 45.0391 145.38 44.9122 145.413 44.7819L146.563 40.1949C146.587 40.1043 146.665 40.0412 146.755 40.0412H172.467C172.597 40.0412 172.692 40.1681 172.659 40.2983L171.508 44.8853C171.485 44.976 171.406 45.0391 171.316 45.0391Z" stroke="#84AEE5" stroke-width="1.532" stroke-miterlimit="10"/>
<path d="M248.465 38.3879C247.148 36.5671 241.8 35.2418 240.323 33.4209C239.568 32.4904 239.568 30.7615 239.749 29.2918C240.275 28.944 240.712 28.5949 240.972 28.2706C241.415 27.5979 241.916 26.6573 242.418 25.626C242.57 25.7797 242.772 25.8999 243.032 25.8919C243.735 25.8697 246.407 22.0958 245.718 21.2209C245.324 20.7214 244.688 21.1551 244.215 21.6177C244.922 19.9379 245.42 18.6495 245.42 18.6495H245.393C245.46 18.438 245.522 18.2245 245.574 18.0083C246.634 13.5959 244.047 10.0193 239.794 10.0193C235.541 10.0193 231.234 13.5959 230.174 18.0083C230.122 18.2245 230.081 18.438 230.047 18.6495H230.02C230.02 18.6495 229.899 19.9379 229.798 21.6177C229.547 21.1551 229.119 20.7214 228.485 21.2209C227.376 22.0958 228.234 25.8697 228.926 25.8919C229.183 25.8999 229.443 25.7797 229.668 25.626C229.674 26.6573 229.723 27.5979 229.844 28.2706C229.971 28.6668 230.344 29.1005 230.828 29.5241C230.299 30.9401 229.494 32.5394 228.354 33.4209C226.002 35.2418 220.018 36.5671 217.824 38.3879C215.852 40.0261 214.092 44.8105 213.758 45.7559H248.991C249.111 44.8105 249.651 40.0261 248.465 38.3879Z" fill="white"/>
</g>
</g>
<path d="M234.491 97.418H95.6531C94.1932 97.418 93.1274 95.9879 93.4949 94.5222L106.456 42.8581C106.711 41.8389 107.599 41.1272 108.614 41.1272H247.452C248.912 41.1272 249.978 42.558 249.61 44.0237L236.649 95.6871C236.393 96.7063 235.506 97.418 234.491 97.418Z" stroke="#007957" stroke-width="1.532" stroke-miterlimit="10"/>
<path d="M91.3783 90.7884L91.3783 90.7884C91.0841 91.9613 91.9409 93.0625 93.0509 93.0625H231.89C232.664 93.0625 233.36 92.518 233.562 91.71L246.523 40.0459L246.523 40.0456C246.818 38.8732 245.961 37.7718 244.851 37.7718H106.012C105.237 37.7718 104.542 38.3158 104.339 39.1236L103.854 39.002L104.339 39.1236L91.3783 90.7884Z" fill="white" stroke="#DFDFDF"/>
<path d="M136.617 93.5625H206.111" stroke="#007957" stroke-width="1.532" stroke-miterlimit="10"/>
<path d="M117.293 37.2715H176.009" stroke="#C6C6C6" stroke-width="1.532" stroke-miterlimit="10"/>
<path d="M220.679 85.8496H189.463C188.026 85.8496 187.152 84.6411 187.51 83.1506L195.386 50.3783C195.744 48.8885 197.199 47.6799 198.636 47.6799H229.852C231.289 47.6799 232.163 48.8885 231.804 50.3783L223.929 83.1506C223.571 84.6411 222.116 85.8496 220.679 85.8496Z" fill="#CAFFF0"/>
<path d="M205.523 85.4785L208.255 74.1111L203.777 72.1439C203.777 72.1439 195.429 75.3135 194.719 76.0789C194.123 76.7201 191.126 83.3509 190.172 85.4785H205.523Z" fill="black"/>
<path d="M220.98 85.4785C221.048 83.3509 221.239 76.7201 220.951 76.0789C220.608 75.3135 213.785 72.1439 213.785 72.1439L208.36 74.1111L205.629 85.4785H220.98Z" fill="black"/>
<path d="M208.186 85.9785L212.465 76.1419L203.274 76.6884L202.375 85.9785H208.186Z" fill="#BEBECF"/>
<path d="M205.272 70.5679L203.271 71.8798L201.957 75.1582L201.617 79.6398L204.434 78.4373L206.622 81.1699L209.545 78.6562L211.336 80.4052L214.046 74.3935L213.569 70.6773L212.435 70.1308L205.272 70.5679Z" fill="#DEE0E8"/>
<path d="M205.885 61.9625C205.885 61.9625 205.213 60.378 203.834 61.4321C202.456 62.4862 204.069 66.5583 205.068 65.333C206.066 64.1077 205.885 61.9625 205.885 61.9625Z" fill="#FB8E74"/>
<path d="M215.709 61.8785C215.709 61.8785 217.019 60.1987 218.008 61.14C218.996 62.0813 215.747 66.3849 215.212 65.2335C214.678 64.0814 215.709 61.8785 215.709 61.8785Z" fill="#FB8E74"/>
<path d="M212.639 73.7428L214.049 65.9827L205.888 66.7173L204.086 74.0046C204.086 74.0046 205.513 77.4543 207.042 78.9844C207.042 78.9844 211.788 74.7311 212.639 73.7428Z" fill="#FB8877"/>
<path d="M219.255 58.7454C218.951 59.6894 218.201 59.9251 218.146 60.4756C218.09 61.0261 217.75 62.4421 217.232 62.9927C216.715 63.5432 216.446 63.7003 216.446 63.7003C216.446 63.7003 209.445 65.7447 205.889 62.9134C205.889 62.9134 205.656 61.8392 205.9 60.5542C206.141 59.2825 205.546 59.0603 206.238 58.4312C206.927 57.8021 207.136 57.2509 207.153 56.5432C207.169 55.8356 207.223 54.9701 207.932 54.2625C208.642 53.5548 209.278 53.7912 209.968 53.1621C209.968 53.1621 210.99 51.3835 212.338 51.1808C213.687 50.9787 216.53 50.2368 218.221 52.3946C219.913 54.5525 219.134 56.4412 219.622 57.1152C220.11 57.79 219.255 58.7454 219.255 58.7454Z" fill="#252525"/>
<path d="M205.829 60.626C205.829 60.626 202.526 70.0678 208.748 70.7755C214.246 70.9078 216.198 63.9467 216.985 60.3769C217.773 56.807 217.286 53.0694 212.885 53.1916C208.484 53.3144 206.313 58.5117 205.829 60.626Z" fill="#FBA990"/>
<path d="M207.559 57.2409C207.559 57.2409 207.966 57.9975 207.588 58.7609C207.211 59.5243 206.187 59.8177 206.034 60.8248C205.881 61.8326 205.432 63.9267 205.156 64.0186C204.881 64.11 205.076 61.9736 205.122 61.2411C205.169 60.5079 205.694 57.4799 207.163 55.5563C208.63 53.6321 209.537 52.8204 212.15 52.3793C214.763 51.9382 216.743 53.0789 217.47 54.7325C218.197 56.3869 217.034 60.5999 217.034 60.5999C217.034 60.5999 217.208 58.5978 216.562 58.1278C215.915 57.6578 215.381 57.31 215.488 57.0354C215.595 56.7608 213.42 57.7572 211.245 57.0314C209.072 56.3056 208.369 56.6359 208.007 56.8683C207.645 57.1006 207.559 57.2409 207.559 57.2409Z" fill="#252525"/>
<path d="M201.404 75.2671C201.351 75.4854 198.367 82.8634 198.367 82.8634L200.988 84.2296L200.252 85.7598" stroke="#252525" stroke-width="0.650667" stroke-miterlimit="10"/>
<path d="M214.307 75.2671C214.254 75.4854 213.692 82.8634 213.692 82.8634L210.414 84.2296L210.415 85.7598" stroke="#252525" stroke-width="0.650667" stroke-miterlimit="10"/>
<path d="M220.679 85.8496H189.463C188.026 85.8496 187.152 84.6411 187.51 83.1506L195.386 50.3783C195.744 48.8885 197.199 47.6799 198.636 47.6799H229.852C231.289 47.6799 232.163 48.8885 231.804 50.3783L223.929 83.1506C223.571 84.6411 222.116 85.8496 220.679 85.8496Z" stroke="white" stroke-width="1.532" stroke-miterlimit="10"/>
<path d="M112.09 49.6094H160.401H112.09Z" fill="#DFDFDF"/>
<path d="M112.09 49.6094H160.401" stroke="#DFDFDF" stroke-width="4.59467" stroke-miterlimit="10" stroke-linecap="round" stroke-linejoin="round"/>
<path d="M108.375 72.7422H156.686H108.375Z" fill="#DFDFDF"/>
<path d="M108.375 72.7422H156.686" stroke="#DFDFDF" stroke-width="4.59467" stroke-miterlimit="10" stroke-linecap="round" stroke-linejoin="round"/>
<path d="M128.691 64.002H177.002H128.691Z" fill="#DFDFDF"/>
<path d="M128.691 64.002H177.002" stroke="#DFDFDF" stroke-width="4.59467" stroke-miterlimit="10" stroke-linecap="round" stroke-linejoin="round"/>
<path d="M110.852 57.3203H125.345H110.852Z" fill="#DFDFDF"/>
<path d="M110.852 57.3203H125.345" stroke="#DFDFDF" stroke-width="4.59467" stroke-miterlimit="10" stroke-linecap="round" stroke-linejoin="round"/>
<path d="M108.871 64.002H123.364H108.871Z" fill="#DFDFDF"/>
<path d="M108.871 64.002H123.364" stroke="#DFDFDF" stroke-width="4.59467" stroke-miterlimit="10" stroke-linecap="round" stroke-linejoin="round"/>
<path d="M168.082 49.6094H185.3H168.082Z" fill="#DFDFDF"/>
<path d="M168.082 49.6094H185.3" stroke="#DFDFDF" stroke-width="4.59467" stroke-miterlimit="10" stroke-linecap="round" stroke-linejoin="round"/>
<path d="M176.52 83.5938H150.808C150.678 83.5938 150.583 83.4669 150.616 83.3366L151.766 78.7496C151.79 78.659 151.868 78.5959 151.958 78.5959H177.67C177.8 78.5959 177.895 78.7228 177.862 78.853L176.711 83.44C176.688 83.5306 176.609 83.5938 176.52 83.5938Z" stroke="#DFDFDF" stroke-width="1.532" stroke-miterlimit="10"/>
<path d="M144.559 83.5938H118.846C118.717 83.5938 118.622 83.4669 118.655 83.3366L119.805 78.7496C119.829 78.659 119.907 78.5959 119.997 78.5959H145.709C145.839 78.5959 145.934 78.7228 145.901 78.853L144.75 83.44C144.727 83.5306 144.649 83.5938 144.559 83.5938Z" stroke="#DFDFDF" stroke-width="1.532" stroke-miterlimit="10"/>
<path d="M174.152 31.4883H204.253" stroke="#C6C6C6" stroke-width="1.532" stroke-miterlimit="10"/>
<path d="M92.8627 164.556L92.8627 164.556C92.5685 165.729 93.4252 166.83 94.536 166.83H233.374C234.148 166.83 234.844 166.286 235.047 165.478C235.047 165.478 235.047 165.478 235.047 165.478L248.008 113.814L248.008 113.814C248.302 112.641 247.445 111.539 246.335 111.539H107.496C106.722 111.539 106.026 112.084 105.824 112.892L105.824 112.892L92.8627 164.556Z" fill="white" stroke="#DFDFDF"/>
<path d="M113.578 122.092H161.889H113.578Z" fill="#DFDFDF"/>
<path d="M113.578 122.092H161.889" stroke="#DFDFDF" stroke-width="4.59467" stroke-miterlimit="10" stroke-linecap="round" stroke-linejoin="round"/>
<path d="M109.863 145.227H158.174H109.863Z" fill="#DFDFDF"/>
<path d="M109.863 145.227H158.174" stroke="#DFDFDF" stroke-width="4.59467" stroke-miterlimit="10" stroke-linecap="round" stroke-linejoin="round"/>
<path d="M130.176 136.486H178.487H130.176Z" fill="#DFDFDF"/>
<path d="M130.176 136.486H178.487" stroke="#DFDFDF" stroke-width="4.59467" stroke-miterlimit="10" stroke-linecap="round" stroke-linejoin="round"/>
<path d="M112.34 129.805H126.833H112.34Z" fill="#DFDFDF"/>
<path d="M112.34 129.805H126.833" stroke="#DFDFDF" stroke-width="4.59467" stroke-miterlimit="10" stroke-linecap="round" stroke-linejoin="round"/>
<path d="M110.355 136.486H124.849H110.355Z" fill="#DFDFDF"/>
<path d="M110.355 136.486H124.849" stroke="#DFDFDF" stroke-width="4.59467" stroke-miterlimit="10" stroke-linecap="round" stroke-linejoin="round"/>
<path d="M169.57 122.092H186.789H169.57Z" fill="#DFDFDF"/>
<path d="M169.57 122.092H186.789" stroke="#DFDFDF" stroke-width="4.59467" stroke-miterlimit="10" stroke-linecap="round" stroke-linejoin="round"/>
<path d="M178.007 156.078H152.296C152.166 156.078 152.071 155.952 152.104 155.821L153.254 151.234C153.278 151.143 153.356 151.081 153.446 151.081H179.158C179.288 151.081 179.383 151.207 179.35 151.337L178.199 155.924C178.176 156.015 178.098 156.078 178.007 156.078Z" stroke="#DFDFDF" stroke-width="1.532" stroke-miterlimit="10"/>
<path d="M146.047 156.078H120.335C120.205 156.078 120.111 155.952 120.143 155.821L121.294 151.234C121.317 151.143 121.395 151.081 121.485 151.081H147.197C147.328 151.081 147.422 151.207 147.389 151.337L146.238 155.924C146.216 156.015 146.137 156.078 146.047 156.078Z" stroke="#DFDFDF" stroke-width="1.532" stroke-miterlimit="10"/>
<path d="M223.2 149.427C221.882 147.605 216.535 146.281 215.057 144.46C214.303 143.529 214.303 141.801 214.483 140.331C215.009 139.983 215.446 139.634 215.706 139.31C216.149 138.637 216.651 137.696 217.152 136.664C217.304 136.819 217.505 136.938 217.767 136.93C218.468 136.908 221.141 133.134 220.453 132.26C220.058 131.76 219.422 132.194 218.949 132.657C219.656 130.977 220.154 129.689 220.154 129.689H220.127C220.194 129.476 220.256 129.263 220.308 129.047C221.368 124.635 218.78 121.058 214.528 121.058C210.275 121.058 205.968 124.635 204.908 129.047C204.856 129.263 204.816 129.476 204.781 129.689H204.754C204.754 129.689 204.633 130.977 204.532 132.657C204.282 132.194 203.853 131.76 203.219 132.26C202.11 133.134 202.969 136.908 203.66 136.93C203.917 136.938 204.177 136.819 204.403 136.664C204.409 137.696 204.457 138.637 204.578 139.31C204.705 139.706 205.078 140.14 205.562 140.563C205.033 141.979 204.227 143.578 203.088 144.46C200.735 146.281 194.752 147.605 192.559 149.427C190.586 151.065 188.826 155.849 188.492 156.795H223.725C223.845 155.849 224.385 151.065 223.2 149.427Z" fill="white"/>
<mask id="mask1_341_5333" style="mask-type:luminance" maskUnits="userSpaceOnUse" x="77" y="179" width="158" height="58">
<path d="M77.9375 179.924H234.199V236.215H77.9375V179.924Z" fill="white"/>
</mask>
<g mask="url(#mask1_341_5333)">
<path d="M78.4955 233.441L78.4955 233.441C78.2013 234.614 79.0581 235.715 80.1681 235.715H219.007C219.781 235.715 220.476 235.171 220.68 234.362L233.64 182.698L233.64 182.698C233.935 181.526 233.078 180.424 231.967 180.424H93.129C92.3544 180.424 91.6591 180.969 91.4565 181.776C91.4564 181.776 91.4564 181.776 91.4564 181.776L78.4955 233.441Z" fill="white" stroke="#DFDFDF"/>
<path d="M99.2109 190.977H147.522H99.2109Z" fill="#DFDFDF"/>
<path d="M99.2109 190.977H147.522" stroke="#DFDFDF" stroke-width="4.59467" stroke-miterlimit="10" stroke-linecap="round" stroke-linejoin="round"/>
<path d="M95.4922 214.109H143.803H95.4922Z" fill="#DFDFDF"/>
<path d="M95.4922 214.109H143.803" stroke="#DFDFDF" stroke-width="4.59467" stroke-miterlimit="10" stroke-linecap="round" stroke-linejoin="round"/>
<path d="M115.809 205.371H164.12H115.809Z" fill="#DFDFDF"/>
<path d="M115.809 205.371H164.12" stroke="#DFDFDF" stroke-width="4.59467" stroke-miterlimit="10" stroke-linecap="round" stroke-linejoin="round"/>
<path d="M97.9727 198.688H112.466H97.9727Z" fill="#DFDFDF"/>
<path d="M97.9727 198.688H112.466" stroke="#DFDFDF" stroke-width="4.59467" stroke-miterlimit="10" stroke-linecap="round" stroke-linejoin="round"/>
<path d="M95.9883 205.371H110.482H95.9883Z" fill="#DFDFDF"/>
<path d="M95.9883 205.371H110.482" stroke="#DFDFDF" stroke-width="4.59467" stroke-miterlimit="10" stroke-linecap="round" stroke-linejoin="round"/>
<path d="M155.203 190.977H172.422H155.203Z" fill="#DFDFDF"/>
<path d="M155.203 190.977H172.422" stroke="#DFDFDF" stroke-width="4.59467" stroke-miterlimit="10" stroke-linecap="round" stroke-linejoin="round"/>
<path d="M163.64 224.963H137.929C137.799 224.963 137.704 224.836 137.737 224.706L138.888 220.119C138.91 220.028 138.989 219.965 139.079 219.965H164.791C164.921 219.965 165.015 220.092 164.983 220.221L163.832 224.809C163.809 224.9 163.731 224.963 163.64 224.963Z" stroke="#DFDFDF" stroke-width="1.532" stroke-miterlimit="10"/>
<path d="M131.68 224.963H105.968C105.838 224.963 105.744 224.836 105.776 224.706L106.927 220.119C106.95 220.028 107.028 219.965 107.119 219.965H132.83C132.96 219.965 133.055 220.092 133.022 220.221L131.871 224.809C131.849 224.9 131.77 224.963 131.68 224.963Z" stroke="#DFDFDF" stroke-width="1.532" stroke-miterlimit="10"/>
<path d="M208.829 218.312C207.511 216.49 202.164 215.166 200.687 213.345C199.932 212.415 199.932 210.686 200.112 209.216C200.638 208.868 201.076 208.519 201.335 208.195C201.779 207.522 202.28 206.581 202.781 205.55C202.933 205.704 203.135 205.823 203.396 205.816C204.098 205.794 206.771 202.02 206.082 201.145C205.687 200.645 205.051 201.079 204.579 201.542C205.285 199.862 205.783 198.574 205.783 198.574H205.757C205.823 198.361 205.885 198.148 205.937 197.932C206.998 193.52 204.41 189.943 200.157 189.943C195.904 189.943 191.598 193.52 190.537 197.932C190.485 198.148 190.445 198.361 190.41 198.574H190.383C190.383 198.574 190.262 199.862 190.161 201.542C189.911 201.079 189.483 200.645 188.849 201.145C187.739 202.02 188.598 205.794 189.289 205.816C189.546 205.823 189.806 205.704 190.032 205.55C190.038 206.581 190.087 207.522 190.207 208.195C190.335 208.591 190.707 209.025 191.191 209.448C190.663 210.864 189.857 212.463 188.717 213.345C186.365 215.166 180.382 216.49 178.188 218.312C176.215 219.95 174.455 224.734 174.121 225.68H209.354C209.474 224.734 210.014 219.95 208.829 218.312Z" fill="#DFDFDF"/>
</g>
<path d="M191.246 236.473H216.021" stroke="#007957" stroke-width="1.532" stroke-miterlimit="10"/>
<path d="M107.012 167.586H165.976" stroke="#007957" stroke-width="1.532" stroke-miterlimit="10"/>
<path d="M179.477 167.586H193.846" stroke="#007957" stroke-width="1.532" stroke-miterlimit="10"/>
<path d="M241.539 111.296H246.519C247.985 111.296 249.031 112.766 248.6 114.218L246.494 121.32" stroke="#007957" stroke-width="1.532" stroke-miterlimit="10"/>
<path d="M83.7951 20.4551H81.2544C80.6163 20.4551 80.2281 19.9186 80.3873 19.2573L81.0208 16.6214C81.1794 15.9594 81.8258 15.4229 82.4633 15.4229H85.0046C85.642 15.4229 86.0303 15.9594 85.8711 16.6214L85.2376 19.2573C85.0784 19.9186 84.4325 20.4551 83.7951 20.4551Z" fill="#007957"/>
<path d="M81.9396 28.1836H79.399C78.7609 28.1836 78.3726 27.6471 78.5318 26.9851L79.1653 24.3492C79.3239 23.6872 79.9704 23.1508 80.6078 23.1508H83.1491C83.7866 23.1508 84.1748 23.6872 84.0157 24.3492L83.3821 26.9851C83.2236 27.6471 82.5771 28.1836 81.9396 28.1836Z" fill="#ECECEC"/>
<path d="M90.0217 28.1836H87.481C86.8429 28.1836 86.4546 27.6471 86.6138 26.9851L87.2474 24.3492C87.4066 23.6872 88.0524 23.1508 88.6905 23.1508H91.2312C91.8686 23.1508 92.2569 23.6872 92.0977 24.3492L91.4641 26.9851C91.3056 27.6471 90.6597 28.1836 90.0217 28.1836Z" fill="#007957"/>
<path d="M98.1076 28.1836H95.5669C94.9288 28.1836 94.5406 27.6471 94.6998 26.9851L95.3333 24.3492C95.4919 23.6872 96.1383 23.1508 96.7758 23.1508H99.3171C99.9545 23.1508 100.343 23.6872 100.184 24.3492L99.5501 26.9851C99.3915 27.6471 98.745 28.1836 98.1076 28.1836Z" fill="#ECECEC"/>
<path d="M80.0371 36.0898H77.4964C76.8583 36.0898 76.4707 35.5534 76.6292 34.8914L77.2628 32.2555C77.422 31.5942 78.0678 31.057 78.7059 31.057H81.2466C81.884 31.057 82.2729 31.5942 82.1131 32.2555L81.4802 34.8914C81.321 35.5534 80.6752 36.0898 80.0371 36.0898Z" fill="#ECECEC"/>
<path d="M78.006 44.5371H75.4654C74.8273 44.5371 74.439 44.0007 74.5982 43.3387L75.2317 40.7034C75.3909 40.0414 76.0368 39.505 76.6742 39.505H79.2155C79.853 39.505 80.2413 40.0414 80.0821 40.7034L79.4485 43.3387C79.29 44.0007 78.6435 44.5371 78.006 44.5371Z" fill="#ECECEC"/>
<path d="M88.1232 36.0898H85.5825C84.9445 36.0898 84.5562 35.5534 84.7154 34.8914L85.3489 32.2555C85.5075 31.5942 86.154 31.057 86.7914 31.057H89.3327C89.9702 31.057 90.3584 31.5942 90.1992 32.2555L89.5657 34.8914C89.4071 35.5534 88.7607 36.0898 88.1232 36.0898Z" fill="#ECECEC"/>
<path d="M84.5803 50.8281H82.0396C81.4015 50.8281 81.0132 50.2917 81.1724 49.6297L81.806 46.9938C81.9652 46.3318 82.611 45.7953 83.2491 45.7953H85.7898C86.4272 45.7953 86.8155 46.3318 86.6563 46.9938L86.0227 49.6297C85.8642 50.2917 85.2183 50.8281 84.5803 50.8281Z" fill="#007957"/>
<path d="M129.745 19.9093C128.241 25.1052 123.107 29.3001 118.055 29.4659C112.623 29.6452 109.234 25.2717 110.354 19.7716L110.511 19.1184H110.505C111.95 13.6693 117.299 9.29378 122.585 9.29378C122.858 9.29378 123.125 9.30855 123.387 9.33204C128.436 9.7745 131.343 14.385 129.745 19.9093ZM124.549 5.10962L124.549 5.10828C124.536 5.1076 124.523 5.10694 124.511 5.10626C124.472 5.10291 124.434 5.09821 124.395 5.09619L124.395 5.09888C124.133 5.08276 123.869 5.07001 123.599 5.07001C116.066 5.07001 108.441 11.3362 106.434 19.1184L106.345 19.4903H106.341C106.332 19.5299 106.325 19.5682 106.317 19.6071L106.259 19.8448H106.267C104.614 27.7331 109.492 34.0113 117.302 33.683C124.424 33.3842 131.606 27.4873 133.743 20.1778C136.062 12.2506 131.842 5.63868 124.549 5.10962Z" fill="#ECECEC"/>
<path d="M123.804 7.54481C123.57 8.51632 124.007 9.35959 124.86 9.59391C128.979 10.7245 131.176 14.949 129.741 19.9093C128.238 25.1052 123.105 29.3001 118.052 29.466C113.098 29.6298 109.84 26.0069 110.155 21.195C110.22 20.2027 109.541 19.4903 108.568 19.4903C107.307 19.4903 106.051 20.6706 105.967 21.9577C105.519 28.8228 110.2 33.9811 117.298 33.683C124.42 33.3842 131.602 27.4874 133.74 20.1778C135.803 13.1221 132.689 7.10571 126.836 5.49503C125.627 5.16201 124.135 6.16642 123.804 7.54481Z" fill="#007957"/>
<path d="M152.731 28.0007L152.693 28.0033C152.533 28.0141 152.372 28.0215 152.212 28.0242C152.157 28.0248 152.102 28.0289 152.047 28.0289C146.676 28.0289 143.407 23.511 144.747 17.9398C146.085 12.3671 151.525 7.85065 156.896 7.85065C156.951 7.85065 157.004 7.854 157.059 7.85467C157.219 7.85736 157.377 7.86475 157.533 7.87549C157.546 7.87616 157.56 7.8775 157.573 7.87885C162.536 8.24341 165.477 12.6062 164.195 17.9398C164.186 17.9814 164.173 18.0223 164.162 18.064C162.832 23.3425 157.832 27.6421 152.731 28.0007ZM158.86 3.66582C158.849 3.66448 158.837 3.6638 158.824 3.66246C158.776 3.65977 158.728 3.65709 158.68 3.6544C158.427 3.63829 158.172 3.62687 157.91 3.62687C150.292 3.62687 142.575 10.0347 140.676 17.9398C138.776 25.8441 143.413 32.252 151.031 32.252C151.292 32.252 151.552 32.2405 151.812 32.2244C151.861 32.2217 151.91 32.2197 151.959 32.2164C151.972 32.215 151.986 32.215 151.999 32.2137L152 32.2123C159.254 31.7041 166.366 25.5769 168.234 18.064C168.244 18.0223 168.257 17.9814 168.267 17.9398C170.086 10.3697 165.908 4.17742 158.86 3.66582Z" fill="#ECECEC"/>
<path d="M163.573 19.8264C161.862 23.8723 158.03 27.0628 153.947 27.8429C152.928 28.0376 152.005 28.8957 151.759 29.9236C151.439 31.2536 152.37 32.2453 153.689 31.9969C159.508 30.9005 164.976 26.3491 167.399 20.5784C167.947 19.2732 167.282 18.064 166.003 18.064C165.01 18.064 164.001 18.8133 163.573 19.8264Z" fill="#007957"/>
<path d="M122.261 54.0352H96.5497C96.4197 54.0352 96.3252 53.9083 96.3582 53.778L97.5088 49.191C97.5315 49.1004 97.6098 49.0373 97.7004 49.0373H123.412C123.542 49.0373 123.636 49.1648 123.603 49.2944L122.453 53.8814C122.43 53.972 122.351 54.0352 122.261 54.0352Z" fill="#007957"/>
<path d="M246.266 67.471C244.694 74.0117 238.308 79.3145 232.004 79.3145C225.699 79.3145 221.862 74.0117 223.435 67.471C225.006 60.9296 231.392 55.6268 237.696 55.6268C244.001 55.6268 247.838 60.9296 246.266 67.471Z" fill="#08BA98"/>
<path d="M251.724 80.194C251.294 81.9847 249.547 83.4355 247.821 83.4355C246.095 83.4355 245.045 81.9847 245.475 80.194C245.906 78.4034 247.653 76.9525 249.378 76.9525C251.104 76.9525 252.154 78.4034 251.724 80.194Z" fill="#08BA98"/>
<path d="M231.907 73.4902C231.547 73.4902 231.222 73.3479 231.017 73.0632L228.066 68.9865C227.655 68.4178 227.876 67.4953 228.561 66.9273C229.246 66.358 230.135 66.358 230.546 66.9273L232.751 69.9748L240.629 63.432C241.315 62.8633 242.203 62.8633 242.615 63.432C243.026 64.0007 242.805 64.9225 242.12 65.4912L233.001 73.0632C232.659 73.3479 232.266 73.4902 231.907 73.4902Z" fill="white"/>
<path d="M355.998 269.759C355.998 272.101 334.202 274 307.315 274C280.429 274 258.633 272.101 258.633 269.759C258.633 267.417 280.429 265.518 307.315 265.518C334.202 265.518 355.998 267.417 355.998 269.759Z" fill="#F4F4F4"/>
<path d="M309.176 43.9533C309.176 43.9533 307.938 46.5241 307.194 52.1786C306.451 57.8332 308.433 90.4766 308.433 90.4766L329.739 88.1636L320.077 45.4955L309.176 43.9533Z" fill="#252525"/>
<path d="M296.542 181.853L289.109 220.023L303.602 220.408C303.602 220.408 307.319 186.48 305.831 186.48C304.346 186.48 296.542 181.853 296.542 181.853Z" fill="#4D4D4D"/>
<path d="M330.235 264.233C330.235 264.233 324.784 270.145 322.555 271.43C323.05 272.458 330.978 272.458 333.951 270.916C336.924 269.374 339.154 265.776 339.154 265.776L338.906 269.631H340.392C340.392 269.631 341.879 264.233 341.879 262.948C341.879 261.663 340.392 259.863 340.392 259.863L330.235 264.233Z" fill="black"/>
<path d="M328.004 188.149L333.454 257.549L339.896 257.035C339.896 257.035 347.328 206.142 344.355 188.663C341.382 171.185 328.004 188.149 328.004 188.149Z" fill="#EEA886"/>
<path d="M333.454 257.55C333.454 257.55 331.472 262.947 328.747 265.518C326.021 268.088 332.958 268.088 335.931 265.518C338.905 262.947 339.152 261.405 340.143 260.891C341.134 260.377 339.895 257.035 339.895 257.035L333.454 257.55Z" fill="#EEA886"/>
<path d="M285.498 263.067C285.498 263.067 279.165 267.941 276.758 268.817C277.079 269.918 284.894 271.304 288.075 270.303C291.256 269.304 294.038 266.147 294.038 266.147L293.168 269.904L294.633 270.163C294.633 270.163 296.975 265.103 297.184 263.836C297.393 262.569 296.22 260.536 296.22 260.536L285.498 263.067Z" fill="black"/>
<path d="M295.66 187.683L289.758 257.043L296.19 257.662C296.19 257.662 311.785 208.797 311.694 191.049C311.604 173.301 295.66 187.683 295.66 187.683Z" fill="#EEA886"/>
<path d="M289.758 257.043C289.758 257.043 286.927 262.016 283.824 264.074C280.719 266.13 287.558 267.344 290.905 265.33C294.254 263.316 294.748 261.84 295.809 261.505C296.869 261.172 296.19 257.662 296.19 257.662L289.758 257.043Z" fill="#EEA886"/>
<path d="M272.835 77.4166L260.028 74.7995C260.028 74.7995 259.834 76.6116 260.998 77.0138L262.162 77.4166C262.162 77.4166 265.073 84.6643 266.431 85.47C267.79 86.275 275.944 89.7656 275.944 89.7656L278.075 81.2422L272.835 77.4166Z" fill="#EEA886"/>
<path d="M282.046 88.163C282.046 88.163 281.922 87.2633 280.208 83.6579C278.309 79.6611 277.88 78.0209 277.88 78.0209C277.88 78.0209 271.864 75.6045 270.894 74.3966C269.924 73.1888 269.341 72.9874 269.341 72.9874C269.341 72.9874 268.176 75.2023 269.924 76.813C271.67 78.4237 273.222 79.6315 273.222 79.6315C273.222 79.6315 273.028 84.2622 273.61 86.4764C274.192 88.6914 275.942 89.7656 275.942 89.7656L282.046 88.163Z" fill="#EEA886"/>
<path d="M301.989 95.6169C301.989 95.6169 293.318 110.011 293.07 108.726C292.822 107.44 281.921 87.6488 281.921 87.6488L275.941 89.7657C275.941 89.7657 284.894 118.751 290.593 123.377C290.593 123.377 291.088 124.148 292.822 123.891C294.556 123.634 307.935 109.24 307.935 109.24L301.989 95.6169Z" fill="#EEA886"/>
<path d="M310.105 78.5239C310.105 78.5239 305.459 80.4515 303.23 83.793C301 87.1346 294.559 102.299 294.559 102.299C294.559 102.299 298.027 108.725 305.955 111.039L316.856 90.219L310.105 78.5239Z" fill="#08BA98"/>
<path d="M304.343 127.876C304.343 127.876 304.714 134.044 304.714 136.357C304.714 136.357 295.795 181.083 295.424 191.492C295.052 201.902 302.485 223.107 302.485 223.107C302.485 223.107 334.444 222.337 344.85 220.023L345.964 197.661C345.964 197.661 347.451 158.72 345.964 147.539C344.478 136.357 338.161 130.575 338.161 130.575L336.302 125.177L304.343 127.876Z" fill="#292929"/>
<path d="M331.656 75.8259C331.656 75.8259 340.018 79.8745 342.619 84.1157C345.221 88.3569 353.025 111.297 353.025 111.297C353.025 111.297 344.291 114.574 336.673 114.574C336.673 114.574 337.417 121.9 338.16 124.213C338.903 126.527 336.302 127.49 336.302 127.49C336.302 127.49 318.092 132.695 304.528 129.611C304.528 129.611 302.855 129.225 302.855 128.454C302.855 127.683 303.041 125.755 303.041 125.755C303.041 125.755 301.74 112.646 301.369 110.333C300.998 108.02 296.91 101.722 297.282 99.2161C297.653 96.7098 303.97 85.0792 303.97 85.0792C303.97 85.0792 308.244 79.8745 310.102 78.525C311.96 77.1755 316.606 77.1755 316.606 77.1755L331.656 75.8259Z" fill="#08BA98"/>
<path d="M315.813 68.8869C315.82 69.189 316.88 75.7325 313.387 80.3631C309.894 85.0944 323.673 84.893 326.875 80.061C329.785 75.7324 329.494 75.0275 329.494 75.0275C329.494 75.0275 327.165 67.1755 327.845 62.042C327.651 57.4113 315.619 60.2299 315.813 68.8869Z" fill="#EEA886"/>
<path d="M315.723 41.5774C315.723 41.5774 311.705 42.6436 309.43 49.0434C307.154 55.4425 308.671 69.0403 310.188 70.6402C311.705 72.2402 316.313 71.6285 322.704 69.4405C329.456 67.1288 331.737 59.8455 332.944 55.0423C335.255 45.8435 327.545 36.3781 315.723 41.5774Z" fill="#EEA886"/>
<path d="M307.938 48.8363C307.938 48.8363 311.653 58.0895 325.775 58.6038L329.058 74.9577C329.058 74.9577 335.07 77.9541 337.42 79.2949C337.42 79.2949 340.145 49.607 333.703 42.4103C327.262 35.2136 315.865 37.0129 311.406 41.1252C306.947 45.2382 307.938 48.8363 307.938 48.8363Z" fill="#252525"/>
<path d="M331.659 75.8245L328.5 72.7401C328.5 72.7401 325.713 81.0291 315.865 81.6079C315.865 81.6079 314.564 79.4876 315.307 76.4025L313.635 77.7527C313.635 77.7527 310.105 82.9574 310.477 84.4996C310.848 86.0418 315.555 83.3428 315.555 83.3428C315.555 83.3428 321.129 86.8126 323.359 87.0053C325.589 87.198 331.287 76.4025 331.659 75.8245Z" fill="white"/>
<path d="M325.992 58.366C325.992 58.366 327.482 55.8173 328.972 56.7559C330.462 57.6952 328.024 63.4639 325.992 63.5982C323.96 63.7325 325.044 59.8417 325.992 58.366Z" fill="#EEA886"/>
<path d="M329.492 92.5322L335.19 113.609" stroke="#007957" stroke-width="0.5" stroke-miterlimit="10"/>
<path d="M325.961 93.7531C325.961 93.7531 327.262 97.8016 331.535 100.5" stroke="#007957" stroke-width="0.5" stroke-miterlimit="10"/>
<path d="M332.465 88.7422C332.465 88.7422 333.208 83.3441 339.154 82.9588" stroke="#007957" stroke-width="0.5" stroke-miterlimit="10"/>
<path d="M303.289 86.4271C303.289 86.4271 297.22 96.7727 297.282 99.2146C297.343 101.656 301.245 108.597 301.245 108.597L306.076 121.705" stroke="#007957" stroke-width="0.5" stroke-miterlimit="10"/>
<path d="M324.289 129.418L330.793 121.707" stroke="#007957" stroke-width="0.5" stroke-miterlimit="10"/>
<path d="M269.782 79.6812L262.16 77.4172C262.16 77.4172 262.844 79.1669 263.34 79.6812C263.836 80.1955 269.162 82.123 269.162 82.123" stroke="#EEA886" stroke-width="1.368" stroke-miterlimit="10"/>
<path d="M263.34 79.6813C263.34 79.6813 264.083 81.995 264.455 82.3803C264.826 82.7657 269.534 84.1797 269.534 84.1797" stroke="#EEA886" stroke-width="1.368" stroke-miterlimit="10"/>
<path d="M270.898 77.7523L273.224 79.6309L274.986 79.1656" stroke="#EEA886" stroke-width="1.368" stroke-miterlimit="10"/>
<path d="M316.609 71.0703C316.609 71.0703 321.316 70.0424 323.794 65.4158" stroke="#A77860" stroke-width="0.5" stroke-miterlimit="10"/>
<path d="M312.52 59.7602L311.652 64.6439L313.262 65.0293" stroke="#A77860" stroke-width="0.5" stroke-miterlimit="10"/>
<path d="M312.273 67.2154C312.273 67.2154 314.627 67.7297 317.105 66.3158" stroke="#A77860" stroke-width="0.5" stroke-miterlimit="10"/>
<path d="M316.608 59.0528C316.608 59.3724 316.358 59.6309 316.05 59.6309C315.742 59.6309 315.492 59.3724 315.492 59.0528C315.492 58.7332 315.742 58.4747 316.05 58.4747C316.358 58.4747 316.608 58.7332 316.608 59.0528Z" fill="#252525"/>
<path d="M310.599 59.0528C310.599 59.3724 310.35 59.6309 310.042 59.6309C309.734 59.6309 309.484 59.3724 309.484 59.0528C309.484 58.7332 309.734 58.4747 310.042 58.4747C310.35 58.4747 310.599 58.7332 310.599 59.0528Z" fill="#252525"/>
<path d="M306.637 135.009C306.637 135.009 316.856 138.286 326.518 134.044" stroke="#007957" stroke-width="0.5" stroke-miterlimit="10"/>
<path d="M309.672 138.799C309.672 138.799 314.874 140.599 323.298 137.257" stroke="#007957" stroke-width="0.5" stroke-miterlimit="10"/>
<path d="M322.491 163.085L302.86 174.846L287.809 147.799L307.441 136.04L322.491 163.085Z" fill="white"/>
<path d="M326.022 146.51C326.022 146.51 322.926 150.045 321.997 150.816C321.068 151.587 314.75 152.165 314.75 152.165C314.75 152.165 311.963 156.985 311.22 156.791C310.477 156.599 310.663 156.02 310.663 156.02C310.663 156.02 310.477 147.345 311.034 146.382C311.591 145.418 320.696 142.719 320.696 142.719L321.811 141.37L326.022 146.51Z" fill="#EEA886"/>
<path d="M350.303 112.196C350.551 112.967 352.533 119.008 353.524 122.092C354.515 125.176 332.218 141.37 328.749 144.197L326.023 146.51L321.812 141.37L341.385 121.064L338.535 114.381L350.303 112.196Z" fill="#EEA886"/>
<path d="M311.219 156.791L312.395 151.394" stroke="#EEA987" stroke-width="1.368" stroke-miterlimit="10"/>
<path d="M310.539 151.908L311.901 148.824" stroke="#EEA987" stroke-width="1.368" stroke-miterlimit="10"/>
<path d="M311.035 146.381L310.539 156.791H312.15L314.751 152.164" stroke="#EEA987" stroke-width="1.368" stroke-miterlimit="10"/>
<path d="M107.26 269.759C107.26 272.101 85.4637 274 58.577 274C31.6909 274 9.89453 272.101 9.89453 269.759C9.89453 267.417 31.6909 265.518 58.577 265.518C85.4637 265.518 107.26 267.417 107.26 269.759Z" fill="#F4F4F4"/>
<path d="M38.9792 256.115C38.9792 256.115 40.012 253.819 43.8483 254.431C47.6845 255.043 48.1272 255.809 48.5698 257.799C49.0118 259.789 50.3404 261.932 51.225 262.391C52.111 262.85 55.3564 265.146 58.0122 265.606C60.6681 266.064 60.9632 267.748 60.373 268.514C59.7828 269.279 49.7502 269.892 47.537 269.585C47.537 269.585 40.012 269.432 38.2415 268.821C36.4709 268.208 38.8317 256.88 38.9792 256.115Z" fill="black"/>
<path d="M34.718 202.307C34.718 202.307 33.5959 195.968 40.0485 193.84C46.5011 191.712 47.7229 194.806 49.676 200.587C51.6297 206.37 47.9973 255.762 47.9973 255.762C47.9973 255.762 40.5675 257.079 38.661 255.912C38.661 255.912 33.0011 223.758 33.3946 214.935C33.7881 206.11 34.718 202.307 34.718 202.307Z" fill="#252525"/>
<path d="M37.8711 253.973C37.8711 253.973 46.2813 253.206 48.9372 252.748L48.7896 256.728C48.7896 256.728 42.15 257.953 38.0186 257.34L37.8711 253.973Z" fill="#004330"/>
<path d="M35.8053 78.5488C35.8053 78.5488 30.4936 78.855 27.2475 91.4068C24.0021 103.959 21.9364 119.266 23.1168 123.247C24.2972 127.226 36.9857 137.941 41.7072 137.941C46.4287 137.941 46.7238 134.268 45.8379 131.207C44.9533 128.145 35.8053 119.879 35.8053 119.879C35.8053 119.879 43.1827 95.3868 42.8876 88.9575C42.5925 82.5289 39.0513 78.5488 35.8053 78.5488Z" fill="#004330"/>
<path d="M102.314 74.8052L101.434 74.8985L103.408 70.8426C103.408 70.8426 108.427 70.5143 109.232 72.7131L106.93 78.0098L102.314 74.8052Z" fill="#EEA886"/>
<path d="M105.138 63.2797C105.138 63.2797 104.943 59.1352 106.364 58.5464C107.785 57.9575 109.377 59.105 109.377 59.105C109.377 59.105 111.677 58.8612 112.411 59.8804C113.145 60.8983 113.085 62.4398 113.085 62.4398C113.085 62.4398 114.382 62.7406 114.72 64.0203C115.057 65.3 114.454 67.7754 114.454 67.7754C114.454 67.7754 112.952 69.6875 111.215 69.2135C109.478 68.7395 105.138 63.2797 105.138 63.2797Z" fill="#FFA67A"/>
<path d="M102.505 66.627C102.505 66.627 101.973 61.2027 102.536 60.4857C103.099 59.7679 108.86 51.501 108.86 51.501C108.86 51.501 110.055 52.9096 109.368 54.5163C108.68 56.1236 105.967 60.9993 105.967 60.9993L105.954 65.166C105.954 65.166 104.178 66.4497 102.505 66.627Z" fill="#EEA886"/>
<path d="M102.933 70.9672C102.933 70.9672 101.557 62.2558 102.496 61.0607C103.435 59.865 108.039 60.5619 108.918 60.9076C109.797 61.2534 112.229 64.5037 112.566 65.7833C112.904 67.063 110.611 71.6896 109.232 72.7122C107.854 73.7354 103.731 72.6363 102.933 70.9672Z" fill="#EEA886"/>
<path d="M99.6914 76.7131L101.462 73.3453C101.462 73.3453 105.593 72.5799 107.659 75.9477C108.249 77.1723 107.954 77.1723 107.954 77.1723L106.626 79.9277L99.6914 76.7131Z" fill="white"/>
<path d="M57.6593 39.8579C57.6593 39.8579 62.0249 41.0167 64.4976 47.9704C66.9703 54.9248 65.322 69.7022 63.6731 71.4412C62.0249 73.1794 57.0166 72.5154 50.0722 70.1373C42.7349 67.6243 40.2557 59.7105 38.9446 54.4904C36.4337 44.4939 44.8122 34.2074 57.6593 39.8579Z" fill="#EEA886"/>
<path d="M42.0039 78.2424L45.5451 65.0783C45.5451 65.0783 52.6274 62.9351 57.0532 67.8337L58.5286 69.9761V78.5485C58.5286 78.5485 51.1519 80.0793 42.0039 78.2424Z" fill="#EEA886"/>
<path d="M32.1179 149.116C32.1179 149.116 29.462 165.188 32.1179 183.558C34.7737 201.927 40.0855 203.764 44.9539 203.764C49.823 203.764 51.1509 189.068 52.0362 182.639C52.9215 176.209 56.4627 154.167 49.823 149.116C43.184 144.065 35.659 143.605 32.1179 149.116Z" fill="#252525"/>
<path d="M50.7062 170.7C50.7062 170.7 45.3945 156.005 54.69 149.576C63.9855 143.147 71.0672 144.065 73.2804 154.628C75.4936 165.189 75.9363 201.468 72.8378 208.815C69.7392 216.163 58.6738 204.682 50.7062 170.7Z" fill="#252525"/>
<path d="M66.1783 40.4864C66.1783 40.4864 68.2731 43.3117 67.0163 46.5713C65.7596 49.831 61.1513 51.1348 61.1513 51.1348C61.1513 51.1348 62.6177 53.3081 61.1513 56.3502L60.1042 58.0892C60.1042 58.0892 61.57 61.5657 61.1513 62.4351C60.7319 63.3046 59.2662 63.0877 59.2662 63.0877C59.2662 63.0877 57.5901 58.3067 56.9617 58.7411C56.334 59.1755 54.6579 61.3488 54.6579 63.3046C54.6579 65.2604 55.2862 66.7818 54.8669 68.0856C54.4488 69.3895 47.9548 69.3895 45.2323 68.9551C42.5091 68.52 38.3195 59.8274 37.2724 55.9158C37.2724 55.9158 35.806 50.4829 37.9008 45.9194C37.9008 45.9194 37.4821 42.0078 41.0427 38.0956C44.6039 34.184 55.9146 35.4885 57.7997 37.0093C57.7997 37.0093 57.5901 34.8359 59.6849 35.271C61.7796 35.7054 64.9215 37.6612 66.1783 40.4864Z" fill="#242424"/>
<path d="M59.8932 60.2622C59.8932 60.2622 59.2648 57.437 56.9603 58.7408C54.6565 60.0447 57.3797 66.7815 59.2648 66.3471C61.1499 65.9127 60.3119 61.3492 59.8932 60.2622Z" fill="#EEA886"/>
<path d="M40.1289 78.1733C40.1289 78.1733 41.1171 74.5692 42.0024 74.2631C42.8877 73.9569 53.8062 72.7323 59.7075 76.4062C62.3634 78.5493 62.0683 80.0801 62.0683 80.0801C62.0683 80.0801 44.4518 76.5734 40.1289 78.1733Z" fill="#007957"/>
<path d="M37.8699 77.3235C37.8699 77.3235 56.1652 76.0989 69.1487 81.9159C75.0507 84.9775 88.5513 98.8304 88.5513 98.8304L99.1741 75.8693C99.1741 75.8693 105.15 73.6496 107.511 79.4666C107.511 79.4666 100.797 106.561 95.1903 115.133C91.6498 118.195 74.7562 108.245 74.7562 108.245C74.7562 108.245 77.4114 143.758 76.5261 159.677C75.3458 162.74 52.3289 164.27 48.1976 163.963C44.0669 163.657 29.6072 158.759 29.3121 157.841C29.017 156.923 31.3778 120.184 30.7882 115.899C30.198 111.613 28.4274 90.4876 29.017 87.4267C29.6072 84.3652 32.263 78.5482 37.8699 77.3235Z" fill="#004330"/>
<path d="M57.3464 257.033C57.3464 257.033 58.3792 254.737 62.2155 255.349C66.0517 255.961 66.4944 256.727 66.9364 258.717C67.379 260.707 68.7076 262.85 69.5922 263.309C70.4782 263.768 73.7236 266.064 76.3794 266.524C79.0353 266.982 79.3304 268.666 78.7402 269.432C78.15 270.197 68.1174 270.81 65.9042 270.503C65.9042 270.503 58.3792 270.35 56.6086 269.738C54.8381 269.126 57.1988 257.798 57.3464 257.033Z" fill="black"/>
<path d="M59.1192 203.304C59.1192 203.304 58.6766 196.875 65.3163 195.497C71.9553 194.12 72.8412 197.334 74.1685 203.304C75.4964 209.274 66.6435 257.952 66.6435 257.952C66.6435 257.952 59.1192 258.411 57.3487 257.033C57.3487 257.033 55.1354 224.429 56.4634 215.703C57.7913 206.978 59.1192 203.304 59.1192 203.304Z" fill="#252525"/>
<path d="M56.7569 257.798C56.7569 257.798 62.5113 259.482 67.3804 258.564L67.823 255.043L56.6094 254.278L56.7569 257.798Z" fill="#004330"/>
<path d="M48.9375 167.256C48.9375 167.256 55.1345 187.92 59.7816 198.023" stroke="#003D2C" stroke-width="0.5" stroke-miterlimit="10"/>
<path d="M61.5508 202.156C61.5508 202.156 65.3133 199.86 69.0757 202.156" stroke="#003D2C" stroke-width="0.5" stroke-miterlimit="10"/>
<path d="M60.8906 204.681C60.8906 204.681 63.9891 202.845 69.3009 206.748" stroke="#003D2C" stroke-width="0.5" stroke-miterlimit="10"/>
<path d="M37.6523 199.401C37.6523 199.401 40.0869 197.104 45.6199 199.631" stroke="#003D2C" stroke-width="0.5" stroke-miterlimit="10"/>
<path d="M39.4219 201.697C39.4219 201.697 42.963 199.86 46.2829 202.615" stroke="#003D2C" stroke-width="0.5" stroke-miterlimit="10"/>
<path d="M47.6092 205.371L46.2812 252.213" stroke="#003D2C" stroke-width="0.5" stroke-miterlimit="10"/>
<path d="M65.9062 166.108C65.9062 166.108 70.9222 169.169 72.9879 164.271" stroke="#003D2C" stroke-width="0.5" stroke-miterlimit="10"/>
<path d="M70.9219 166.721C70.9219 166.721 73.2826 185.702 72.6925 198.254" stroke="#003D2C" stroke-width="0.5" stroke-miterlimit="10"/>
<path d="M29.0195 95.3879L31.3803 121.717" stroke="#252525" stroke-width="0.5" stroke-miterlimit="10"/>
<path d="M69.5195 104.572C69.5195 104.572 87.0033 117.659 95.1916 115.133" stroke="#252525" stroke-width="0.5" stroke-miterlimit="10"/>
<path d="M90.3242 101.358C90.3242 101.358 93.8654 103.424 93.644 108.246" stroke="#252525" stroke-width="0.5" stroke-miterlimit="10"/>
<path d="M89.4375 99.52C89.4375 99.52 93.2 98.3719 95.4132 102.275" stroke="#252525" stroke-width="0.5" stroke-miterlimit="10"/>
<path d="M68.8574 83.678C68.8574 83.678 59.5625 88.7296 65.7589 100.439" stroke="#252525" stroke-width="0.5" stroke-miterlimit="10"/>
<path d="M55.6875 68.408C55.6875 68.408 57.2368 72.5411 62.4378 71.8522" stroke="#A77860" stroke-width="0.5" stroke-miterlimit="10"/>
<path d="M105.777 59.9121L107.511 58.3048C107.511 58.3048 108.728 58.2987 109.374 59.1051" stroke="#EEA886" stroke-width="1.368" stroke-miterlimit="10"/>
<path d="M107.844 60.18C107.844 60.0651 110.315 58.6874 110.315 58.6874C110.315 58.6874 112.565 59.2615 112.897 60.4861C113.229 61.7107 112.97 62.3613 112.97 62.3613" stroke="#EEA886" stroke-width="1.368" stroke-miterlimit="10"/>
<path d="M110.758 62.3993C110.868 62.3611 113.893 62.5524 113.893 62.5524C113.893 62.5524 115 63.3178 114.963 64.8103C114.926 66.3022 114.452 67.7752 114.452 67.7752C114.452 67.7752 113.377 69.3644 111.532 69.3255" stroke="#EEA886" stroke-width="1.368" stroke-miterlimit="10"/>
<path d="M112.49 65.6149C112.49 65.6149 112.859 66.2272 112.379 67.337C111.9 68.4468 111.319 71.3533 109.23 72.7129" stroke="#EEA886" stroke-width="1.368" stroke-miterlimit="10"/>
</svg>
