<svg width="356" height="328" viewBox="0 0 356 328" fill="none" xmlns="http://www.w3.org/2000/svg">
<path d="M178.001 328C169.392 328 160.926 327.957 152.643 327.873C145.489 320.461 138.713 312.281 132.369 303.419C146.933 303.147 162.226 303.004 178.001 303.004C276.308 303.004 356.001 308.6 356.001 315.502C356.001 322.405 276.308 328 178.001 328ZM148.259 327.825C131.784 327.631 116.072 327.278 101.463 326.787C99.4632 320.195 96.7197 312.583 92.9844 304.519C104.244 304.088 116.226 303.74 128.79 303.487C134.931 312.322 141.428 320.443 148.259 327.825Z" fill="#F4F4F4"/>
<path d="M178.001 328C169.392 328 160.926 327.957 152.643 327.873C145.489 320.461 138.713 312.281 132.369 303.419C146.933 303.147 162.226 303.004 178.001 303.004C276.308 303.004 356.001 308.6 356.001 315.502C356.001 322.405 276.308 328 178.001 328ZM148.259 327.825C131.784 327.631 116.072 327.278 101.463 326.787C99.4632 320.195 96.7197 312.583 92.9844 304.519C104.244 304.088 116.226 303.74 128.79 303.487C134.931 312.322 141.428 320.443 148.259 327.825Z" fill="#F4F4F4"/>
<path d="M101.461 326.787C41.457 324.779 0 320.48 0 315.502C0 310.761 37.5938 306.637 92.983 304.519C96.7182 312.583 99.4618 320.195 101.461 326.787Z" fill="#F4F4F4"/>
<path d="M101.461 326.787C41.457 324.779 0 320.48 0 315.502C0 310.761 37.5938 306.637 92.983 304.519C96.7182 312.583 99.4618 320.195 101.461 326.787Z" fill="#F4F4F4"/>
<path d="M152.642 327.873C151.176 327.857 149.711 327.841 148.258 327.825C141.427 320.442 134.93 312.321 128.789 303.486C129.975 303.465 131.171 303.441 132.368 303.419C138.712 312.281 145.487 320.461 152.642 327.873Z" fill="#F4F4F4"/>
<rect x="128.336" y="303.701" width="24.8716" height="23.8789" fill="#F4F4F4"/>
<g filter="url(#filter0_f_341_5191)">
<path d="M219.247 111.496H171.322C166.935 111.496 163.379 107.939 163.379 103.551V61.9457C163.379 57.557 166.935 54.0003 171.322 54.0003H219.247C223.631 54.0003 227.188 57.557 227.188 61.9457V103.551C227.188 107.939 223.631 111.496 219.247 111.496Z" fill="black" fill-opacity="0.1"/>
</g>
<path d="M171.322 111.246H219.247C223.493 111.246 226.938 107.801 226.938 103.551V61.9457C226.938 57.695 223.493 54.2503 219.247 54.2503H171.322C167.074 54.2503 163.629 57.695 163.629 61.9457V103.551C163.629 107.801 167.074 111.246 171.322 111.246Z" fill="white" stroke="#DFDFDF" stroke-width="0.5"/>
<path d="M197.572 101.559H192.512V100.621H197.572V101.559Z" fill="#007957"/>
<path d="M198.418 64.9765C198.418 64.9765 201.43 66.6305 200.473 70.6979C199.518 74.7653 199.154 75.3024 199.931 76.9448C200.707 78.5889 201.39 85.4767 200.562 86.7353C199.734 87.9956 191.335 80.5905 190.403 74.6665C189.469 68.7408 191.57 66.2252 192.314 65.2862C193.06 64.3472 195.762 63.4658 198.418 64.9765Z" fill="#252525"/>
<path d="M204.071 98.5918H200.847C200.691 97.0021 200.547 95.895 200.577 95.7303C200.623 95.4601 197.369 86.9183 197.065 86.2116C196.759 85.5065 195.566 83.612 195.41 81.8279C195.252 80.0438 197.579 79.3222 197.579 79.3222C200.717 79.8856 201.781 84.2298 201.781 84.2298C201.781 84.2298 203.098 93.0384 203.765 95.5178C203.936 96.1537 204.028 97.2755 204.071 98.5918Z" fill="#EEA886"/>
<path d="M202.448 86.3521L197.648 88.377C197.648 88.377 193.236 77.4209 196.934 78.645C200.622 79.8642 202.28 82.1559 202.448 86.3521Z" fill="#383335"/>
<path d="M201.378 91.5096C201.238 92.5969 200.665 96.4485 200.793 97.4897C200.815 97.661 200.886 98.0564 200.993 98.5918H189.417C189.725 97.493 190.005 96.521 190.175 95.9543C190.738 94.0878 190.199 93.5886 189.915 92.0978C189.804 91.5129 189.416 90.4042 188.993 89.1506C188.849 88.7321 188.704 88.2956 188.564 87.8574C188.054 86.2792 187.819 84.6647 187.672 83.724C186.974 79.2695 190.399 78.8412 190.399 78.8412C191.67 78.6072 193.894 77.9202 193.894 77.9202L197.375 78.6435C197.375 78.6435 197.708 78.7687 198.19 79.1261L198.192 79.1278C198.426 79.2991 198.694 79.5248 198.976 79.8148C199.356 80.2052 200.113 81.3238 200.869 82.5544C201.1 82.9316 201.333 83.3171 201.552 83.6993C202.26 84.925 202.763 85.9134 202.748 87.0287C202.733 88.1259 201.518 90.4207 201.378 91.5096Z" fill="#383335"/>
<path d="M197.38 78.6449C197.38 78.6449 199.56 82.375 198.75 82.6534C197.938 82.9318 193.662 81.9911 191.992 78.467C191.992 78.467 194.798 77.1902 197.38 78.6449Z" fill="#EEA886"/>
<path d="M197.065 80.3476C197.065 80.3476 195.127 81.1681 193.372 78.4678C193.372 78.4678 193.844 75.4001 192.846 73.6273C191.85 71.8529 197.203 75.7527 197.203 75.7527C197.203 75.7527 197.117 76.1184 197.027 76.6588C196.981 76.9356 196.935 77.2568 196.898 77.5979C196.867 77.8813 196.844 78.1795 196.834 78.4777C196.813 79.168 196.862 79.8517 197.065 80.3476Z" fill="#EEA886"/>
<path d="M192.255 84.5258C191.855 86.5786 188.993 89.1504 188.993 89.1504C188.851 88.7303 188.706 88.2953 188.566 87.8587C190.541 86.5967 192.255 84.5258 192.255 84.5258Z" fill="#393D63"/>
<path d="M191.536 86.1605C191.355 86.9085 190.52 94.4848 190.61 94.7435C190.663 94.8917 191.068 96.6446 191.473 98.5918H187.735C187.353 97.3365 187.126 96.2953 187.182 95.7056C187.421 93.1488 186.555 85.0008 186.555 85.0008C186.555 85.0008 185.779 80.0734 189.866 79.4573C189.866 79.4573 192.282 79.7752 192.426 81.5594C192.573 83.3451 191.717 85.4143 191.536 86.1605Z" fill="#EEA886"/>
<path d="M186.252 87.2064L191.325 88.3926C191.325 88.3926 195.349 80.575 191.725 79.1466C187.905 77.6424 185.337 82.9425 186.252 87.2064Z" fill="#383335"/>
<path d="M197.951 65.4092C197.951 65.4092 202.358 67.0286 199.564 74.6396C196.77 82.2522 191.066 73.3414 191.927 68.6628C192.789 63.9858 197.951 65.4092 197.951 65.4092Z" fill="#EEA987"/>
<path d="M200.239 70.0364C200.239 70.0364 197.912 72.114 194.178 72.2112C194.178 72.2112 193.305 74.3398 193.164 74.9922C193.164 74.9922 189.474 68.6541 193.715 65.453C197.957 62.2518 201.805 68.7085 200.239 70.0364Z" fill="#252525"/>
<path d="M194.682 72.6683C194.68 72.1049 194.394 70.8083 193.541 71.1279C192.69 71.4458 193.452 74.0934 194.015 73.96C194.015 73.96 194.687 74.0028 194.682 72.6683Z" fill="#EEA987"/>
<path d="M196.842 78.3477C194.77 77.7743 193.97 75.7989 193.945 75.7314C195.63 77.9111 196.901 77.598 196.901 77.598C196.87 77.8814 196.868 78.0593 196.842 78.3477Z" fill="#A77860"/>
<path d="M174.72 96.5349H173.805V102.521H180.118V101.604H174.72V96.5349ZM215.846 96.5349V101.604H210.45V102.521H216.763V96.5349H215.846ZM173.805 70.389H174.72V65.3216H180.118V64.4056H173.805V70.389ZM210.45 64.4056V65.3216H215.846V70.389H216.763V64.4056H210.45Z" fill="#007957"/>
<path d="M78.7054 172.75H143.297C149.045 172.75 153.75 167.567 153.75 161.116V98.8844C153.75 92.4329 149.045 87.25 143.297 87.25H78.7054C72.9554 87.25 68.25 92.4329 68.25 98.8844V161.116C68.25 167.567 72.9554 172.75 78.7054 172.75Z" fill="white" stroke="#DFDFDF" stroke-width="0.5"/>
<path d="M131.531 155.275H91.3203V153.288H131.531V155.275Z" fill="#DFDFDF"/>
<path d="M125.835 161.537H97.0156V159.55H125.835V161.537Z" fill="#DFDFDF"/>
<path d="M114.806 144.83H108.047V143.578H114.806V144.83Z" fill="#007957"/>
<path d="M83.9594 138.12H82.7344V146.115H91.1664V144.891H83.9594V138.12ZM138.89 138.12V144.891H131.682V146.115H140.114V138.12H138.89ZM82.7344 103.196H83.9594V96.4281H91.1664V95.2024H82.7344V103.196ZM131.682 95.2024V96.4281H138.89V103.196H140.114V95.2024H131.682Z" fill="#007957"/>
<path d="M111.637 73.6175C111.637 73.6175 115.895 70.8844 119.734 75.7426C123.574 80.6024 122.193 85.2728 121.391 89.6351C120.594 93.9595 116.723 103.859 118.368 108.218C120.013 112.578 117.912 114.85 117.912 114.85C117.912 114.85 104.708 118.232 106.246 98.363C107.785 78.4921 111.637 73.6175 111.637 73.6175Z" fill="black"/>
<path d="M103.597 117.659C103.597 117.659 99.7313 127.909 96.0792 137.461H86.1719C87.6851 132.784 89.2213 127.799 89.3909 126.883C89.7136 125.104 89.8618 119.832 91.8904 116.134C93.9222 112.434 98.7582 110.971 98.7582 110.971C106.739 111.332 103.597 117.659 103.597 117.659Z" fill="#707070"/>
<path d="M128.437 127.667C128.437 127.667 126.894 132.693 125.402 137.461H93.0735C92.9385 137.042 92.7689 136.601 92.5664 136.135C90.2003 130.652 89.0494 125.984 90.2003 122.868C91.3512 119.755 97.9095 111.228 99.6038 110.89C101.295 110.552 106.164 108.251 106.164 108.251C109.346 107.775 113.87 108.01 115.427 108.556C116.982 109.096 125.647 109.974 128.827 112.445C132.487 115.29 128.437 127.667 128.437 127.667Z" fill="#EDDAD3"/>
<path d="M104.609 119.113L101.648 115.646L104.219 106.516C104.219 106.516 105.082 111.6 104.609 119.113Z" fill="#D6C5BE"/>
<path d="M103.84 102.625C103.84 102.625 104.811 111.566 104.609 114.475C104.609 114.475 109.669 119.551 115.427 108.553C115.427 108.553 113.003 104.019 114.827 97.8431C116.65 91.6653 103.84 102.625 103.84 102.625Z" fill="#EEA886"/>
<path d="M104.609 114.475V119.113L110.433 114.757L104.609 114.475Z" fill="#EEA886"/>
<path d="M104.609 119.113L107.028 116.118L115.174 107.994L117.81 110.533L104.609 119.113Z" fill="#D6C5BE"/>
<path d="M131.831 119.463C131.831 119.463 130.434 124.644 126.657 137.461H109.834C109.312 130.718 109.021 125.346 109.14 123.722C109.466 119.152 116.305 108.771 116.305 108.771C116.305 108.771 120.565 109.287 125.139 110.279C130.357 111.412 131.831 119.463 131.831 119.463Z" fill="#707070"/>
<path d="M102.55 109.854C98.3826 114.842 96.9024 125.806 96.6669 137.461H92.9259C88.5856 128.376 89.7464 124.255 89.7464 124.255C92.0154 116.49 98.758 110.971 98.758 110.971L102.55 109.854Z" fill="#707070"/>
<path d="M101.647 115.646L97.918 116.678L104.218 106.516L101.647 115.646Z" fill="#FAE6DE"/>
<path d="M107.027 116.118L110.432 120.584L117.392 108.915L115.173 107.995L107.027 116.118Z" fill="#FAE6DE"/>
<path d="M104.039 104.593L104.217 106.354C104.217 106.354 108.228 107.14 113.492 100.715C113.492 100.715 109.761 105.269 104.039 104.593Z" fill="#A77860"/>
<path d="M105.059 104.723C103.473 104.666 99.0504 104.148 96.867 93.9508C94.2013 81.4949 100.093 75.0338 105.138 73.8361C110.181 72.6401 114.834 74.3946 117.418 80.9051C117.418 80.9051 119.305 85.9807 116.24 95.0233C113.176 104.066 106.755 104.786 105.059 104.723Z" fill="#EEA987"/>
<path d="M109.11 81.9172C109.11 81.9172 102.335 82.3373 96.0382 91.8032C96.0382 91.8032 93.0908 80.4148 100.795 75.2173C108.499 70.0197 113.893 74.4875 115.774 76.7543C115.774 76.7543 118.471 77.3737 118.555 82.4922C118.64 87.609 122.08 95.332 114.532 98.9941C114.532 98.9941 115.252 93.1525 114.587 91.8164C113.921 90.4804 111.616 91.3832 109.11 81.9172Z" fill="black"/>
<path d="M114.214 89.5475C114.555 88.6612 115.485 88.3053 115.999 89.2543C116.511 90.2049 115.9 93.8872 114.534 94.2908C113.167 94.6944 113.521 91.3434 114.214 89.5475Z" fill="#EEA987"/>
<path d="M138.358 137.461H127.344C126.187 134.622 125.11 132.109 124.39 130.3C122.004 124.295 112.514 113.004 118.561 109.239C118.561 109.239 126.488 108.753 130.461 113.379C134.437 118.008 134.22 123.501 135.231 125.886C135.98 127.656 137.442 133.748 138.358 137.461Z" fill="#707070"/>
<mask id="mask0_341_5191" style="mask-type:luminance" maskUnits="userSpaceOnUse" x="169" y="116" width="119" height="140">
<path d="M276.619 255.902H180.516C174.231 255.902 169.137 250.805 169.137 244.517V127.699C169.137 121.41 174.231 116.313 180.516 116.313H276.619C282.904 116.313 287.998 121.41 287.998 127.699V244.517C287.998 250.805 282.904 255.902 276.619 255.902Z" fill="white"/>
</mask>
<g mask="url(#mask0_341_5191)">
<path d="M180.516 255.652H276.619C282.766 255.652 287.748 250.667 287.748 244.517V127.699C287.748 121.548 282.766 116.563 276.619 116.563H180.516C174.369 116.563 169.387 121.548 169.387 127.699V244.517C169.387 250.667 174.369 255.652 180.516 255.652Z" fill="white" stroke="#DFDFDF" stroke-width="0.5"/>
</g>
<path d="M232.458 200.408H223.031V198.662H232.458V200.408Z" fill="#007957"/>
<path d="M242.095 218.053H187.238V214.67H242.095V218.053Z" fill="#DFDFDF"/>
<path d="M231.598 234.289H187.238V230.907H231.598V234.289Z" fill="#DFDFDF"/>
<path d="M213.244 226.17H187.238V222.788H213.244V226.17Z" fill="#DFDFDF"/>
<path d="M189.891 190.087H188.184V201.238H199.943V199.53H189.891V190.087ZM266.5 190.087V199.53H256.448V201.238H268.208V190.087H266.5ZM188.184 141.38H189.891V131.942H199.943V130.234H188.184V141.38ZM256.448 130.234V131.942H266.5V141.38H268.208V130.234H256.448Z" fill="#007957"/>
<path d="M262.884 216.37C258.414 216.37 254.777 220.007 254.777 224.482C254.777 228.954 258.414 232.592 262.884 232.592C267.355 232.592 270.992 228.954 270.992 224.482C270.992 220.007 267.355 216.37 262.884 216.37ZM262.884 234.539C257.342 234.539 252.832 230.027 252.832 224.482C252.832 218.935 257.342 214.423 262.884 214.423C268.428 214.423 272.938 218.935 272.938 224.482C272.938 230.027 268.428 234.539 262.884 234.539Z" fill="#007957"/>
<path d="M262.243 228.439L257.676 223.869L259.052 222.492L262.243 225.685L266.717 221.208L268.092 222.586L262.243 228.439Z" fill="#007957"/>
<path d="M266.061 183.559H253.789C253.363 180.602 253.043 178.443 253.043 178.443C253.043 178.443 252.864 180.435 252.591 183.559H200.996C200.759 181.315 200.556 179.941 200.452 179.887C200.304 179.811 199.756 181.302 199.061 183.559H185.164C188.788 169.119 193.909 151.831 197.08 150.609C202.451 148.542 224.347 141.787 224.347 141.787H236.848C236.848 141.787 259.058 148.128 261.125 155.017C262.597 159.933 264.525 170.76 266.061 183.559Z" fill="#E9E9E9"/>
<path d="M252.897 174.164L252.494 174.09C252.514 173.978 254.541 162.871 251.664 156.573L252.036 156.403C254.969 162.818 252.919 174.052 252.897 174.164Z" fill="#B84343"/>
<path d="M252.819 171.936C252.806 171.85 251.622 163.241 249.027 160.017L249.347 159.76C252.014 163.073 253.177 171.524 253.226 171.881L252.819 171.936Z" fill="#B84343"/>
<path d="M231.172 101.222C231.172 101.222 242.843 103.061 241.066 121.33C239.29 139.598 228.989 138.101 228.301 138.083C227.612 138.065 217.96 138.415 217.208 116.111C217.208 116.111 216.88 99.6176 231.172 101.222Z" fill="#EEA987"/>
<path d="M236.622 132.702C236.622 132.702 236.303 140.216 237.029 141.842C237.755 143.47 227.398 148.693 221.082 142.872C221.082 142.872 222.607 134.705 222.184 131.811C221.759 128.916 236.622 132.702 236.622 132.702Z" fill="#EEA987"/>
<path d="M241.249 116.169C241.249 116.169 242.527 114.803 242.994 116.185C243.464 117.569 241.012 123.748 241.173 124.024C241.173 124.024 240.939 124.56 240.633 124.265C240.325 123.97 241.249 116.169 241.249 116.169Z" fill="#EEA987"/>
<path d="M217.342 115.938C217.342 115.938 216.091 114.547 215.597 115.921C215.101 117.293 217.433 123.518 217.266 123.793C217.266 123.793 217.49 124.333 217.801 124.043C218.114 123.755 217.342 115.938 217.342 115.938Z" fill="#EEA987"/>
<path d="M241.243 118.971L239.571 121.207C239.571 121.207 239.619 116.307 239.352 115.538C239.084 114.77 239.668 112.095 239.444 111.541C239.221 110.988 231.462 113.047 218.739 111.782C218.739 111.782 220.153 116.195 219.324 116.508C218.495 116.821 218.902 122.246 218.902 122.246L217.527 120.696C217.527 120.696 215.976 111.429 216.128 109.882C216.328 107.823 215.614 98.2089 233.517 99.8596C235.567 100.047 237.534 100.782 239.171 102.031C241.01 103.434 242.902 105.624 242.729 108.63C242.5 112.606 241.243 118.971 241.243 118.971Z" fill="#242424"/>
<path d="M237.031 141.841C237.031 141.841 239.664 142.403 228.645 152.969C228.645 152.969 220.831 144.319 221.084 142.871C221.336 141.423 237.031 141.841 237.031 141.841Z" fill="#EEA987"/>
<path d="M199.289 183.559H184.781C187.035 174.934 189.754 165.847 191.437 160.014C194.339 149.985 198.296 149.706 198.296 149.706L200.452 179.887C200.452 179.887 199.967 181.351 199.289 183.559Z" fill="#252525"/>
<path d="M228.645 152.968L231.597 158.783L240.905 144.128L237.03 141.841L228.645 152.968Z" fill="#A0A0A0"/>
<path d="M266.416 183.559H253.697C253.369 180.924 253.153 179.19 253.153 179.19C253.153 179.19 253.127 180.867 253.072 183.559H234.926C234.949 182.75 234.993 181.994 235.066 181.293C236.584 166.836 237.028 141.842 237.028 141.842C237.028 141.842 256.418 144.448 261.126 155.017C263.843 161.124 265.451 173.33 266.416 183.559Z" fill="#252525"/>
<path d="M228.644 152.968L224.478 158.783L218.453 148.008L221.083 142.871L228.644 152.968Z" fill="#A0A0A0"/>
<path d="M221.082 142.871C221.082 142.871 218.841 152.461 217.744 166.36C217.435 170.31 216.015 176.547 214.12 183.559H200.829L200.452 179.887L198.297 149.706L221.082 142.871Z" fill="#252525"/>
<path d="M236.576 138.12L243.054 141.843L236.281 163.949L236.576 138.12Z" fill="#121212"/>
<path d="M221.71 139.022L221.084 142.871L216.813 163.074L214.621 141.788L221.71 139.022Z" fill="#121212"/>
<path d="M223.043 135.717C223.043 135.717 225.521 138.432 229.231 138.136C232.94 137.841 235.529 135.582 235.529 135.582C235.529 135.582 233.943 139.451 229.073 139.689C224.204 139.928 223.043 135.717 223.043 135.717Z" fill="#A77860"/>
<path d="M92.6173 149.343C89.9515 150.412 91.4713 155.909 91.2078 165.927C90.9444 175.947 83.5678 177.764 83.5678 177.764C83.5678 177.764 86.8181 173.927 87.4784 170.415C88.1386 166.902 80.846 158.028 84.0321 151.061C86.4937 145.679 92.9482 149.142 92.9482 149.142L92.6173 149.343Z" fill="#18181B"/>
<path d="M135.049 202.963C135.049 202.963 133.737 202.507 132.963 202.65C132.191 202.793 134.425 198.808 134.425 198.808L135.049 202.963Z" fill="#EEA886"/>
<path d="M134.425 198.809C134.425 198.809 136.491 196.99 136.816 196.723C137.14 196.456 138.307 196.341 139.659 196.326C141.011 196.31 142.845 196.896 142.975 197.089C143.107 197.282 143.329 197.415 143.323 198.015C143.315 198.613 142.98 199.115 142.98 199.115C142.98 199.115 143.318 199.858 142.858 200.445C142.858 200.445 143.145 201.158 142.514 201.74C142.514 201.74 142.774 202.443 142.28 202.827C142.28 202.827 141.11 202.944 140.69 203.114C140.268 203.282 137.818 203.359 135.457 203.069C135.457 203.069 132.837 202.855 134.425 198.809Z" fill="#EEA886"/>
<path d="M138.42 199.362C138.42 199.362 137.891 200.64 137.562 200.924C137.233 201.209 139.655 202.807 139.655 202.807C139.655 202.807 139.954 200.044 138.42 199.362Z" fill="#CF8C6C"/>
<path d="M142.625 197.078C142.625 197.078 139.199 197.2 139.151 197.755C139.102 198.309 139.421 198.543 139.421 198.543L138.033 199.233C138.033 199.233 137.373 200.209 138.627 200.644C138.627 200.644 137.916 201.492 139.179 201.767C139.179 201.767 138.958 202.535 139.52 202.766C140.083 202.996 142.284 202.827 142.284 202.827C142.284 202.827 142.887 202.624 142.673 201.78C142.673 201.78 143.225 201.235 142.933 200.462C142.933 200.462 143.381 199.955 143.058 199.123C143.058 199.123 143.89 197.927 142.979 197.088C142.979 197.088 142.77 197.072 142.625 197.078Z" fill="#DB9C7C"/>
<path d="M139.136 197.722C139.136 197.722 139.699 194.533 139.524 193.141C139.483 192.826 139.495 192.707 139.187 192.625C138.881 192.542 138.369 193.636 138.029 194.6C137.69 195.562 136.781 196.75 136.781 196.75C136.781 196.75 136.752 197.744 139.136 197.722Z" fill="#EEA886"/>
<path d="M86.1664 301.031C86.1664 301.031 89.8613 306.436 91.1522 307.582C91.1522 307.582 93.7291 308.92 93.8097 309.989C93.9596 312.012 94.1407 313.897 90.7504 313.992C87.3585 314.088 85.1637 313.287 84.5429 311.233C83.9222 309.177 82.4419 307.409 82.4419 307.409V311.711H81.6779C81.6779 311.711 81.4869 307.553 81.4392 306.788C81.3914 306.024 80.8892 303.083 82.5012 301.782C84.1132 300.48 86.1664 301.031 86.1664 301.031Z" fill="black"/>
<path d="M91.6431 307.859C91.6431 307.859 89.8105 308.376 87.6288 307.828C85.4487 307.278 83.3543 302.055 82.7187 301.62L82.1523 299.513H86.4038C86.4038 299.513 86.4383 301.071 87.1266 302.406C87.8132 303.742 91.6431 307.859 91.6431 307.859Z" fill="#EEA886"/>
<path d="M110.151 299.011C110.151 299.011 110.706 300.32 111.752 301.686C112.519 302.688 114.903 306.8 115.956 307.086C117.006 307.373 120.253 307.946 120.54 309.763C120.826 311.579 120.969 312.869 117.77 313.012C114.569 313.155 112.468 313.346 110.94 311.101C109.41 308.856 106.975 307.23 106.975 307.23V313.089H105.734C105.734 313.089 105.161 306.991 104.826 306.561C104.492 306.131 103.633 301.447 106.593 299.011C109.555 296.574 110.151 299.011 110.151 299.011Z" fill="black"/>
<path d="M115.958 307.086C115.958 307.086 113.091 307.802 111.993 307.086C110.894 306.369 107.16 300.054 105.922 299.675C105.922 299.675 107.121 297.242 110.154 299.01C110.154 299.01 115.144 306.035 115.958 307.086Z" fill="#EEA886"/>
<path d="M84.5401 211.251C84.5401 211.251 80.4994 216.506 79.4028 222.743C78.3062 228.978 80.0499 249.91 80.0021 252.993C79.9544 256.075 77.1487 265.907 77.7217 271.712C78.2947 277.517 81.4314 301.512 81.4314 301.512L88.4325 301.387C88.4325 301.387 87.0296 275.236 87.3886 272.799C87.7459 270.361 88.887 259.992 89.0302 258.989C89.1735 257.986 97.0061 231.448 97.0061 226.952C97.0061 222.456 94.2827 203.915 84.5401 211.251Z" fill="#252525"/>
<path d="M104.84 213.305C104.84 213.305 111.479 238.655 112.267 242.169C113.054 245.681 114.632 250.268 114.559 250.913C114.488 251.559 113.723 262.383 113.723 262.383L111.837 299.227H104.84C104.84 299.227 102.595 275.786 102.236 271.056C101.879 266.325 104.815 259.014 104.099 257.005C103.382 254.999 92.5645 231.846 92.5645 231.846C92.5645 231.846 84.3729 205.946 104.84 213.305Z" fill="#252525"/>
<path d="M102.974 175.3C102.974 175.3 107.077 175.784 108.809 178.161C110.543 180.537 111.115 184.168 111.498 185.369C111.882 186.571 117.199 197.902 117.549 198.185C117.9 198.467 122.752 198.278 125.67 198.36C129.768 198.475 134.65 198.375 134.65 198.375L134.054 204.244C134.054 204.244 114.562 204.702 113.217 203.172C110.244 199.791 103.529 188.014 103.529 188.014C103.529 188.014 96.5277 178.466 102.974 175.3Z" fill="#08BA98"/>
<path d="M98.1514 173.498C98.1514 173.498 101.589 175.122 102.785 175.361C103.979 175.6 108.612 181.621 109.424 183.819C110.236 186.018 109.424 189.315 107.751 193.186C106.08 197.057 107.655 198.347 106.891 202.217C106.127 206.088 105.459 214.284 105.602 216.434C105.745 218.584 86.2831 218.991 81.8423 215.072C81.8423 215.072 86.3061 208.382 86.8791 207.426C87.4521 206.471 86.9746 201.261 86.4494 199.924C85.9241 198.586 80.4263 187.82 80.4263 187.82C80.4263 187.82 79.5668 178.468 82.1502 176.46C84.3961 174.715 90.5147 174.094 91.613 173.712C92.7112 173.33 95.9072 173.163 98.1514 173.498Z" fill="#EDDAD3"/>
<path d="M99.2525 181.166L101.342 178.718L99.5275 172.273C99.5275 172.273 98.9183 175.863 99.2525 181.166Z" fill="#D6C5BE"/>
<path d="M99.7934 169.528C99.7934 169.528 99.1068 175.839 99.25 177.893C99.25 177.893 95.677 181.476 91.6133 173.712C91.6133 173.712 93.3224 170.511 92.0364 166.151C90.7488 161.79 99.7934 169.528 99.7934 169.528Z" fill="#EEA886"/>
<path d="M99.2521 177.892V181.166L95.1406 178.092L99.2521 177.892Z" fill="#EEA886"/>
<path d="M99.2492 181.166L97.5417 179.052L91.7903 173.317L89.9297 175.11L99.2492 181.166Z" fill="#D6C5BE"/>
<path d="M92.6379 219.532C91.0161 227.288 79.3025 218.657 79.3025 218.657C79.3025 218.657 86.903 205.888 83.8832 195.681C83.8585 195.6 83.8338 195.519 83.8107 195.438C83.6165 194.793 83.4238 194.18 83.2328 193.597C80.4583 185.155 77.9688 183.183 77.9688 183.183C77.9688 183.183 81.4907 175.434 84.7575 174.932C88.0243 174.427 90.9947 173.867 90.9947 173.867C90.9947 173.867 95.8224 181.195 96.0512 184.421C96.2834 187.646 94.2581 211.776 92.6379 219.532Z" fill="#08BA98"/>
<path d="M110.153 184.722C110.153 184.722 109.376 192.039 107.894 195.67C107.894 195.67 107.273 203.411 107.368 206.136C107.464 208.859 108.109 219.157 108.109 219.157L104.755 221.124C104.08 221.52 103.244 220.971 103.338 220.192C104.288 212.353 107.378 182.621 100.703 174.63L103.38 175.419C103.38 175.419 108.895 180.564 110.153 184.722Z" fill="#08BA98"/>
<path d="M101.342 178.719L103.975 179.447L99.5273 172.274L101.342 178.719Z" fill="#FAE6DE"/>
<path d="M97.5432 179.054L95.1393 182.207L90.2227 174.009L91.7918 173.319L97.5432 179.054Z" fill="#FAE6DE"/>
<path d="M109.099 196.564C109.099 196.564 110.657 191.637 109.743 188.155C109.743 188.155 109.867 191.228 108.027 195.284L109.099 196.564Z" fill="#007957"/>
<path d="M97.3088 149.155C99.8264 148.912 105.481 149.917 106.658 156.565C106.658 156.565 106.543 158.377 106.172 159.815C105.802 161.251 107.267 165.368 106.946 165.591C106.625 165.811 105.27 166.139 105.27 166.139C105.27 166.139 104.014 170.773 102.411 170.81C100.808 170.846 94.6875 169.88 91.564 164.339C88.4405 158.797 87.1479 150.13 97.3088 149.155Z" fill="#EEA886"/>
<path d="M106.658 156.565C106.658 156.565 102.696 159.551 98.6589 160.308C94.6216 161.064 92.4382 168.09 92.4382 168.09C92.4382 168.09 85.6561 157.897 90.3603 151.39C95.0497 144.901 107.175 148.733 106.658 156.565Z" fill="#18181B"/>
<path d="M96.9612 160.2C96.9019 159.414 95.97 158.274 94.7318 159.411C93.4936 160.547 95.4036 164.208 96.4425 163.791C97.4815 163.374 97.0221 161.012 96.9612 160.2Z" fill="#EEA886"/>
<path d="M99.8027 170.439C99.7121 170.93 99.6182 171.505 99.5409 172.111C96.1539 170.179 94.3789 167.716 94.3789 167.716C96.3383 169.327 99.8027 170.439 99.8027 170.439Z" fill="#A77860"/>
<path d="M102.917 203.85L88.6629 228.553L72.8164 219.398L86.4516 194.34L102.917 203.85Z" fill="#524B49"/>
<path d="M95.8477 220.254C95.8477 220.254 95.2006 220.257 94.9157 220.12C94.9157 220.12 94.4185 219.832 94.0513 219.648C93.936 219.59 93.8323 219.541 93.7631 219.517C93.4733 219.417 92.8048 219.284 92.1742 218.845C91.5436 218.407 89.3125 215.822 89.3125 215.822L90.3663 214.217L91.1402 212.575C91.1402 212.575 95.8263 212.878 96.4602 213.217C96.5211 213.252 96.5821 213.286 96.6347 213.324C97.1435 213.664 97.3806 214.13 97.6276 214.339C97.7165 214.417 98.5629 215.244 98.5332 215.596C98.4921 216.086 98.2665 216.409 97.9717 216.568C97.9717 216.568 97.8499 217.524 97.3806 217.969C97.3806 217.969 97.2966 218.852 96.5541 219.239C96.5541 219.239 96.3696 220.125 95.8477 220.254Z" fill="#EEA886"/>
<path d="M86.5892 174.804C86.5892 174.804 81.8619 174.201 79.3822 178.974C76.9008 183.746 76.914 185.782 76.5814 188.113C76.2686 190.314 74.8558 196.321 74.7126 196.942C74.5693 197.563 71.3701 204.96 72.8371 207.546C74.3125 210.146 89.2945 217.796 89.199 218.368C89.1035 218.941 91.7939 212.584 91.7939 212.584C91.7939 212.584 85.7313 209.203 84.7384 208.162C83.1265 206.472 79.723 204.65 80.4228 202.553C81.2445 200.088 83.711 191.775 84.2823 190.558C84.8553 189.342 90.2396 176.354 86.5892 174.804Z" fill="#08BA98"/>
<path d="M86.1827 185.572C86.0066 190.159 83.8084 195.438 83.8084 195.438C83.6141 194.792 83.4215 194.179 83.2305 193.596C84.4687 190.132 86.1827 185.572 86.1827 185.572Z" fill="#007957"/>
<path d="M181.727 189.35L196.942 197.717L212.222 173.66L193.741 167.237L181.727 189.35Z" fill="#252525"/>
<path d="M182.691 188.628L196.919 196.453L211.21 173.955L193.926 167.948L182.691 188.628Z" fill="white"/>
<path d="M177.48 184.42C177.48 184.42 180.128 183.154 181.291 182.491C182.453 181.829 185.443 180.919 185.685 180.704C185.926 180.486 194.549 179.954 195.072 179.503C195.594 179.051 196.103 180.562 193.869 181.051C191.634 181.541 188.524 182.738 188.354 183.613C188.183 184.486 190.65 184.694 190.898 185.414C191.149 186.134 190.829 185.972 190.475 186.126C190.123 186.281 187.543 184.852 186.408 185.257C185.275 185.663 183.541 185.101 182.672 185.399C181.803 185.696 177.576 187.119 177.576 187.119L177.48 184.42Z" fill="#EEA886"/>
<path d="M197.684 194.699C197.684 194.699 199.909 192.696 200.985 191.857C202.062 191.019 204.083 188.554 204.381 188.411C204.677 188.266 208.537 180.344 209.166 180.027C209.795 179.71 208.569 178.642 207.239 180.56C205.907 182.476 203.569 184.942 202.678 184.762C201.789 184.581 202.555 182.176 201.973 181.66C201.394 181.144 201.42 181.508 201.139 181.782C200.855 182.055 201.196 185.044 200.373 185.955C199.55 186.866 199.403 188.719 198.784 189.423C198.165 190.128 195.18 193.558 195.18 193.558L197.684 194.699Z" fill="#EEA886"/>
<path d="M149.77 301.783C149.77 301.783 149.289 305.124 149.228 305.627C149.167 306.129 143.875 305.332 143.875 305.332L143.445 301.351C143.445 301.351 149.108 301.312 149.77 301.783Z" fill="#EEA886"/>
<path d="M149.283 305.201C149.283 305.201 150.961 307.216 152.582 308.095C154.204 308.973 156.753 309.32 157.713 310.228C158.406 310.884 160.236 313.708 153.498 313.652C146.76 313.594 143.512 314.05 142.79 312.968C142.069 311.884 143.834 304.976 143.834 304.976C143.834 304.976 145.43 305.551 149.283 305.201Z" fill="black"/>
<path d="M187.698 301.783C187.698 301.783 187.217 305.124 187.158 305.627C187.097 306.129 181.803 305.332 181.803 305.332L181.375 301.351C181.375 301.351 187.038 301.312 187.698 301.783Z" fill="#EEA886"/>
<path d="M187.213 305.202C187.213 305.202 188.889 307.216 190.513 308.095C192.135 308.973 198.103 309.693 199.063 310.602C199.755 311.258 200.907 313.899 191.428 313.652C184.692 313.475 181.442 314.05 180.721 312.968C179.998 311.884 181.765 304.976 181.765 304.976C181.765 304.976 183.268 305.589 187.213 305.202Z" fill="black"/>
<path d="M154.152 215.903C154.152 215.903 149.178 223.809 149.55 230.957C149.92 238.103 147.745 245.907 146.998 253.373C146.166 261.696 142.756 281.4 142.633 285.853C142.509 290.306 143.161 304.523 143.161 304.523L149.986 304.68C149.986 304.68 155.718 270.231 157.201 266.715C158.687 263.2 166.047 238.141 166.294 235.329C166.541 232.517 154.152 215.903 154.152 215.903Z" fill="#303030"/>
<path d="M180.336 216.974C180.336 216.974 184.084 236.563 184.578 240.937C185.074 245.312 185.403 262.106 185.651 264.841C185.898 267.574 187.3 300.617 188.62 304.68H179.895C179.895 304.68 173.199 280.657 173.199 269.294C173.199 257.928 168.025 244.586 164.686 237.087C161.345 229.588 153.702 229.41 151.648 215.498C151.648 215.498 177.555 212.56 180.336 216.974Z" fill="#303030"/>
<path d="M162.452 149.428C162.452 149.428 169.129 146.932 172.206 152.017C175.285 157.101 174.989 167.282 171.623 168.532C168.258 169.785 163.203 169.131 161.48 165.949C159.756 162.767 158.2 158.167 158.276 155.093C158.35 152.019 160.698 150.316 162.452 149.428Z" fill="#EEA886"/>
<path d="M170.9 168.766C170.9 168.766 170.622 170.57 171.081 171.458C171.54 172.346 162.432 172.369 162.432 172.369C162.432 172.369 161.692 167.537 160.289 163.454C158.888 159.37 170.9 168.766 170.9 168.766Z" fill="#EEA886"/>
<path d="M160.289 163.455C160.289 163.455 160.918 164.491 163.485 164.089C166.05 163.687 169.182 160.27 170.252 159.895C171.324 159.521 171.334 158.89 171.334 158.89L172.005 159.872L173.143 159.943C173.143 159.943 172.104 156.887 173.67 155.641C175.236 154.394 172.045 145.75 163.816 148.628C163.816 148.628 157.494 150.371 157.725 153.969C157.954 157.565 158.874 161.662 160.289 163.455Z" fill="#252525"/>
<path d="M171.621 171.352C171.621 171.352 171.593 169.653 170.824 169.492C170.055 169.329 162.336 168.586 161.391 168.958V170.935C161.391 170.935 163.21 172.055 171.621 171.352Z" fill="#007957"/>
<path d="M171.164 157.582C171.021 156.979 169.487 155.255 168.9 157.101C168.313 158.947 169.788 161.43 170.61 161.218C171.431 161.005 171.53 159.112 171.164 157.582Z" fill="#EEA886"/>
<path d="M202.258 191.406L202.246 191.404C202.3 191.429 202.307 191.431 202.258 191.406Z" fill="#323657"/>
<path d="M148.539 234.737C148.539 234.737 152.634 235.943 159.616 236.714C166.597 237.484 184.042 236.436 184.153 235.61C184.263 234.785 180.4 204.88 180.619 203.34C180.84 201.801 180.958 196.312 180.958 196.312C181.044 197.816 182.575 203.957 184.423 207.306C185.091 208.516 187.331 212.306 188.411 211.445C193.637 207.27 201.73 191.538 202.242 191.404C201.81 191.216 198.407 189.65 197.929 189.49C197.511 189.35 193.741 193.345 191.457 195.819C190.438 196.923 189.715 197.725 189.715 197.725C189.055 196.241 186.652 186.885 185.906 183.648C184.222 176.345 184.48 176.042 184.48 176.042C179.373 174.497 171.619 171.35 171.619 171.35L161.389 170.934C161.389 170.934 152 173.001 148.302 174.672C147.951 174.83 147.95 183.052 146.988 185.208L150.054 191.679C150.054 191.679 151.824 204.498 152.191 210.198C152.361 212.815 148.539 234.737 148.539 234.737Z" fill="#00563E"/>
<path d="M146.564 195.884C146.831 196.746 148.045 197.475 148.832 197.793C149.335 197.998 149.902 198.064 150.47 197.958L150.87 197.884L157.881 196.583C157.881 196.583 159.416 178.908 148.303 174.672C148.01 174.769 144.111 187.97 146.564 195.884Z" fill="#00563E"/>
<path d="M148.832 197.793C149.336 197.998 149.902 198.064 150.47 197.958L150.87 197.884L150.179 188.851L148.832 197.793Z" fill="#007957"/>
<path d="M189.715 197.726L190.571 201.357C190.571 201.357 191.501 197.713 191.457 195.82C190.438 196.924 189.715 197.726 189.715 197.726Z" fill="#007957"/>
<path d="M160.55 150.028C160.55 150.028 151.8 148.932 160.402 163.555L160.55 150.028Z" fill="#252525"/>
<path d="M205.19 172.369L206.079 170.84L199.073 168.422L198.184 169.942L205.19 172.369Z" fill="#252525"/>
<defs>
<filter id="filter0_f_341_5191" x="109.379" y="0" width="171.809" height="165.496" filterUnits="userSpaceOnUse" color-interpolation-filters="sRGB">
<feFlood flood-opacity="0" result="BackgroundImageFix"/>
<feBlend mode="normal" in="SourceGraphic" in2="BackgroundImageFix" result="shape"/>
<feGaussianBlur stdDeviation="27" result="effect1_foregroundBlur_341_5191"/>
</filter>
</defs>
</svg>
