<svg width="356" height="328" viewBox="0 0 356 328" fill="none" xmlns="http://www.w3.org/2000/svg">
<path d="M178 328C169.39 328 160.924 327.957 152.642 327.873C145.487 320.461 138.712 312.281 132.368 303.419C146.932 303.147 162.225 303.004 178 303.004C276.307 303.004 356 308.6 356 315.502C356 322.405 276.307 328 178 328ZM148.258 327.825C131.782 327.631 116.07 327.278 101.461 326.787C99.4617 320.195 96.7182 312.583 92.9829 304.519C104.243 304.088 116.225 303.74 128.789 303.487C134.93 312.322 141.427 320.443 148.258 327.825Z" fill="#F4F4F4"/>
<path d="M178 328C169.39 328 160.924 327.957 152.642 327.873C145.487 320.461 138.712 312.281 132.368 303.419C146.932 303.147 162.225 303.004 178 303.004C276.307 303.004 356 308.6 356 315.502C356 322.405 276.307 328 178 328ZM148.258 327.825C131.782 327.631 116.07 327.278 101.461 326.787C99.4617 320.195 96.7182 312.583 92.9829 304.519C104.243 304.088 116.225 303.74 128.789 303.487C134.93 312.322 141.427 320.443 148.258 327.825Z" fill="#F4F4F4"/>
<path d="M101.461 326.787C41.457 324.779 0 320.48 0 315.502C0 310.761 37.5938 306.637 92.983 304.519C96.7182 312.583 99.4618 320.195 101.461 326.787Z" fill="#F4F4F4"/>
<path d="M101.461 326.787C41.457 324.779 0 320.48 0 315.502C0 310.761 37.5938 306.637 92.983 304.519C96.7182 312.583 99.4618 320.195 101.461 326.787Z" fill="#F4F4F4"/>
<path d="M152.642 327.873C151.176 327.857 149.711 327.841 148.258 327.825C141.427 320.442 134.93 312.322 128.789 303.487C129.975 303.465 131.171 303.441 132.368 303.419C138.712 312.281 145.487 320.461 152.642 327.873Z" fill="#F4F4F4"/>
<rect x="128.338" y="303.7" width="24.8716" height="23.8789" fill="#F4F4F4"/>
<g filter="url(#filter0_f_110_339)">
<path d="M219.248 111.496H171.323C166.937 111.496 163.38 107.939 163.38 103.55V61.9454C163.38 57.5568 166.937 54 171.323 54H219.248C223.633 54 227.189 57.5568 227.189 61.9454V103.55C227.189 107.939 223.633 111.496 219.248 111.496Z" fill="black" fill-opacity="0.1"/>
</g>
<path d="M171.323 111.246H219.248C223.494 111.246 226.939 107.801 226.939 103.55V61.9454C226.939 57.6947 223.494 54.25 219.248 54.25H171.323C167.075 54.25 163.63 57.6948 163.63 61.9454V103.55C163.63 107.801 167.075 111.246 171.323 111.246Z" fill="white" stroke="#DFDFDF" stroke-width="0.5"/>
<path d="M197.573 101.559H192.513V100.621H197.573V101.559Z" fill="#007957"/>
<path d="M198.419 64.9767C198.419 64.9767 201.431 66.6307 200.474 70.6981C199.519 74.7656 199.155 75.3026 199.932 76.9451C200.708 78.5892 201.391 85.4769 200.563 86.7356C199.735 87.9958 191.336 80.5908 190.404 74.6667C189.47 68.741 191.571 66.2255 192.315 65.2864C193.061 64.3474 195.763 63.4661 198.419 64.9767Z" fill="#252525"/>
<path d="M204.073 98.5919H200.849C200.693 97.0022 200.549 95.8951 200.579 95.7304C200.625 95.4602 197.372 86.9185 197.067 86.2117C196.761 85.5066 195.569 83.6121 195.412 81.828C195.254 80.0439 197.581 79.3223 197.581 79.3223C200.719 79.8857 201.783 84.2299 201.783 84.2299C201.783 84.2299 203.1 93.0385 203.767 95.5179C203.938 96.1538 204.03 97.2756 204.073 98.5919Z" fill="#EEA886"/>
<path d="M202.45 86.3515L197.65 88.3763C197.65 88.3763 193.237 77.4203 196.935 78.6444C200.624 79.8635 202.282 82.1553 202.45 86.3515Z" fill="#383335"/>
<path d="M201.381 91.5098C201.241 92.597 200.668 96.4487 200.796 97.4898C200.818 97.6611 200.889 98.0565 200.996 98.5919H189.42C189.728 97.4931 190.008 96.5211 190.178 95.9544C190.741 94.0879 190.202 93.5888 189.918 92.0979C189.807 91.513 189.419 90.4044 188.995 89.1507C188.852 88.7322 188.707 88.2957 188.567 87.8575C188.057 86.2793 187.821 84.6648 187.675 83.7242C186.977 79.2696 190.402 78.8413 190.402 78.8413C191.673 78.6073 193.897 77.9204 193.897 77.9204L197.378 78.6436C197.378 78.6436 197.711 78.7688 198.193 79.1263L198.195 79.1279C198.429 79.2992 198.697 79.5249 198.979 79.8149C199.359 80.2053 200.116 81.3239 200.872 82.5545C201.103 82.9318 201.336 83.3172 201.555 83.6994C202.263 84.9251 202.766 85.9136 202.751 87.0288C202.736 88.126 201.521 90.4208 201.381 91.5098Z" fill="#383335"/>
<path d="M197.38 78.6448C197.38 78.6448 199.56 82.3748 198.75 82.6533C197.938 82.9317 193.662 81.991 191.992 78.4669C191.992 78.4669 194.798 77.1901 197.38 78.6448Z" fill="#EEA886"/>
<path d="M197.067 80.3485C197.067 80.3485 195.129 81.1689 193.374 78.4686C193.374 78.4686 193.847 75.4009 192.849 73.6282C191.853 71.8538 197.206 75.7535 197.206 75.7535C197.206 75.7535 197.12 76.1193 197.03 76.6596C196.983 76.9364 196.937 77.2577 196.901 77.5987C196.87 77.8821 196.847 78.1803 196.837 78.4785C196.816 79.1688 196.865 79.8526 197.067 80.3485Z" fill="#EEA886"/>
<path d="M192.256 84.526C191.856 86.5788 188.994 89.1506 188.994 89.1506C188.852 88.7305 188.707 88.2956 188.567 87.859C190.542 86.597 192.256 84.526 192.256 84.526Z" fill="#393D63"/>
<path d="M191.538 86.1607C191.357 86.9086 190.522 94.485 190.613 94.7436C190.665 94.8919 191.07 96.6447 191.475 98.5919H187.738C187.356 97.3366 187.129 96.2954 187.185 95.7057C187.423 93.1489 186.557 85.0009 186.557 85.0009C186.557 85.0009 185.782 80.0735 189.868 79.4574C189.868 79.4574 192.284 79.7753 192.429 81.5595C192.575 83.3453 191.719 85.4144 191.538 86.1607Z" fill="#EEA886"/>
<path d="M186.254 87.2065L191.327 88.3927C191.327 88.3927 195.351 80.5752 191.727 79.1468C187.907 77.6426 185.339 82.9427 186.254 87.2065Z" fill="#383335"/>
<path d="M197.951 65.4099C197.951 65.4099 202.359 67.0293 199.565 74.6403C196.771 82.2529 191.067 73.3421 191.928 68.6635C192.789 63.9866 197.951 65.4099 197.951 65.4099Z" fill="#EEA987"/>
<path d="M200.242 70.0371C200.242 70.0371 197.915 72.1147 194.181 72.2119C194.181 72.2119 193.308 74.3405 193.167 74.9929C193.167 74.9929 189.477 68.6549 193.718 65.4537C197.96 62.2526 201.808 68.7092 200.242 70.0371Z" fill="#252525"/>
<path d="M194.684 72.6683C194.683 72.1049 194.396 70.8083 193.543 71.1279C192.692 71.4458 193.454 74.0934 194.017 73.96C194.017 73.96 194.689 74.0028 194.684 72.6683Z" fill="#EEA987"/>
<path d="M196.842 78.3486C194.77 77.7753 193.97 75.7999 193.945 75.7324C195.63 77.912 196.901 77.599 196.901 77.599C196.87 77.8824 196.868 78.0603 196.842 78.3486Z" fill="#A77860"/>
<path d="M174.722 96.5342H173.806V102.521H180.119V101.603H174.722V96.5342ZM215.848 96.5342V101.603H210.452V102.521H216.765V96.5342H215.848ZM173.806 70.3884H174.722V65.321H180.119V64.405H173.806V70.3884ZM210.452 64.405V65.321H215.848V70.3884H216.765V64.405H210.452Z" fill="#007957"/>
<path d="M78.7054 172.75H143.297C149.045 172.75 153.75 167.567 153.75 161.116V98.8844C153.75 92.4329 149.045 87.25 143.297 87.25H78.7054C72.9554 87.25 68.25 92.4329 68.25 98.8844V161.116C68.25 167.567 72.9554 172.75 78.7054 172.75Z" fill="white" stroke="#DFDFDF" stroke-width="0.5"/>
<path d="M131.531 155.275H91.3201V153.288H131.531V155.275Z" fill="#DFDFDF"/>
<path d="M125.836 161.537H97.0159V159.55H125.836V161.537Z" fill="#DFDFDF"/>
<path d="M114.805 144.831H108.046V143.579H114.805V144.831Z" fill="#007957"/>
<path d="M83.9604 138.121H82.7354V146.116H91.1674V144.892H83.9604V138.121ZM138.891 138.121V144.892H131.683V146.116H140.115V138.121H138.891ZM82.7354 103.196H83.9604V96.4288H91.1674V95.2031H82.7354V103.196ZM131.683 95.2031V96.4288H138.891V103.196H140.115V95.2031H131.683Z" fill="#007957"/>
<path d="M111.637 73.6172C111.637 73.6172 115.895 70.8842 119.735 75.7424C123.575 80.6022 122.193 85.2726 121.391 89.6349C120.595 93.9593 116.723 103.859 118.368 108.218C120.013 112.578 117.912 114.85 117.912 114.85C117.912 114.85 104.709 118.232 106.246 98.3628C107.786 78.4919 111.637 73.6172 111.637 73.6172Z" fill="black"/>
<path d="M103.597 117.659C103.597 117.659 99.7313 127.909 96.0792 137.461H86.1719C87.6851 132.784 89.2213 127.799 89.3909 126.883C89.7136 125.103 89.8618 119.832 91.8904 116.133C93.9222 112.433 98.7582 110.97 98.7582 110.97C106.739 111.331 103.597 117.659 103.597 117.659Z" fill="#707070"/>
<path d="M128.435 127.667C128.435 127.667 126.893 132.693 125.401 137.461H93.0723C92.9373 137.042 92.7677 136.601 92.5652 136.134C90.1991 130.652 89.0481 125.983 90.1991 122.868C91.35 119.754 97.9082 111.227 99.6026 110.89C101.294 110.552 106.162 108.251 106.162 108.251C109.345 107.774 113.868 108.01 115.426 108.555C116.98 109.096 125.646 109.974 128.826 112.445C132.486 115.29 128.435 127.667 128.435 127.667Z" fill="#EDDAD3"/>
<path d="M104.608 119.113L101.648 115.646L104.218 106.516C104.218 106.516 105.081 111.6 104.608 119.113Z" fill="#D6C5BE"/>
<path d="M103.839 102.626C103.839 102.626 104.811 111.567 104.608 114.476C104.608 114.476 109.668 119.552 115.426 108.554C115.426 108.554 113.002 104.02 114.827 97.8439C116.649 91.6662 103.839 102.626 103.839 102.626Z" fill="#EEA886"/>
<path d="M104.608 114.476V119.113L110.432 114.757L104.608 114.476Z" fill="#EEA886"/>
<path d="M104.608 119.113L107.027 116.118L115.172 107.994L117.809 110.533L104.608 119.113Z" fill="#D6C5BE"/>
<path d="M131.83 119.463C131.83 119.463 130.434 124.644 126.657 137.461H109.834C109.312 130.718 109.021 125.346 109.139 123.721C109.465 119.151 116.305 108.771 116.305 108.771C116.305 108.771 120.565 109.287 125.139 110.279C130.357 111.412 131.83 119.463 131.83 119.463Z" fill="#707070"/>
<path d="M102.55 109.853C98.3824 114.842 96.9021 125.805 96.6667 137.461H92.9257C88.5854 128.375 89.7462 124.255 89.7462 124.255C92.0152 116.489 98.7578 110.97 98.7578 110.97L102.55 109.853Z" fill="#707070"/>
<path d="M101.648 115.646L97.9182 116.677L104.218 106.515L101.648 115.646Z" fill="#FAE6DE"/>
<path d="M107.027 116.118L110.432 120.584L117.392 108.916L115.172 107.995L107.027 116.118Z" fill="#FAE6DE"/>
<path d="M104.04 104.593L104.218 106.354C104.218 106.354 108.229 107.14 113.493 100.715C113.493 100.715 109.762 105.269 104.04 104.593Z" fill="#A77860"/>
<path d="M105.061 104.723C103.475 104.666 99.0523 104.148 96.869 93.9511C94.2032 81.4951 100.095 75.034 105.14 73.8364C110.183 72.6404 114.836 74.3948 117.42 80.9054C117.42 80.9054 119.307 85.981 116.242 95.0236C113.178 104.066 106.757 104.786 105.061 104.723Z" fill="#EEA987"/>
<path d="M109.108 81.9168C109.108 81.9168 102.333 82.3369 96.0362 91.8029C96.0362 91.8029 93.0889 80.4144 100.793 75.2169C108.497 70.0193 113.891 74.4871 115.772 76.7539C115.772 76.7539 118.469 77.3733 118.553 82.4918C118.638 87.6086 122.078 95.3316 114.53 98.9938C114.53 98.9938 115.25 93.1521 114.585 91.8161C113.919 90.48 111.614 91.3828 109.108 81.9168Z" fill="black"/>
<path d="M114.214 89.5472C114.555 88.6608 115.485 88.3049 115.999 89.2539C116.511 90.2046 115.9 93.8868 114.534 94.2904C113.167 94.6941 113.521 91.343 114.214 89.5472Z" fill="#EEA987"/>
<path d="M138.357 137.461H127.344C126.186 134.622 125.109 132.108 124.39 130.299C122.004 124.295 112.513 113.003 118.561 109.239C118.561 109.239 126.487 108.753 130.461 113.379C134.437 118.008 134.22 123.501 135.231 125.886C135.98 127.655 137.442 133.747 138.357 137.461Z" fill="#707070"/>
<mask id="mask0_110_339" style="mask-type:luminance" maskUnits="userSpaceOnUse" x="169" y="116" width="119" height="140">
<path d="M276.621 255.903H180.518C174.233 255.903 169.138 250.806 169.138 244.518V127.7C169.138 121.411 174.233 116.314 180.518 116.314H276.621C282.906 116.314 288 121.411 288 127.7V244.518C288 250.806 282.906 255.903 276.621 255.903Z" fill="white"/>
</mask>
<g mask="url(#mask0_110_339)">
<path d="M180.518 255.653H276.621C282.767 255.653 287.75 250.668 287.75 244.518V127.7C287.75 121.549 282.767 116.564 276.621 116.564H180.518C174.371 116.564 169.388 121.549 169.388 127.7V244.518C169.388 250.668 174.371 255.653 180.518 255.653Z" fill="white" stroke="#DFDFDF" stroke-width="0.5"/>
</g>
<path d="M232.458 200.409H223.032V198.663H232.458V200.409Z" fill="#007957"/>
<path d="M242.097 218.053H187.24V214.67H242.097V218.053Z" fill="#DFDFDF"/>
<path d="M231.6 234.29H187.24V230.907H231.6V234.29Z" fill="#DFDFDF"/>
<path d="M213.246 226.171H187.24V222.789H213.246V226.171Z" fill="#DFDFDF"/>
<path d="M189.892 190.088H188.184V201.24H199.944V199.531H189.892V190.088ZM266.501 190.088V199.531H256.449V201.24H268.208V190.088H266.501ZM188.184 141.381H189.892V131.943H199.944V130.235H188.184V141.381ZM256.449 130.235V131.943H266.501V141.381H268.208V130.235H256.449Z" fill="#007957"/>
<path d="M262.885 216.369C258.415 216.369 254.777 220.007 254.777 224.481C254.777 228.954 258.415 232.591 262.885 232.591C267.355 232.591 270.993 228.954 270.993 224.481C270.993 220.007 267.355 216.369 262.885 216.369ZM262.885 234.538C257.343 234.538 252.833 230.026 252.833 224.481C252.833 218.934 257.343 214.422 262.885 214.422C268.429 214.422 272.939 218.934 272.939 224.481C272.939 230.026 268.429 234.538 262.885 234.538Z" fill="#007957"/>
<path d="M262.244 228.44L257.677 223.869L259.053 222.492L262.244 225.685L266.718 221.209L268.093 222.586L262.244 228.44Z" fill="#007957"/>
<path d="M266.063 183.56H253.791C253.365 180.602 253.045 178.444 253.045 178.444C253.045 178.444 252.866 180.436 252.593 183.56H200.998C200.761 181.316 200.558 179.942 200.454 179.888C200.306 179.812 199.758 181.303 199.063 183.56H185.166C188.79 169.12 193.911 151.832 197.082 150.61C202.453 148.542 224.349 141.788 224.349 141.788H236.85C236.85 141.788 259.06 148.129 261.127 155.018C262.599 159.934 264.527 170.761 266.063 183.56Z" fill="#E9E9E9"/>
<path d="M252.899 174.165L252.495 174.09C252.515 173.978 254.542 162.872 251.666 156.574L252.038 156.404C254.97 162.819 252.92 174.053 252.899 174.165Z" fill="#B84343"/>
<path d="M252.821 171.936C252.808 171.85 251.624 163.241 249.029 160.017L249.348 159.76C252.016 163.073 253.178 171.524 253.228 171.881L252.821 171.936Z" fill="#B84343"/>
<path d="M231.176 101.223C231.176 101.223 242.846 103.061 241.07 121.331C239.293 139.599 228.992 138.101 228.304 138.083C227.616 138.065 217.964 138.416 217.211 116.112C217.211 116.112 216.883 99.618 231.176 101.223Z" fill="#EEA987"/>
<path d="M236.624 132.703C236.624 132.703 236.305 140.217 237.031 141.843C237.757 143.47 227.4 148.694 221.084 142.872C221.084 142.872 222.609 134.706 222.186 131.812C221.761 128.917 236.624 132.703 236.624 132.703Z" fill="#EEA987"/>
<path d="M241.251 116.169C241.251 116.169 242.528 114.803 242.996 116.185C243.465 117.569 241.014 123.747 241.175 124.024C241.175 124.024 240.941 124.56 240.635 124.265C240.327 123.97 241.251 116.169 241.251 116.169Z" fill="#EEA987"/>
<path d="M217.343 115.938C217.343 115.938 216.092 114.548 215.598 115.922C215.102 117.294 217.434 123.519 217.267 123.794C217.267 123.794 217.491 124.334 217.802 124.044C218.115 123.756 217.343 115.938 217.343 115.938Z" fill="#EEA987"/>
<path d="M241.244 118.972L239.573 121.207C239.573 121.207 239.621 116.308 239.354 115.538C239.086 114.771 239.67 112.095 239.446 111.542C239.223 110.988 231.464 113.048 218.741 111.782C218.741 111.782 220.155 116.196 219.326 116.509C218.497 116.822 218.904 122.247 218.904 122.247L217.529 120.696C217.529 120.696 215.978 111.43 216.13 109.883C216.33 107.824 215.616 98.2095 233.519 99.8602C235.569 100.048 237.536 100.783 239.173 102.031C241.012 103.435 242.904 105.624 242.731 108.631C242.502 112.606 241.244 118.972 241.244 118.972Z" fill="#242424"/>
<path d="M237.031 141.842C237.031 141.842 239.664 142.403 228.645 152.969C228.645 152.969 220.83 144.319 221.084 142.871C221.336 141.423 237.031 141.842 237.031 141.842Z" fill="#EEA987"/>
<path d="M199.292 183.56H184.784C187.038 174.935 189.757 165.848 191.439 160.015C194.342 149.986 198.299 149.707 198.299 149.707L200.454 179.888C200.454 179.888 199.97 181.352 199.292 183.56Z" fill="#252525"/>
<path d="M228.645 152.969L231.597 158.784L240.905 144.129L237.031 141.843L228.645 152.969Z" fill="#A0A0A0"/>
<path d="M266.417 183.56H253.697C253.37 180.925 253.154 179.191 253.154 179.191C253.154 179.191 253.128 180.868 253.073 183.56H234.927C234.95 182.751 234.994 181.995 235.066 181.294C236.585 166.837 237.029 141.843 237.029 141.843C237.029 141.843 256.419 144.449 261.127 155.018C263.843 161.125 265.452 173.331 266.417 183.56Z" fill="#252525"/>
<path d="M228.645 152.969L224.479 158.784L218.455 148.009L221.084 142.872L228.645 152.969Z" fill="#A0A0A0"/>
<path d="M221.084 142.872C221.084 142.872 218.843 152.462 217.746 166.361C217.437 170.311 216.017 176.548 214.122 183.56H200.831L200.454 179.888L198.299 149.707L221.084 142.872Z" fill="#252525"/>
<path d="M236.58 138.119L243.057 141.843L236.285 163.949L236.58 138.119Z" fill="#121212"/>
<path d="M221.71 139.024L221.084 142.872L216.813 163.076L214.621 141.79L221.71 139.024Z" fill="#121212"/>
<path d="M223.045 135.719C223.045 135.719 225.523 138.434 229.233 138.137C232.942 137.842 235.531 135.584 235.531 135.584C235.531 135.584 233.945 139.452 229.075 139.691C224.206 139.93 223.045 135.719 223.045 135.719Z" fill="#A77860"/>
<path d="M92.6195 149.343C89.9537 150.412 91.4735 155.91 91.21 165.928C90.9466 175.947 83.57 177.764 83.57 177.764C83.57 177.764 86.8203 173.927 87.4806 170.415C88.1408 166.903 80.8482 158.028 84.0343 151.061C86.4959 145.679 92.9504 149.142 92.9504 149.142L92.6195 149.343Z" fill="#18181B"/>
<path d="M135.051 202.964C135.051 202.964 133.739 202.508 132.965 202.651C132.193 202.795 134.427 198.809 134.427 198.809L135.051 202.964Z" fill="#EEA886"/>
<path d="M134.427 198.809C134.427 198.809 136.494 196.99 136.818 196.723C137.142 196.457 138.31 196.341 139.662 196.326C141.013 196.31 142.848 196.896 142.978 197.089C143.11 197.282 143.332 197.415 143.325 198.015C143.317 198.613 142.983 199.116 142.983 199.116C142.983 199.116 143.32 199.859 142.861 200.445C142.861 200.445 143.147 201.159 142.517 201.74C142.517 201.74 142.777 202.444 142.283 202.828C142.283 202.828 141.112 202.944 140.692 203.114C140.271 203.282 137.821 203.36 135.46 203.07C135.46 203.07 132.84 202.856 134.427 198.809Z" fill="#EEA886"/>
<path d="M138.42 199.363C138.42 199.363 137.892 200.641 137.562 200.925C137.233 201.21 139.655 202.808 139.655 202.808C139.655 202.808 139.955 200.045 138.42 199.363Z" fill="#CF8C6C"/>
<path d="M142.624 197.079C142.624 197.079 139.197 197.201 139.15 197.756C139.1 198.31 139.42 198.544 139.42 198.544L138.032 199.234C138.032 199.234 137.371 200.21 138.626 200.645C138.626 200.645 137.915 201.493 139.178 201.768C139.178 201.768 138.957 202.536 139.518 202.767C140.081 202.997 142.283 202.828 142.283 202.828C142.283 202.828 142.886 202.625 142.672 201.781C142.672 201.781 143.223 201.236 142.932 200.463C142.932 200.463 143.38 199.956 143.057 199.124C143.057 199.124 143.888 197.928 142.978 197.089C142.978 197.089 142.769 197.073 142.624 197.079Z" fill="#DB9C7C"/>
<path d="M139.138 197.724C139.138 197.724 139.701 194.534 139.527 193.142C139.485 192.828 139.497 192.709 139.189 192.627C138.883 192.544 138.371 193.638 138.032 194.602C137.692 195.564 136.783 196.752 136.783 196.752C136.783 196.752 136.754 197.745 139.138 197.724Z" fill="#EEA886"/>
<path d="M86.1667 301.031C86.1667 301.031 89.8615 306.436 91.1524 307.582C91.1524 307.582 93.7293 308.92 93.81 309.989C93.9598 312.012 94.141 313.897 90.7507 313.992C87.3588 314.088 85.1639 313.287 84.5432 311.233C83.9224 309.177 82.4422 307.409 82.4422 307.409V311.711H81.6782C81.6782 311.711 81.4872 307.553 81.4394 306.788C81.3917 306.024 80.8895 303.083 82.5014 301.782C84.1134 300.48 86.1667 301.031 86.1667 301.031Z" fill="black"/>
<path d="M91.6428 307.859C91.6428 307.859 89.8102 308.376 87.6285 307.828C85.4485 307.278 83.3541 302.055 82.7185 301.62L82.1521 299.513H86.4035C86.4035 299.513 86.4381 301.071 87.1263 302.406C87.813 303.742 91.6428 307.859 91.6428 307.859Z" fill="#EEA886"/>
<path d="M110.154 299.011C110.154 299.011 110.708 300.321 111.754 301.686C112.521 302.688 114.906 306.8 115.958 307.087C117.008 307.373 120.255 307.947 120.542 309.764C120.828 311.579 120.971 312.869 117.772 313.012C114.571 313.156 112.47 313.347 110.942 311.101C109.413 308.856 106.977 307.23 106.977 307.23V313.09H105.736C105.736 313.09 105.163 306.991 104.829 306.561C104.494 306.131 103.635 301.448 106.595 299.011C109.558 296.575 110.154 299.011 110.154 299.011Z" fill="black"/>
<path d="M115.958 307.086C115.958 307.086 113.091 307.803 111.993 307.086C110.894 306.37 107.16 300.055 105.922 299.676C105.922 299.676 107.121 297.242 110.154 299.01C110.154 299.01 115.144 306.035 115.958 307.086Z" fill="#EEA886"/>
<path d="M84.5413 211.251C84.5413 211.251 80.5006 216.506 79.404 222.743C78.3074 228.978 80.0511 249.91 80.0034 252.993C79.9556 256.075 77.1499 265.907 77.7229 271.712C78.2959 277.517 81.4326 301.512 81.4326 301.512L88.4337 301.387C88.4337 301.387 87.0309 275.236 87.3898 272.799C87.7471 270.361 88.8882 259.992 89.0314 258.989C89.1747 257.986 97.0074 231.448 97.0074 226.952C97.0074 222.456 94.2839 203.915 84.5413 211.251Z" fill="#252525"/>
<path d="M104.84 213.305C104.84 213.305 111.479 238.655 112.268 242.169C113.055 245.681 114.632 250.268 114.56 250.914C114.489 251.559 113.723 262.383 113.723 262.383L111.838 299.227H104.84C104.84 299.227 102.596 275.786 102.237 271.056C101.88 266.325 104.816 259.014 104.099 257.006C103.383 254.999 92.5652 231.847 92.5652 231.847C92.5652 231.847 84.3736 205.946 104.84 213.305Z" fill="#252525"/>
<path d="M102.973 175.3C102.973 175.3 107.076 175.784 108.808 178.161C110.542 180.537 111.113 184.168 111.497 185.369C111.881 186.571 117.197 197.902 117.548 198.185C117.899 198.467 122.751 198.278 125.669 198.36C129.767 198.475 134.649 198.375 134.649 198.375L134.053 204.244C134.053 204.244 114.561 204.702 113.216 203.172C110.242 199.791 103.528 188.014 103.528 188.014C103.528 188.014 96.5265 178.466 102.973 175.3Z" fill="#08BA98"/>
<path d="M98.1536 173.499C98.1536 173.499 101.592 175.123 102.787 175.362C103.981 175.601 108.614 181.622 109.426 183.82C110.238 186.019 109.426 189.316 107.753 193.187C106.082 197.059 107.658 198.348 106.894 202.218C106.13 206.09 105.461 214.285 105.604 216.435C105.748 218.585 86.2853 218.992 81.8445 215.073C81.8445 215.073 86.3083 208.383 86.8813 207.427C87.4543 206.472 86.9768 201.263 86.4516 199.925C85.9263 198.587 80.4285 187.822 80.4285 187.822C80.4285 187.822 79.569 178.469 82.1524 176.461C84.3983 174.717 90.5169 174.095 91.6152 173.713C92.7134 173.331 95.9094 173.165 98.1536 173.499Z" fill="#EDDAD3"/>
<path d="M99.2516 181.167L101.341 178.719L99.5265 172.274C99.5265 172.274 98.9173 175.864 99.2516 181.167Z" fill="#D6C5BE"/>
<path d="M99.7951 169.529C99.7951 169.529 99.1085 175.84 99.2517 177.894C99.2517 177.894 95.6787 181.477 91.615 173.713C91.615 173.713 93.3241 170.512 92.0381 166.152C90.7505 161.791 99.7951 169.529 99.7951 169.529Z" fill="#EEA886"/>
<path d="M99.2518 177.894V181.167L95.1404 178.093L99.2518 177.894Z" fill="#EEA886"/>
<path d="M99.2516 181.167L97.5442 179.054L91.7927 173.319L89.9321 175.111L99.2516 181.167Z" fill="#D6C5BE"/>
<path d="M92.6377 219.532C91.0158 227.288 79.3022 218.658 79.3022 218.658C79.3022 218.658 86.9027 205.889 83.8829 195.681C83.8582 195.601 83.8336 195.52 83.8105 195.439C83.6162 194.793 83.4236 194.18 83.2326 193.597C80.4581 185.156 77.9685 183.184 77.9685 183.184C77.9685 183.184 81.4905 175.435 84.7573 174.932C88.024 174.428 90.9944 173.868 90.9944 173.868C90.9944 173.868 95.8221 181.196 96.051 184.421C96.2832 187.647 94.2579 211.776 92.6377 219.532Z" fill="#08BA98"/>
<path d="M110.155 184.723C110.155 184.723 109.378 192.04 107.896 195.671C107.896 195.671 107.275 203.412 107.371 206.137C107.466 208.86 108.112 219.158 108.112 219.158L104.758 221.125C104.083 221.521 103.246 220.972 103.34 220.193C104.29 212.354 107.381 182.622 100.706 174.631L103.383 175.42C103.383 175.42 108.897 180.565 110.155 184.723Z" fill="#08BA98"/>
<path d="M101.341 178.72L103.974 179.448L99.5269 172.274L101.341 178.72Z" fill="#FAE6DE"/>
<path d="M97.5445 179.054L95.1405 182.207L90.2239 174.009L91.793 173.319L97.5445 179.054Z" fill="#FAE6DE"/>
<path d="M109.1 196.566C109.1 196.566 110.658 191.638 109.744 188.157C109.744 188.157 109.867 191.23 108.028 195.286L109.1 196.566Z" fill="#007957"/>
<path d="M97.3088 149.156C99.8264 148.913 105.481 149.918 106.658 156.566C106.658 156.566 106.543 158.378 106.172 159.816C105.802 161.252 107.267 165.369 106.946 165.592C106.625 165.812 105.27 166.14 105.27 166.14C105.27 166.14 104.014 170.774 102.411 170.811C100.808 170.847 94.6875 169.881 91.564 164.34C88.4405 158.798 87.1479 150.131 97.3088 149.156Z" fill="#EEA886"/>
<path d="M106.658 156.565C106.658 156.565 102.696 159.552 98.6589 160.308C94.6216 161.064 92.4382 168.091 92.4382 168.091C92.4382 168.091 85.6561 157.898 90.3603 151.391C95.0497 144.902 107.175 148.734 106.658 156.565Z" fill="#18181B"/>
<path d="M96.9614 160.201C96.9022 159.415 95.9702 158.275 94.732 159.412C93.4938 160.549 95.4038 164.209 96.4428 163.793C97.4818 163.376 97.0224 161.013 96.9614 160.201Z" fill="#EEA886"/>
<path d="M99.8036 170.44C99.7131 170.931 99.6192 171.506 99.5418 172.112C96.1549 170.179 94.3799 167.716 94.3799 167.716C96.3393 169.327 99.8036 170.44 99.8036 170.44Z" fill="#A77860"/>
<path d="M102.919 203.851L88.6646 228.553L72.8181 219.399L86.4533 194.34L102.919 203.851Z" fill="#524B49"/>
<path d="M95.8501 220.255C95.8501 220.255 95.203 220.259 94.9182 220.122C94.9182 220.122 94.4209 219.834 94.0537 219.649C93.9385 219.591 93.8347 219.542 93.7656 219.519C93.4758 219.418 92.8073 219.285 92.1767 218.847C91.546 218.408 89.3149 215.824 89.3149 215.824L90.3687 214.219L91.1426 212.576C91.1426 212.576 95.8287 212.879 96.4626 213.219C96.5236 213.253 96.5845 213.288 96.6372 213.326C97.146 213.665 97.3831 214.131 97.6301 214.341C97.719 214.418 98.5653 215.245 98.5357 215.598C98.4945 216.087 98.2689 216.41 97.9742 216.57C97.9742 216.57 97.8523 217.525 97.3831 217.97C97.3831 217.97 97.2991 218.853 96.5565 219.24C96.5565 219.24 96.3721 220.127 95.8501 220.255Z" fill="#EEA886"/>
<path d="M86.5897 174.805C86.5897 174.805 81.8624 174.202 79.3827 178.975C76.9013 183.747 76.9145 185.784 76.5819 188.115C76.2691 190.316 74.8563 196.322 74.7131 196.943C74.5698 197.564 71.3705 204.961 72.8376 207.547C74.3129 210.147 89.295 217.798 89.1995 218.369C89.104 218.942 91.7944 212.585 91.7944 212.585C91.7944 212.585 85.7318 209.205 84.7389 208.164C83.127 206.473 79.7235 204.651 80.4233 202.554C81.2449 200.09 83.7115 191.777 84.2828 190.559C84.8558 189.344 90.2401 176.356 86.5897 174.805Z" fill="#08BA98"/>
<path d="M86.1849 185.574C86.0088 190.16 83.8106 195.439 83.8106 195.439C83.6163 194.793 83.4237 194.18 83.2327 193.597C84.4709 190.134 86.1849 185.574 86.1849 185.574Z" fill="#007957"/>
<path d="M181.724 189.35L196.94 197.718L212.22 173.661L193.739 167.237L181.724 189.35Z" fill="#252525"/>
<path d="M182.69 188.627L196.918 196.452L211.209 173.954L193.925 167.947L182.69 188.627Z" fill="white"/>
<path d="M177.479 184.419C177.479 184.419 180.127 183.152 181.289 182.49C182.452 181.828 185.442 180.918 185.684 180.702C185.924 180.485 194.547 179.953 195.071 179.501C195.593 179.05 196.102 180.561 193.867 181.05C191.633 181.539 188.523 182.737 188.353 183.612C188.182 184.485 190.648 184.693 190.897 185.413C191.147 186.133 190.828 185.971 190.474 186.124C190.122 186.279 187.541 184.851 186.407 185.256C185.274 185.662 183.54 185.1 182.671 185.398C181.801 185.694 177.575 187.118 177.575 187.118L177.479 184.419Z" fill="#EEA886"/>
<path d="M197.682 194.699C197.682 194.699 199.907 192.696 200.984 191.858C202.061 191.019 204.081 188.555 204.379 188.411C204.675 188.266 208.535 180.344 209.164 180.028C209.793 179.71 208.568 178.642 207.237 180.56C205.905 182.476 203.567 184.942 202.676 184.762C201.787 184.581 202.553 182.176 201.972 181.66C201.392 181.145 201.418 181.509 201.137 181.782C200.854 182.056 201.195 185.044 200.371 185.955C199.548 186.866 199.401 188.719 198.782 189.423C198.163 190.128 195.178 193.558 195.178 193.558L197.682 194.699Z" fill="#EEA886"/>
<path d="M149.768 301.783C149.768 301.783 149.287 305.124 149.226 305.627C149.165 306.129 143.873 305.332 143.873 305.332L143.443 301.351C143.443 301.351 149.106 301.312 149.768 301.783Z" fill="#EEA886"/>
<path d="M149.282 305.201C149.282 305.201 150.96 307.216 152.582 308.094C154.204 308.972 156.753 309.32 157.713 310.228C158.406 310.884 160.235 313.707 153.497 313.651C146.76 313.594 143.511 314.05 142.79 312.968C142.069 311.884 143.834 304.975 143.834 304.975C143.834 304.975 145.429 305.55 149.282 305.201Z" fill="black"/>
<path d="M187.696 301.783C187.696 301.783 187.215 305.124 187.156 305.627C187.095 306.129 181.801 305.332 181.801 305.332L181.373 301.351C181.373 301.351 187.036 301.312 187.696 301.783Z" fill="#EEA886"/>
<path d="M187.212 305.201C187.212 305.201 188.888 307.216 190.512 308.094C192.134 308.972 198.102 309.692 199.062 310.602C199.754 311.258 200.906 313.899 191.427 313.651C184.691 313.475 181.441 314.05 180.72 312.968C179.997 311.884 181.764 304.976 181.764 304.976C181.764 304.976 183.267 305.588 187.212 305.201Z" fill="black"/>
<path d="M154.151 215.903C154.151 215.903 149.177 223.809 149.549 230.957C149.919 238.103 147.744 245.907 146.997 253.373C146.165 261.696 142.755 281.4 142.632 285.853C142.508 290.306 143.16 304.523 143.16 304.523L149.985 304.68C149.985 304.68 155.717 270.231 157.2 266.715C158.686 263.2 166.046 238.141 166.293 235.329C166.54 232.517 154.151 215.903 154.151 215.903Z" fill="#303030"/>
<path d="M180.336 216.974C180.336 216.974 184.083 236.563 184.577 240.937C185.073 245.312 185.402 262.106 185.651 264.841C185.898 267.574 187.299 300.617 188.62 304.68H179.895C179.895 304.68 173.198 280.657 173.198 269.294C173.198 257.928 168.025 244.586 164.685 237.087C161.345 229.588 153.701 229.41 151.648 215.498C151.648 215.498 177.555 212.56 180.336 216.974Z" fill="#303030"/>
<path d="M162.451 149.427C162.451 149.427 169.128 146.931 172.205 152.017C175.285 157.101 174.988 167.282 171.623 168.532C168.257 169.784 163.202 169.13 161.48 165.949C159.756 162.766 158.2 158.167 158.276 155.093C158.35 152.018 160.698 150.315 162.451 149.427Z" fill="#EEA886"/>
<path d="M170.898 168.766C170.898 168.766 170.62 170.57 171.079 171.458C171.538 172.346 162.43 172.369 162.43 172.369C162.43 172.369 161.69 167.537 160.288 163.454C158.886 159.37 170.898 168.766 170.898 168.766Z" fill="#EEA886"/>
<path d="M160.287 163.455C160.287 163.455 160.916 164.491 163.483 164.089C166.049 163.687 169.18 160.27 170.251 159.895C171.323 159.521 171.332 158.89 171.332 158.89L172.004 159.872L173.142 159.943C173.142 159.943 172.103 156.887 173.669 155.641C175.235 154.394 172.044 145.75 163.814 148.628C163.814 148.628 157.493 150.371 157.724 153.969C157.953 157.565 158.873 161.662 160.287 163.455Z" fill="#252525"/>
<path d="M171.619 171.351C171.619 171.351 171.591 169.652 170.822 169.491C170.053 169.328 162.334 168.584 161.389 168.957V170.934C161.389 170.934 163.209 172.054 171.619 171.351Z" fill="#007957"/>
<path d="M171.163 157.582C171.02 156.979 169.485 155.255 168.899 157.101C168.311 158.947 169.787 161.43 170.608 161.218C171.43 161.005 171.529 159.112 171.163 157.582Z" fill="#EEA886"/>
<path d="M202.255 191.406L202.243 191.404C202.297 191.429 202.304 191.431 202.255 191.406Z" fill="#323657"/>
<path d="M148.54 234.738C148.54 234.738 152.635 235.943 159.616 236.714C166.597 237.484 184.043 236.436 184.153 235.611C184.263 234.785 180.4 204.88 180.619 203.34C180.84 201.801 180.959 196.312 180.959 196.312C181.044 197.816 182.576 203.958 184.423 207.307C185.091 208.516 187.331 212.307 188.411 211.445C193.637 207.27 201.73 191.538 202.242 191.404C201.811 191.217 198.407 189.65 197.93 189.49C197.511 189.35 193.741 193.345 191.457 195.819C190.438 196.923 189.715 197.725 189.715 197.725C189.055 196.241 186.652 186.886 185.907 183.648C184.222 176.346 184.481 176.042 184.481 176.042C179.373 174.497 171.619 171.351 171.619 171.351L161.389 170.934C161.389 170.934 152.001 173.001 148.302 174.672C147.952 174.83 147.95 183.052 146.989 185.209L150.054 191.68C150.054 191.68 151.824 204.498 152.192 210.198C152.361 212.816 148.54 234.738 148.54 234.738Z" fill="#00563E"/>
<path d="M146.563 195.884C146.83 196.745 148.044 197.475 148.831 197.793C149.334 197.997 149.901 198.063 150.469 197.958L150.869 197.884L157.88 196.582C157.88 196.582 159.415 178.907 148.302 174.672C148.009 174.769 144.11 187.97 146.563 195.884Z" fill="#00563E"/>
<path d="M148.831 197.793C149.335 197.997 149.901 198.063 150.469 197.958L150.869 197.884L150.178 188.85L148.831 197.793Z" fill="#007957"/>
<path d="M189.715 197.725L190.571 201.356C190.571 201.356 191.501 197.712 191.457 195.819C190.438 196.923 189.715 197.725 189.715 197.725Z" fill="#007957"/>
<path d="M160.549 150.027C160.549 150.027 151.799 148.931 160.401 163.554L160.549 150.027Z" fill="#252525"/>
<path d="M205.187 172.369L206.077 170.84L199.071 168.421L198.181 169.942L205.187 172.369Z" fill="#252525"/>
<defs>
<filter id="filter0_f_110_339" x="109.38" y="0" width="171.809" height="165.496" filterUnits="userSpaceOnUse" color-interpolation-filters="sRGB">
<feFlood flood-opacity="0" result="BackgroundImageFix"/>
<feBlend mode="normal" in="SourceGraphic" in2="BackgroundImageFix" result="shape"/>
<feGaussianBlur stdDeviation="27" result="effect1_foregroundBlur_110_339"/>
</filter>
</defs>
</svg>
