<svg width="356" height="274" viewBox="0 0 356 274" fill="none" xmlns="http://www.w3.org/2000/svg">
<path d="M41.6373 51.4711C41.6373 51.4711 74.1166 21.986 114.04 36.027C153.963 50.0673 185.089 113.951 223.658 116.058C262.229 118.163 298.092 96.4005 328.54 115.355C358.99 134.31 364.404 216.447 306.211 224.871C248.019 233.295 215.539 203.109 190.503 204.512C165.466 205.917 104.567 237.508 56.5235 223.467C8.4811 209.426 -34.8255 112.548 41.6373 51.4711Z" fill="black" fill-opacity="0.05"/>
<mask id="mask0_110_481" style="mask-type:luminance" maskUnits="userSpaceOnUse" x="117" y="-1" width="157" height="58">
<path d="M117.576 -0.00019455H273.837V56.2905H117.576V-0.00019455Z" fill="white"/>
</mask>
<g mask="url(#mask0_110_481)">
<g opacity="0.460007">
<path d="M258.646 56.2905H119.807C118.347 56.2905 117.281 54.8598 117.649 53.3948L130.609 1.73C130.866 0.710819 131.752 -0.00019455 132.768 -0.00019455H271.606C273.066 -0.00019455 274.132 1.43056 273.764 2.89555L260.803 54.5597C260.547 55.5788 259.66 56.2905 258.646 56.2905Z" fill="#007957"/>
<path d="M138.848 11.0521H187.159" stroke="white" stroke-width="4.59467" stroke-miterlimit="10" stroke-linecap="round" stroke-linejoin="round"/>
<path d="M135.132 34.1852H183.443" stroke="white" stroke-width="4.59467" stroke-miterlimit="10" stroke-linecap="round" stroke-linejoin="round"/>
<path d="M155.447 25.4463H203.758" stroke="white" stroke-width="4.59467" stroke-miterlimit="10" stroke-linecap="round" stroke-linejoin="round"/>
<path d="M137.61 18.7631H152.103" stroke="white" stroke-width="4.59467" stroke-miterlimit="10" stroke-linecap="round" stroke-linejoin="round"/>
<path d="M135.627 25.4463H150.121" stroke="white" stroke-width="4.59467" stroke-miterlimit="10" stroke-linecap="round" stroke-linejoin="round"/>
<path d="M194.839 11.0521H212.058" stroke="white" stroke-width="4.59467" stroke-miterlimit="10" stroke-linecap="round" stroke-linejoin="round"/>
<path d="M203.276 45.0381H177.565C177.435 45.0381 177.34 44.9112 177.373 44.7809L178.523 40.1939C178.547 40.1033 178.625 40.0402 178.715 40.0402H204.427C204.557 40.0402 204.652 40.1671 204.619 40.2973L203.468 44.8843C203.445 44.975 203.367 45.0381 203.276 45.0381Z" stroke="#84AEE5" stroke-width="1.532" stroke-miterlimit="10"/>
<path d="M171.317 45.0381H145.606C145.476 45.0381 145.381 44.9112 145.413 44.7809L146.564 40.1939C146.587 40.1033 146.666 40.0402 146.756 40.0402H172.468C172.598 40.0402 172.692 40.1671 172.659 40.2973L171.509 44.8843C171.486 44.975 171.407 45.0381 171.317 45.0381Z" stroke="#84AEE5" stroke-width="1.532" stroke-miterlimit="10"/>
<path d="M248.468 38.3871C247.15 36.5662 241.803 35.2409 240.326 33.4201C239.571 32.4895 239.571 30.7607 239.752 29.291C240.278 28.9432 240.715 28.5941 240.975 28.2698C241.418 27.597 241.919 26.6564 242.42 25.6251C242.572 25.7789 242.774 25.8991 243.035 25.891C243.737 25.8689 246.41 22.0949 245.721 21.2201C245.327 20.7206 244.691 21.1543 244.218 21.6169C244.925 19.937 245.422 18.6486 245.422 18.6486H245.396C245.463 18.4371 245.525 18.2236 245.577 18.0074C246.637 13.595 244.049 10.0185 239.797 10.0185C235.544 10.0185 231.237 13.595 230.177 18.0074C230.125 18.2236 230.084 18.4371 230.05 18.6486H230.022C230.022 18.6486 229.901 19.937 229.801 21.6169C229.55 21.1543 229.122 20.7206 228.488 21.2201C227.378 22.0949 228.237 25.8689 228.929 25.891C229.186 25.8991 229.446 25.7789 229.671 25.6251C229.677 26.6564 229.725 27.597 229.846 28.2698C229.974 28.6659 230.347 29.0996 230.831 29.5233C230.302 30.9393 229.496 32.5385 228.357 33.4201C226.004 35.2409 220.02 36.5662 217.827 38.3871C215.855 40.0253 214.094 44.8097 213.76 45.755H248.993C249.114 44.8097 249.653 40.0253 248.468 38.3871Z" fill="white"/>
</g>
</g>
<path d="M234.49 97.416H95.6517C94.1917 97.416 93.1259 95.9859 93.4935 94.5203L106.454 42.8562C106.71 41.837 107.597 41.1253 108.613 41.1253H247.451C248.91 41.1253 249.977 42.556 249.608 44.0217L236.648 95.6852C236.392 96.7043 235.505 97.416 234.49 97.416Z" stroke="#007957" stroke-width="1.532" stroke-miterlimit="10"/>
<path d="M91.3774 90.7867L91.3774 90.7867C91.0831 91.9595 91.9399 93.0608 93.05 93.0608H231.889C232.663 93.0608 233.359 92.5163 233.561 91.7083L246.522 40.0441L246.522 40.0439C246.817 38.8715 245.96 37.7701 244.85 37.7701H106.011C105.236 37.7701 104.541 38.314 104.338 39.1219L103.853 39.0003L104.338 39.1219L91.3774 90.7867Z" fill="white" stroke="#DFDFDF"/>
<path d="M136.618 93.5608H206.112" stroke="#007957" stroke-width="1.532" stroke-miterlimit="10"/>
<path d="M117.294 37.2698H176.011" stroke="#C6C6C6" stroke-width="1.532" stroke-miterlimit="10"/>
<path d="M220.68 85.8495H189.463C188.027 85.8495 187.152 84.641 187.511 83.1505L195.387 50.3782C195.744 48.8883 197.2 47.6798 198.636 47.6798H229.853C231.29 47.6798 232.163 48.8883 231.805 50.3782L223.929 83.1505C223.571 84.641 222.117 85.8495 220.68 85.8495Z" fill="#CAFFF0"/>
<path d="M205.523 85.4772L208.254 74.1097L203.776 72.1425C203.776 72.1425 195.429 75.3122 194.718 76.0776C194.123 76.7188 191.125 83.3495 190.171 85.4772H205.523Z" fill="black"/>
<path d="M220.979 85.4772C221.047 83.3495 221.238 76.7188 220.95 76.0776C220.607 75.3122 213.784 72.1425 213.784 72.1425L208.36 74.1097L205.628 85.4772H220.979Z" fill="black"/>
<path d="M208.185 85.978L212.464 76.1414L203.273 76.6879L202.374 85.978H208.185Z" fill="#BEBECF"/>
<path d="M205.271 70.5666L203.27 71.8786L201.955 75.157L201.616 79.6386L204.433 78.4361L206.621 81.1687L209.543 78.655L211.334 80.404L214.044 74.3923L213.567 70.6761L212.434 70.1296L205.271 70.5666Z" fill="#DEE0E8"/>
<path d="M205.886 61.9618C205.886 61.9618 205.214 60.3773 203.835 61.4314C202.457 62.4855 204.07 66.5575 205.069 65.3322C206.067 64.1069 205.886 61.9618 205.886 61.9618Z" fill="#FB8E74"/>
<path d="M215.709 61.8775C215.709 61.8775 217.019 60.1977 218.008 61.139C218.996 62.0803 215.747 66.3839 215.212 65.2325C214.678 64.0804 215.709 61.8775 215.709 61.8775Z" fill="#FB8E74"/>
<path d="M212.638 73.7411L214.048 65.981L205.887 66.7155L204.085 74.0029C204.085 74.0029 205.512 77.4525 207.041 78.9827C207.041 78.9827 211.787 74.7294 212.638 73.7411Z" fill="#FB8877"/>
<path d="M219.257 58.7447C218.952 59.6887 218.202 59.9243 218.147 60.4749C218.092 61.0254 217.752 62.4414 217.234 62.9919C216.717 63.5425 216.448 63.6996 216.448 63.6996C216.448 63.6996 209.447 65.744 205.891 62.9127C205.891 62.9127 205.658 61.8385 205.902 60.5534C206.143 59.2818 205.548 59.0596 206.239 58.4305C206.929 57.8014 207.138 57.2501 207.155 56.5425C207.171 55.8348 207.224 54.9694 207.934 54.2617C208.643 53.5541 209.28 53.7904 209.969 53.1613C209.969 53.1613 210.991 51.3828 212.34 51.18C213.689 50.9779 216.531 50.236 218.223 52.3939C219.915 54.5518 219.136 56.4404 219.623 57.1145C220.111 57.7893 219.257 58.7447 219.257 58.7447Z" fill="#252525"/>
<path d="M205.83 60.6256C205.83 60.6256 202.527 70.0675 208.75 70.7751C214.248 70.9074 216.2 63.9463 216.987 60.3765C217.774 56.8067 217.287 53.069 212.886 53.1912C208.486 53.3141 206.315 58.5114 205.83 60.6256Z" fill="#FBA990"/>
<path d="M207.559 57.239C207.559 57.239 207.966 57.9957 207.589 58.7591C207.212 59.5225 206.188 59.8159 206.035 60.823C205.881 61.8307 205.432 63.9248 205.156 64.0168C204.881 64.1081 205.076 61.9717 205.122 61.2392C205.169 60.5061 205.695 57.4781 207.163 55.5545C208.63 53.6303 209.537 52.8186 212.151 52.3774C214.763 51.9363 216.743 53.077 217.47 54.7307C218.198 56.385 217.035 60.5981 217.035 60.5981C217.035 60.5981 217.209 58.5959 216.562 58.126C215.916 57.656 215.381 57.3082 215.489 57.0336C215.595 56.759 213.42 57.7554 211.246 57.0296C209.072 56.3038 208.369 56.6341 208.007 56.8664C207.646 57.0987 207.559 57.239 207.559 57.239Z" fill="#252525"/>
<path d="M201.402 75.2669C201.349 75.4851 198.365 82.8631 198.365 82.8631L200.986 84.2294L200.25 85.7595" stroke="#252525" stroke-width="0.650667" stroke-miterlimit="10"/>
<path d="M214.308 75.2669C214.255 75.4851 213.694 82.8631 213.694 82.8631L210.415 84.2294L210.416 85.7595" stroke="#252525" stroke-width="0.650667" stroke-miterlimit="10"/>
<path d="M220.68 85.8495H189.463C188.027 85.8495 187.152 84.641 187.511 83.1505L195.387 50.3782C195.744 48.8883 197.2 47.6798 198.636 47.6798H229.853C231.29 47.6798 232.163 48.8883 231.805 50.3782L223.929 83.1505C223.571 84.641 222.117 85.8495 220.68 85.8495Z" stroke="white" stroke-width="1.532" stroke-miterlimit="10"/>
<path d="M112.092 49.6074H160.403H112.092Z" fill="#DFDFDF"/>
<path d="M112.092 49.6074H160.403" stroke="#DFDFDF" stroke-width="4.59467" stroke-miterlimit="10" stroke-linecap="round" stroke-linejoin="round"/>
<path d="M108.375 72.7408H156.686H108.375Z" fill="#DFDFDF"/>
<path d="M108.375 72.7408H156.686" stroke="#DFDFDF" stroke-width="4.59467" stroke-miterlimit="10" stroke-linecap="round" stroke-linejoin="round"/>
<path d="M128.691 64.0015H177.002H128.691Z" fill="#DFDFDF"/>
<path d="M128.691 64.0015H177.002" stroke="#DFDFDF" stroke-width="4.59467" stroke-miterlimit="10" stroke-linecap="round" stroke-linejoin="round"/>
<path d="M110.853 57.3187H125.346H110.853Z" fill="#DFDFDF"/>
<path d="M110.853 57.3187H125.346" stroke="#DFDFDF" stroke-width="4.59467" stroke-miterlimit="10" stroke-linecap="round" stroke-linejoin="round"/>
<path d="M108.871 64.0015H123.364H108.871Z" fill="#DFDFDF"/>
<path d="M108.871 64.0015H123.364" stroke="#DFDFDF" stroke-width="4.59467" stroke-miterlimit="10" stroke-linecap="round" stroke-linejoin="round"/>
<path d="M168.083 49.6074H185.301H168.083Z" fill="#DFDFDF"/>
<path d="M168.083 49.6074H185.301" stroke="#DFDFDF" stroke-width="4.59467" stroke-miterlimit="10" stroke-linecap="round" stroke-linejoin="round"/>
<path d="M176.52 83.5934H150.808C150.678 83.5934 150.584 83.4665 150.616 83.3362L151.767 78.7492C151.79 78.6586 151.868 78.5955 151.958 78.5955H177.671C177.801 78.5955 177.895 78.7224 177.862 78.8526L176.712 83.4396C176.689 83.5303 176.61 83.5934 176.52 83.5934Z" stroke="#DFDFDF" stroke-width="1.532" stroke-miterlimit="10"/>
<path d="M144.561 83.5934H118.848C118.719 83.5934 118.624 83.4665 118.657 83.3362L119.807 78.7492C119.831 78.6586 119.909 78.5955 119.999 78.5955H145.711C145.841 78.5955 145.936 78.7224 145.903 78.8526L144.752 83.4396C144.729 83.5303 144.65 83.5934 144.561 83.5934Z" stroke="#DFDFDF" stroke-width="1.532" stroke-miterlimit="10"/>
<path d="M174.153 31.4866H204.254" stroke="#C6C6C6" stroke-width="1.532" stroke-miterlimit="10"/>
<path d="M92.8637 164.556L92.8637 164.556C92.5694 165.728 93.4262 166.83 94.5369 166.83H233.375C234.149 166.83 234.845 166.285 235.048 165.478C235.048 165.478 235.048 165.478 235.048 165.478L248.009 113.814L248.009 113.813C248.303 112.64 247.446 111.539 246.336 111.539H107.497C106.723 111.539 106.027 112.083 105.825 112.891L105.825 112.891L92.8637 164.556Z" fill="white" stroke="#DFDFDF"/>
<path d="M113.578 122.092H161.889H113.578Z" fill="#DFDFDF"/>
<path d="M113.578 122.092H161.889" stroke="#DFDFDF" stroke-width="4.59467" stroke-miterlimit="10" stroke-linecap="round" stroke-linejoin="round"/>
<path d="M109.862 145.225H158.173H109.862Z" fill="#DFDFDF"/>
<path d="M109.862 145.225H158.173" stroke="#DFDFDF" stroke-width="4.59467" stroke-miterlimit="10" stroke-linecap="round" stroke-linejoin="round"/>
<path d="M130.177 136.485H178.488H130.177Z" fill="#DFDFDF"/>
<path d="M130.177 136.485H178.488" stroke="#DFDFDF" stroke-width="4.59467" stroke-miterlimit="10" stroke-linecap="round" stroke-linejoin="round"/>
<path d="M112.339 129.803H126.833H112.339Z" fill="#DFDFDF"/>
<path d="M112.339 129.803H126.833" stroke="#DFDFDF" stroke-width="4.59467" stroke-miterlimit="10" stroke-linecap="round" stroke-linejoin="round"/>
<path d="M110.357 136.485H124.851H110.357Z" fill="#DFDFDF"/>
<path d="M110.357 136.485H124.851" stroke="#DFDFDF" stroke-width="4.59467" stroke-miterlimit="10" stroke-linecap="round" stroke-linejoin="round"/>
<path d="M169.569 122.092H186.787H169.569Z" fill="#DFDFDF"/>
<path d="M169.569 122.092H186.787" stroke="#DFDFDF" stroke-width="4.59467" stroke-miterlimit="10" stroke-linecap="round" stroke-linejoin="round"/>
<path d="M178.006 156.077H152.295C152.165 156.077 152.07 155.951 152.103 155.82L153.253 151.233C153.276 151.142 153.355 151.08 153.445 151.08H179.157C179.287 151.08 179.381 151.206 179.348 151.336L178.198 155.923C178.175 156.014 178.097 156.077 178.006 156.077Z" stroke="#DFDFDF" stroke-width="1.532" stroke-miterlimit="10"/>
<path d="M146.047 156.077H120.335C120.205 156.077 120.111 155.951 120.143 155.82L121.294 151.233C121.317 151.142 121.395 151.08 121.485 151.08H147.197C147.328 151.08 147.422 151.206 147.389 151.336L146.238 155.923C146.216 156.014 146.137 156.077 146.047 156.077Z" stroke="#DFDFDF" stroke-width="1.532" stroke-miterlimit="10"/>
<path d="M223.198 149.427C221.88 147.605 216.533 146.281 215.055 144.46C214.301 143.529 214.301 141.8 214.481 140.331C215.007 139.983 215.444 139.634 215.704 139.309C216.147 138.637 216.649 137.696 217.15 136.664C217.302 136.819 217.503 136.938 217.765 136.93C218.466 136.908 221.139 133.134 220.451 132.26C220.056 131.76 219.42 132.193 218.947 132.657C219.654 130.977 220.152 129.688 220.152 129.688H220.125C220.192 129.476 220.254 129.263 220.306 129.046C221.366 124.635 218.778 121.058 214.526 121.058C210.273 121.058 205.966 124.635 204.906 129.046C204.854 129.263 204.814 129.476 204.779 129.688H204.752C204.752 129.688 204.631 130.977 204.53 132.657C204.28 132.193 203.851 131.76 203.217 132.26C202.108 133.134 202.967 136.908 203.658 136.93C203.915 136.938 204.175 136.819 204.401 136.664C204.407 137.696 204.455 138.637 204.576 139.309C204.703 139.706 205.076 140.139 205.561 140.563C205.031 141.978 204.225 143.578 203.086 144.46C200.733 146.281 194.75 147.605 192.557 149.427C190.584 151.064 188.824 155.849 188.49 156.795H223.723C223.844 155.849 224.383 151.064 223.198 149.427Z" fill="white"/>
<mask id="mask1_110_481" style="mask-type:luminance" maskUnits="userSpaceOnUse" x="77" y="179" width="158" height="58">
<path d="M77.936 179.925H234.198V236.216H77.936V179.925Z" fill="white"/>
</mask>
<g mask="url(#mask1_110_481)">
<path d="M78.4946 233.441L78.4945 233.442C78.2003 234.614 79.0571 235.716 80.1671 235.716H219.006C219.78 235.716 220.475 235.171 220.679 234.363L233.639 182.699L233.639 182.699C233.934 181.526 233.077 180.425 231.966 180.425H93.1281C92.3534 180.425 91.6581 180.969 91.4555 181.777C91.4555 181.777 91.4555 181.777 91.4555 181.777L78.4946 233.441Z" fill="white" stroke="#DFDFDF"/>
<path d="M99.2085 190.978H147.519H99.2085Z" fill="#DFDFDF"/>
<path d="M99.2085 190.978H147.519" stroke="#DFDFDF" stroke-width="4.59467" stroke-miterlimit="10" stroke-linecap="round" stroke-linejoin="round"/>
<path d="M95.4922 214.111H143.803H95.4922Z" fill="#DFDFDF"/>
<path d="M95.4922 214.111H143.803" stroke="#DFDFDF" stroke-width="4.59467" stroke-miterlimit="10" stroke-linecap="round" stroke-linejoin="round"/>
<path d="M115.808 205.371H164.119H115.808Z" fill="#DFDFDF"/>
<path d="M115.808 205.371H164.119" stroke="#DFDFDF" stroke-width="4.59467" stroke-miterlimit="10" stroke-linecap="round" stroke-linejoin="round"/>
<path d="M97.9697 198.688H112.463H97.9697Z" fill="#DFDFDF"/>
<path d="M97.9697 198.688H112.463" stroke="#DFDFDF" stroke-width="4.59467" stroke-miterlimit="10" stroke-linecap="round" stroke-linejoin="round"/>
<path d="M95.9875 205.371H110.481H95.9875Z" fill="#DFDFDF"/>
<path d="M95.9875 205.371H110.481" stroke="#DFDFDF" stroke-width="4.59467" stroke-miterlimit="10" stroke-linecap="round" stroke-linejoin="round"/>
<path d="M155.2 190.978H172.418H155.2Z" fill="#DFDFDF"/>
<path d="M155.2 190.978H172.418" stroke="#DFDFDF" stroke-width="4.59467" stroke-miterlimit="10" stroke-linecap="round" stroke-linejoin="round"/>
<path d="M163.637 224.963H137.925C137.795 224.963 137.701 224.836 137.734 224.706L138.885 220.119C138.907 220.028 138.986 219.965 139.076 219.965H164.788C164.918 219.965 165.012 220.092 164.98 220.222L163.829 224.809C163.806 224.9 163.728 224.963 163.637 224.963Z" stroke="#DFDFDF" stroke-width="1.532" stroke-miterlimit="10"/>
<path d="M131.677 224.963H105.966C105.836 224.963 105.741 224.836 105.774 224.706L106.925 220.119C106.948 220.028 107.026 219.965 107.117 219.965H132.828C132.958 219.965 133.053 220.092 133.02 220.222L131.869 224.809C131.846 224.9 131.767 224.963 131.677 224.963Z" stroke="#DFDFDF" stroke-width="1.532" stroke-miterlimit="10"/>
<path d="M208.828 218.312C207.51 216.491 202.163 215.166 200.686 213.346C199.931 212.415 199.932 210.686 200.112 209.216C200.638 208.868 201.075 208.519 201.335 208.195C201.778 207.523 202.28 206.581 202.781 205.55C202.933 205.704 203.134 205.823 203.395 205.816C204.097 205.794 206.77 202.02 206.082 201.146C205.687 200.645 205.051 201.079 204.578 201.542C205.285 199.863 205.783 198.574 205.783 198.574H205.756C205.823 198.361 205.885 198.149 205.937 197.932C206.997 193.52 204.409 189.943 200.157 189.943C195.904 189.943 191.597 193.52 190.537 197.932C190.485 198.149 190.445 198.361 190.41 198.574H190.383C190.383 198.574 190.262 199.863 190.161 201.542C189.911 201.079 189.482 200.645 188.848 201.146C187.738 202.02 188.597 205.794 189.289 205.816C189.546 205.823 189.806 205.704 190.031 205.55C190.037 206.581 190.086 207.523 190.207 208.195C190.334 208.591 190.707 209.025 191.191 209.448C190.662 210.864 189.856 212.463 188.717 213.346C186.364 215.166 180.381 216.491 178.187 218.312C176.215 219.95 174.455 224.735 174.121 225.68H209.354C209.474 224.735 210.014 219.95 208.828 218.312Z" fill="#DFDFDF"/>
</g>
<path d="M191.247 236.473H216.022" stroke="#007957" stroke-width="1.532" stroke-miterlimit="10"/>
<path d="M107.013 167.587H165.977" stroke="#007957" stroke-width="1.532" stroke-miterlimit="10"/>
<path d="M179.479 167.587H193.848" stroke="#007957" stroke-width="1.532" stroke-miterlimit="10"/>
<path d="M241.54 111.296H246.52C247.986 111.296 249.032 112.767 248.601 114.219L246.495 121.321" stroke="#007957" stroke-width="1.532" stroke-miterlimit="10"/>
<path d="M83.7958 20.4542H81.2552C80.6171 20.4542 80.2288 19.9178 80.388 19.2564L81.0215 16.6205C81.1801 15.9585 81.8266 15.4221 82.464 15.4221H85.0053C85.6428 15.4221 86.0311 15.9585 85.8719 16.6205L85.2383 19.2564C85.0791 19.9178 84.4333 20.4542 83.7958 20.4542Z" fill="#007957"/>
<path d="M81.9384 28.1829H79.3977C78.7597 28.1829 78.3714 27.6464 78.5306 26.9844L79.1641 24.3485C79.3227 23.6865 79.9692 23.1501 80.6066 23.1501H83.1479C83.7853 23.1501 84.1736 23.6865 84.0144 24.3485L83.3809 26.9844C83.2223 27.6464 82.5758 28.1829 81.9384 28.1829Z" fill="#ECECEC"/>
<path d="M90.0226 28.1829H87.482C86.8439 28.1829 86.4556 27.6464 86.6148 26.9844L87.2483 24.3485C87.4075 23.6865 88.0534 23.1501 88.6915 23.1501H91.2321C91.8696 23.1501 92.2579 23.6865 92.0987 24.3485L91.4651 26.9844C91.3066 27.6464 90.6607 28.1829 90.0226 28.1829Z" fill="#007957"/>
<path d="M98.1071 28.1829H95.5664C94.9284 28.1829 94.5401 27.6464 94.6993 26.9844L95.3328 24.3485C95.4914 23.6865 96.1379 23.1501 96.7753 23.1501H99.3166C99.954 23.1501 100.342 23.6865 100.183 24.3485L99.5496 26.9844C99.391 27.6464 98.7445 28.1829 98.1071 28.1829Z" fill="#ECECEC"/>
<path d="M80.0378 36.0908H77.4971C76.8591 36.0908 76.4714 35.5544 76.63 34.8924L77.2635 32.2565C77.4227 31.5951 78.0686 31.058 78.7066 31.058H81.2473C81.8847 31.058 82.2737 31.5951 82.1138 32.2565L81.4809 34.8924C81.3217 35.5544 80.6759 36.0908 80.0378 36.0908Z" fill="#ECECEC"/>
<path d="M78.0075 44.5381H75.4668C74.8287 44.5381 74.4405 44.0016 74.5997 43.3396L75.2332 40.7044C75.3924 40.0424 76.0382 39.506 76.6757 39.506H79.217C79.8544 39.506 80.2427 40.0424 80.0835 40.7044L79.45 43.3396C79.2914 44.0016 78.6449 44.5381 78.0075 44.5381Z" fill="#ECECEC"/>
<path d="M88.122 36.0908H85.5813C84.9432 36.0908 84.555 35.5544 84.7142 34.8924L85.3477 32.2565C85.5063 31.5951 86.1528 31.058 86.7902 31.058H89.3315C89.9689 31.058 90.3572 31.5951 90.198 32.2565L89.5645 34.8924C89.4059 35.5544 88.7594 36.0908 88.122 36.0908Z" fill="#ECECEC"/>
<path d="M84.58 50.8287H82.0393C81.4013 50.8287 81.013 50.2923 81.1722 49.6303L81.8057 46.9944C81.9649 46.3324 82.6108 45.7959 83.2488 45.7959H85.7895C86.4269 45.7959 86.8152 46.3324 86.656 46.9944L86.0225 49.6303C85.8639 50.2923 85.2181 50.8287 84.58 50.8287Z" fill="#007957"/>
<path d="M129.743 19.9084C128.24 25.1044 123.106 29.2993 118.054 29.4651C112.622 29.6444 109.233 25.2709 110.353 19.7708L110.509 19.1175H110.504C111.949 13.6684 117.298 9.29292 122.583 9.29292C122.856 9.29292 123.123 9.30769 123.386 9.33119C128.435 9.77364 131.342 14.3841 129.743 19.9084ZM124.547 5.10877L124.548 5.10742C124.535 5.10675 124.522 5.10608 124.51 5.10541C124.471 5.10205 124.433 5.09735 124.394 5.09534L124.393 5.09802C124.132 5.08191 123.868 5.06915 123.598 5.06915C116.064 5.06915 108.439 11.3353 106.432 19.1175L106.343 19.4895H106.339C106.33 19.5291 106.324 19.5673 106.315 19.6063L106.258 19.8439H106.265C104.612 27.7322 109.49 34.0105 117.301 33.6821C124.422 33.3834 131.604 27.4865 133.742 20.177C136.06 12.2498 131.84 5.63783 124.547 5.10877Z" fill="#ECECEC"/>
<path d="M123.805 7.54383C123.572 8.51534 124.009 9.35862 124.862 9.59294C128.981 10.7236 131.178 14.948 129.743 19.9083C128.24 25.1043 123.107 29.2992 118.054 29.465C113.1 29.6288 109.841 26.0059 110.157 21.194C110.222 20.2017 109.543 19.4894 108.57 19.4894C107.309 19.4894 106.052 20.6697 105.969 21.9567C105.521 28.8218 110.202 33.9801 117.3 33.682C124.422 33.3833 131.604 27.4864 133.742 20.1769C135.805 13.1211 132.691 7.10473 126.838 5.49405C125.628 5.16104 124.137 6.16545 123.805 7.54383Z" fill="#007957"/>
<path d="M152.733 28.0009L152.694 28.0036C152.534 28.0143 152.373 28.0217 152.213 28.0244C152.158 28.0251 152.103 28.0291 152.048 28.0291C146.677 28.0291 143.409 23.5113 144.748 17.94C146.086 12.3674 151.526 7.85089 156.897 7.85089C156.952 7.85089 157.006 7.85425 157.06 7.85492C157.221 7.8576 157.378 7.86499 157.534 7.87573C157.547 7.8764 157.561 7.87775 157.574 7.87909C162.537 8.24366 165.478 12.6064 164.197 17.94C164.187 17.9816 164.174 18.0226 164.164 18.0642C162.833 23.3427 157.833 27.6424 152.733 28.0009ZM158.862 3.66606C158.85 3.66472 158.838 3.66405 158.825 3.6627C158.778 3.66002 158.729 3.65733 158.681 3.65465C158.428 3.63853 158.173 3.62712 157.912 3.62712C150.293 3.62712 142.576 10.0349 140.677 17.94C138.777 25.8444 143.414 32.2522 151.033 32.2522C151.293 32.2522 151.553 32.2408 151.813 32.2247C151.862 32.222 151.911 32.22 151.96 32.2166C151.974 32.2153 151.987 32.2153 152.001 32.2139L152.001 32.2126C159.255 31.7043 166.367 25.5772 168.235 18.0642C168.245 18.0226 168.258 17.9816 168.268 17.94C170.087 10.37 165.91 4.17767 158.862 3.66606Z" fill="#ECECEC"/>
<path d="M163.571 19.8261C161.861 23.8719 158.028 27.0624 153.946 27.8426C152.926 28.0373 152.004 28.8953 151.757 29.9232C151.437 31.2533 152.369 32.2449 153.687 31.9965C159.507 30.9001 164.974 26.3487 167.398 20.578C167.945 19.2728 167.281 18.0636 166.002 18.0636C165.009 18.0636 164 18.8129 163.571 19.8261Z" fill="#007957"/>
<path d="M122.263 54.0343H96.5517C96.4216 54.0343 96.3271 53.9074 96.3601 53.7772L97.5108 49.1902C97.5334 49.0995 97.6117 49.0364 97.7023 49.0364H123.414C123.544 49.0364 123.638 49.164 123.605 49.2936L122.455 53.8806C122.432 53.9712 122.353 54.0343 122.263 54.0343Z" fill="#007957"/>
<path d="M246.267 67.4717C244.695 74.0125 238.31 79.3152 232.005 79.3152C225.7 79.3152 221.863 74.0125 223.436 67.4717C225.007 60.9303 231.393 55.6276 237.697 55.6276C244.002 55.6276 247.839 60.9303 246.267 67.4717Z" fill="#08BA98"/>
<path d="M251.726 80.1949C251.295 81.9855 249.548 83.4364 247.822 83.4364C246.097 83.4364 245.046 81.9855 245.477 80.1949C245.907 78.4043 247.654 76.9534 249.38 76.9534C251.106 76.9534 252.155 78.4043 251.726 80.1949Z" fill="#08BA98"/>
<path d="M231.907 73.4907C231.548 73.4907 231.223 73.3484 231.018 73.0637L228.067 68.987C227.656 68.4183 227.877 67.4958 228.562 66.9278C229.247 66.3585 230.136 66.3585 230.546 66.9278L232.752 69.9753L240.63 63.4325C241.316 62.8638 242.203 62.8638 242.616 63.4325C243.027 64.0012 242.805 64.923 242.121 65.4917L233.002 73.0637C232.659 73.3484 232.267 73.4907 231.907 73.4907Z" fill="white"/>
<path d="M356 269.759C356 272.101 334.204 274 307.318 274C280.432 274 258.635 272.101 258.635 269.759C258.635 267.417 280.432 265.518 307.318 265.518C334.204 265.518 356 267.417 356 269.759Z" fill="#F4F4F4"/>
<path d="M309.176 43.9529C309.176 43.9529 307.937 46.5236 307.193 52.1782C306.451 57.8327 308.433 90.4761 308.433 90.4761L329.739 88.1631L320.077 45.4951L309.176 43.9529Z" fill="#252525"/>
<path d="M296.541 181.853L289.108 220.022L303.601 220.408C303.601 220.408 307.318 186.479 305.831 186.479C304.345 186.479 296.541 181.853 296.541 181.853Z" fill="#4D4D4D"/>
<path d="M330.234 264.233C330.234 264.233 324.784 270.145 322.554 271.43C323.049 272.458 330.977 272.458 333.95 270.915C336.924 269.373 339.153 265.775 339.153 265.775L338.905 269.63H340.392C340.392 269.63 341.878 264.233 341.878 262.947C341.878 261.662 340.392 259.863 340.392 259.863L330.234 264.233Z" fill="black"/>
<path d="M328.005 188.15L333.455 257.55L339.897 257.036C339.897 257.036 347.329 206.143 344.356 188.664C341.383 171.186 328.005 188.15 328.005 188.15Z" fill="#EEA886"/>
<path d="M333.455 257.55C333.455 257.55 331.473 262.947 328.748 265.518C326.022 268.088 332.959 268.088 335.932 265.518C338.906 262.947 339.153 261.405 340.144 260.891C341.135 260.377 339.896 257.035 339.896 257.035L333.455 257.55Z" fill="#EEA886"/>
<path d="M285.499 263.068C285.499 263.068 279.166 267.941 276.759 268.818C277.08 269.919 284.895 271.305 288.076 270.304C291.257 269.304 294.039 266.147 294.039 266.147L293.169 269.904L294.634 270.164C294.634 270.164 296.976 265.103 297.185 263.837C297.394 262.57 296.221 260.536 296.221 260.536L285.499 263.068Z" fill="black"/>
<path d="M295.662 187.683L289.759 257.044L296.192 257.663C296.192 257.663 311.786 208.798 311.695 191.05C311.605 173.301 295.662 187.683 295.662 187.683Z" fill="#EEA886"/>
<path d="M289.759 257.043C289.759 257.043 286.928 262.017 283.825 264.074C280.72 266.131 287.559 267.345 290.906 265.331C294.255 263.317 294.749 261.841 295.81 261.506C296.87 261.173 296.192 257.663 296.192 257.663L289.759 257.043Z" fill="#EEA886"/>
<path d="M272.835 77.4168L260.028 74.7997C260.028 74.7997 259.834 76.6118 260.998 77.014L262.162 77.4168C262.162 77.4168 265.073 84.6646 266.431 85.4703C267.79 86.2753 275.944 89.7659 275.944 89.7659L278.075 81.2425L272.835 77.4168Z" fill="#EEA886"/>
<path d="M282.047 88.163C282.047 88.163 281.924 87.2633 280.209 83.6579C278.31 79.6611 277.882 78.0209 277.882 78.0209C277.882 78.0209 271.866 75.6045 270.895 74.3966C269.925 73.1888 269.343 72.9874 269.343 72.9874C269.343 72.9874 268.178 75.2023 269.925 76.813C271.672 78.4237 273.223 79.6315 273.223 79.6315C273.223 79.6315 273.029 84.2622 273.612 86.4764C274.193 88.6914 275.943 89.7656 275.943 89.7656L282.047 88.163Z" fill="#EEA886"/>
<path d="M301.991 95.6169C301.991 95.6169 293.32 110.011 293.072 108.726C292.824 107.44 281.923 87.6488 281.923 87.6488L275.943 89.7657C275.943 89.7657 284.896 118.751 290.595 123.377C290.595 123.377 291.09 124.148 292.824 123.891C294.558 123.634 307.937 109.24 307.937 109.24L301.991 95.6169Z" fill="#EEA886"/>
<path d="M310.105 78.5244C310.105 78.5244 305.459 80.452 303.23 83.7935C301 87.1351 294.559 102.3 294.559 102.3C294.559 102.3 298.027 108.726 305.955 111.04L316.856 90.2195L310.105 78.5244Z" fill="#08BA98"/>
<path d="M304.344 127.875C304.344 127.875 304.716 134.044 304.716 136.357C304.716 136.357 295.797 181.082 295.425 191.491C295.054 201.901 302.486 223.107 302.486 223.107C302.486 223.107 334.446 222.336 344.851 220.023L345.966 197.66C345.966 197.66 347.453 158.72 345.966 147.538C344.48 136.357 338.162 130.574 338.162 130.574L336.304 125.176L304.344 127.875Z" fill="#292929"/>
<path d="M331.659 75.8252C331.659 75.8252 340.02 79.8737 342.621 84.115C345.223 88.3562 353.027 111.297 353.027 111.297C353.027 111.297 344.293 114.574 336.675 114.574C336.675 114.574 337.419 121.899 338.162 124.212C338.905 126.526 336.304 127.489 336.304 127.489C336.304 127.489 318.095 132.695 304.53 129.61C304.53 129.61 302.858 129.224 302.858 128.453C302.858 127.682 303.043 125.754 303.043 125.754C303.043 125.754 301.743 112.645 301.371 110.332C301 108.019 296.912 101.722 297.284 99.2154C297.655 96.7091 303.973 85.0784 303.973 85.0784C303.973 85.0784 308.246 79.8737 310.104 78.5242C311.962 77.1747 316.608 77.1747 316.608 77.1747L331.659 75.8252Z" fill="#08BA98"/>
<path d="M315.813 68.8876C315.819 69.1897 316.88 75.7332 313.387 80.3638C309.894 85.0952 323.672 84.8937 326.874 80.0617C329.785 75.7332 329.494 75.0282 329.494 75.0282C329.494 75.0282 327.165 67.1762 327.844 62.0427C327.65 57.4121 315.619 60.2306 315.813 68.8876Z" fill="#EEA886"/>
<path d="M315.725 41.5769C315.725 41.5769 311.707 42.6431 309.432 49.0429C307.157 55.442 308.674 69.0398 310.19 70.6398C311.707 72.2397 316.316 71.6281 322.706 69.44C329.458 67.1283 331.739 59.845 332.946 55.0418C335.257 45.843 327.547 36.3776 315.725 41.5769Z" fill="#EEA886"/>
<path d="M307.937 48.8365C307.937 48.8365 311.653 58.0897 325.774 58.604L329.058 74.9579C329.058 74.9579 335.07 77.9544 337.419 79.2952C337.419 79.2952 340.145 49.6073 333.702 42.4105C327.261 35.2138 315.865 37.0132 311.405 41.1255C306.946 45.2385 307.937 48.8365 307.937 48.8365Z" fill="#252525"/>
<path d="M331.659 75.8252L328.5 72.7408C328.5 72.7408 325.713 81.0299 315.865 81.6086C315.865 81.6086 314.564 79.4883 315.307 76.4033L313.634 77.7535C313.634 77.7535 310.104 82.9581 310.476 84.5003C310.848 86.0425 315.555 83.3435 315.555 83.3435C315.555 83.3435 321.129 86.8133 323.359 87.006C325.588 87.1987 331.287 76.4033 331.659 75.8252Z" fill="white"/>
<path d="M325.994 58.3652C325.994 58.3652 327.484 55.8166 328.974 56.7552C330.463 57.6945 328.026 63.4632 325.994 63.5974C323.962 63.7317 325.046 59.841 325.994 58.3652Z" fill="#EEA886"/>
<path d="M329.491 92.5326L335.189 113.61" stroke="#007957" stroke-width="0.5" stroke-miterlimit="10"/>
<path d="M325.96 93.7536C325.96 93.7536 327.262 97.8021 331.535 100.5" stroke="#007957" stroke-width="0.5" stroke-miterlimit="10"/>
<path d="M332.464 88.7415C332.464 88.7415 333.207 83.3434 339.153 82.958" stroke="#007957" stroke-width="0.5" stroke-miterlimit="10"/>
<path d="M303.292 86.4278C303.292 86.4278 297.222 96.7734 297.284 99.2153C297.346 101.657 301.248 108.597 301.248 108.597L306.079 121.706" stroke="#007957" stroke-width="0.5" stroke-miterlimit="10"/>
<path d="M324.288 129.417L330.792 121.706" stroke="#007957" stroke-width="0.5" stroke-miterlimit="10"/>
<path d="M269.784 79.6808L262.162 77.4168C262.162 77.4168 262.846 79.1665 263.342 79.6808C263.838 80.1951 269.164 82.1227 269.164 82.1227" stroke="#EEA886" stroke-width="1.368" stroke-miterlimit="10"/>
<path d="M263.342 79.6808C263.342 79.6808 264.085 81.9945 264.457 82.3799C264.828 82.7652 269.536 84.1792 269.536 84.1792" stroke="#EEA886" stroke-width="1.368" stroke-miterlimit="10"/>
<path d="M270.898 77.7531L273.224 79.6317L274.986 79.1664" stroke="#EEA886" stroke-width="1.368" stroke-miterlimit="10"/>
<path d="M316.608 71.0701C316.608 71.0701 321.315 70.0422 323.793 65.4156" stroke="#A77860" stroke-width="0.5" stroke-miterlimit="10"/>
<path d="M312.52 59.7605L311.653 64.6443L313.263 65.0297" stroke="#A77860" stroke-width="0.5" stroke-miterlimit="10"/>
<path d="M312.272 67.2147C312.272 67.2147 314.626 67.729 317.104 66.315" stroke="#A77860" stroke-width="0.5" stroke-miterlimit="10"/>
<path d="M316.608 59.0538C316.608 59.3733 316.359 59.6318 316.051 59.6318C315.742 59.6318 315.493 59.3733 315.493 59.0538C315.493 58.7342 315.742 58.4757 316.051 58.4757C316.359 58.4757 316.608 58.7342 316.608 59.0538Z" fill="#252525"/>
<path d="M310.6 59.0538C310.6 59.3733 310.35 59.6318 310.043 59.6318C309.735 59.6318 309.485 59.3733 309.485 59.0538C309.485 58.7342 309.735 58.4757 310.043 58.4757C310.35 58.4757 310.6 58.7342 310.6 59.0538Z" fill="#252525"/>
<path d="M306.636 135.008C306.636 135.008 316.856 138.285 326.518 134.043" stroke="#007957" stroke-width="0.5" stroke-miterlimit="10"/>
<path d="M309.671 138.799C309.671 138.799 314.874 140.599 323.298 137.257" stroke="#007957" stroke-width="0.5" stroke-miterlimit="10"/>
<path d="M322.491 163.085L302.859 174.845L287.808 147.799L307.44 136.04L322.491 163.085Z" fill="white"/>
<path d="M326.022 146.51C326.022 146.51 322.926 150.045 321.997 150.816C321.068 151.587 314.75 152.165 314.75 152.165C314.75 152.165 311.963 156.984 311.22 156.791C310.477 156.598 310.663 156.02 310.663 156.02C310.663 156.02 310.477 147.345 311.034 146.382C311.591 145.417 320.696 142.719 320.696 142.719L321.811 141.37L326.022 146.51Z" fill="#EEA886"/>
<path d="M350.302 112.196C350.55 112.966 352.531 119.008 353.523 122.091C354.514 125.176 332.216 141.369 328.748 144.197L326.022 146.51L321.811 141.369L341.383 121.064L338.534 114.38L350.302 112.196Z" fill="#EEA886"/>
<path d="M311.219 156.791L312.396 151.394" stroke="#EEA987" stroke-width="1.368" stroke-miterlimit="10"/>
<path d="M310.538 151.908L311.9 148.824" stroke="#EEA987" stroke-width="1.368" stroke-miterlimit="10"/>
<path d="M311.034 146.381L310.538 156.792H312.149L314.75 152.165" stroke="#EEA987" stroke-width="1.368" stroke-miterlimit="10"/>
<path d="M107.261 269.759C107.261 272.101 85.4642 274 58.5774 274C31.6914 274 9.89502 272.101 9.89502 269.759C9.89502 267.417 31.6914 265.518 58.5774 265.518C85.4642 265.518 107.261 267.417 107.261 269.759Z" fill="#F4F4F4"/>
<path d="M38.979 256.115C38.979 256.115 40.0118 253.819 43.848 254.431C47.6843 255.043 48.1269 255.809 48.5696 257.799C49.0116 259.789 50.3402 261.932 51.2248 262.391C52.1107 262.85 55.3561 265.146 58.012 265.606C60.6679 266.064 60.963 267.748 60.3728 268.514C59.7826 269.279 49.75 269.892 47.5367 269.585C47.5367 269.585 40.0118 269.432 38.2412 268.821C36.4706 268.208 38.8314 256.88 38.979 256.115Z" fill="black"/>
<path d="M34.7182 202.307C34.7182 202.307 33.5961 195.969 40.0487 193.84C46.5014 191.713 47.7232 194.807 49.6763 200.588C51.63 206.371 47.9976 255.763 47.9976 255.763C47.9976 255.763 40.5677 257.079 38.6613 255.913C38.6613 255.913 33.0014 223.759 33.3948 214.935C33.7883 206.111 34.7182 202.307 34.7182 202.307Z" fill="#252525"/>
<path d="M37.8723 253.972C37.8723 253.972 46.2825 253.206 48.9384 252.748L48.7909 256.728C48.7909 256.728 42.1512 257.952 38.0199 257.34L37.8723 253.972Z" fill="#004330"/>
<path d="M35.8065 78.5493C35.8065 78.5493 30.4948 78.8555 27.2487 91.4073C24.0033 103.96 21.9377 119.267 23.118 123.247C24.2984 127.226 36.9869 137.942 41.7084 137.942C46.43 137.942 46.7251 134.268 45.8391 131.207C44.9545 128.146 35.8065 119.879 35.8065 119.879C35.8065 119.879 43.1839 95.3873 42.8888 88.958C42.5937 82.5294 39.0526 78.5493 35.8065 78.5493Z" fill="#004330"/>
<path d="M102.316 74.8043L101.435 74.8977L103.409 70.8417C103.409 70.8417 108.428 70.5134 109.233 72.7122L106.931 78.0089L102.316 74.8043Z" fill="#EEA886"/>
<path d="M105.137 63.2804C105.137 63.2804 104.941 59.1359 106.362 58.5471C107.784 57.9583 109.376 59.1057 109.376 59.1057C109.376 59.1057 111.675 58.862 112.41 59.8812C113.144 60.899 113.084 62.4405 113.084 62.4405C113.084 62.4405 114.381 62.7413 114.718 64.021C115.055 65.3007 114.453 67.7761 114.453 67.7761C114.453 67.7761 112.951 69.6883 111.214 69.2143C109.477 68.7403 105.137 63.2804 105.137 63.2804Z" fill="#FFA67A"/>
<path d="M102.507 66.6276C102.507 66.6276 101.975 61.2033 102.538 60.4863C103.101 59.7686 108.862 51.5016 108.862 51.5016C108.862 51.5016 110.057 52.9102 109.37 54.5169C108.682 56.1242 105.969 60.9999 105.969 60.9999L105.956 65.1666C105.956 65.1666 104.18 66.4503 102.507 66.6276Z" fill="#EEA886"/>
<path d="M102.934 70.9671C102.934 70.9671 101.558 62.2557 102.496 61.0606C103.435 59.8648 108.04 60.5617 108.919 60.9075C109.797 61.2533 112.23 64.5035 112.567 65.7832C112.904 67.0629 110.611 71.6895 109.233 72.712C107.855 73.7353 103.732 72.6362 102.934 70.9671Z" fill="#EEA886"/>
<path d="M99.6931 76.7123L101.464 73.3446C101.464 73.3446 105.595 72.5792 107.661 75.947C108.251 77.1716 107.956 77.1716 107.956 77.1716L106.627 79.927L99.6931 76.7123Z" fill="white"/>
<path d="M57.6602 39.8582C57.6602 39.8582 62.0258 41.017 64.4986 47.9707C66.9713 54.925 65.323 69.7025 63.6741 71.4414C62.0258 73.1797 57.0176 72.5156 50.0732 70.1376C42.7359 67.6245 40.2567 59.7107 38.9456 54.4906C36.4347 44.4942 44.8132 34.2077 57.6602 39.8582Z" fill="#EEA886"/>
<path d="M42.0034 78.2429L45.5446 65.0787C45.5446 65.0787 52.6269 62.9356 57.0527 67.8342L58.5281 69.9766V78.549C58.5281 78.549 51.1514 80.0798 42.0034 78.2429Z" fill="#EEA886"/>
<path d="M32.1181 149.116C32.1181 149.116 29.4623 165.189 32.1181 183.558C34.774 201.927 40.0857 203.764 44.9542 203.764C49.8232 203.764 51.1512 189.068 52.0365 182.64C52.9217 176.21 56.4629 154.167 49.8232 149.116C43.1842 144.065 35.6593 143.605 32.1181 149.116Z" fill="#252525"/>
<path d="M50.7086 170.7C50.7086 170.7 45.3969 156.004 54.6924 149.576C63.988 143.146 71.0696 144.065 73.2828 154.627C75.4961 165.189 75.9387 201.467 72.8402 208.815C69.7417 216.163 58.6762 204.682 50.7086 170.7Z" fill="#252525"/>
<path d="M66.1785 40.4867C66.1785 40.4867 68.2733 43.3119 67.0166 46.5716C65.7598 49.8312 61.1515 51.1351 61.1515 51.1351C61.1515 51.1351 62.6179 53.3084 61.1515 56.3505L60.1044 58.0894C60.1044 58.0894 61.5702 61.5659 61.1515 62.4354C60.7322 63.3048 59.2664 63.088 59.2664 63.088C59.2664 63.088 57.5903 58.3069 56.9619 58.7413C56.3342 59.1757 54.6581 61.349 54.6581 63.3048C54.6581 65.2606 55.2865 66.782 54.8671 68.0859C54.4491 69.3897 47.955 69.3897 45.2325 68.9553C42.5093 68.5203 38.3198 59.8277 37.2727 55.9161C37.2727 55.9161 35.8063 50.4831 37.9011 45.9196C37.9011 45.9196 37.4824 42.0081 41.0429 38.0958C44.6041 34.1843 55.9149 35.4888 57.8 37.0095C57.8 37.0095 57.5903 34.8362 59.6851 35.2713C61.7799 35.7057 64.9218 37.6614 66.1785 40.4867Z" fill="#242424"/>
<path d="M59.8946 60.2624C59.8946 60.2624 59.2663 57.4372 56.9618 58.7411C54.658 60.0449 57.3811 66.7817 59.2663 66.3473C61.1514 65.9129 60.3133 61.3494 59.8946 60.2624Z" fill="#EEA886"/>
<path d="M40.1301 78.1731C40.1301 78.1731 41.1183 74.569 42.0036 74.2628C42.8889 73.9567 53.8074 72.732 59.7087 76.4059C62.3646 78.549 62.0695 80.0798 62.0695 80.0798C62.0695 80.0798 44.453 76.5731 40.1301 78.1731Z" fill="#007957"/>
<path d="M37.8723 77.3245C37.8723 77.3245 56.1676 76.0999 69.1512 81.9169C75.0531 84.9785 88.5537 98.8314 88.5537 98.8314L99.1765 75.8703C99.1765 75.8703 105.152 73.6506 107.513 79.4676C107.513 79.4676 100.8 106.562 95.1927 115.134C91.6522 118.196 74.7587 108.246 74.7587 108.246C74.7587 108.246 77.4139 143.759 76.5286 159.678C75.3482 162.741 52.3314 164.271 48.2 163.964C44.0693 163.658 29.6096 158.76 29.3145 157.842C29.0194 156.924 31.3802 120.185 30.7907 115.9C30.2005 111.614 28.4299 90.4886 29.0194 87.4277C29.6096 84.3661 32.2655 78.5491 37.8723 77.3245Z" fill="#004330"/>
<path d="M57.3481 257.034C57.3481 257.034 58.3809 254.738 62.2172 255.35C66.0534 255.962 66.4961 256.728 66.9381 258.718C67.3807 260.708 68.7093 262.851 69.5939 263.31C70.4799 263.768 73.7253 266.065 76.3811 266.525C79.037 266.983 79.3321 268.667 78.7419 269.432C78.1517 270.198 68.1191 270.811 65.9059 270.504C65.9059 270.504 58.3809 270.351 56.6104 269.739C54.8398 269.127 57.2005 257.799 57.3481 257.034Z" fill="black"/>
<path d="M59.1185 203.305C59.1185 203.305 58.6759 196.876 65.3155 195.498C71.9545 194.12 72.8405 197.335 74.1678 203.305C75.4957 209.275 66.6428 257.953 66.6428 257.953C66.6428 257.953 59.1185 258.411 57.3479 257.033C57.3479 257.033 55.1347 224.429 56.4626 215.704C57.7906 206.979 59.1185 203.305 59.1185 203.305Z" fill="#252525"/>
<path d="M56.7579 257.799C56.7579 257.799 62.5123 259.483 67.3814 258.564L67.824 255.043L56.6104 254.278L56.7579 257.799Z" fill="#004330"/>
<path d="M48.938 167.256C48.938 167.256 55.135 187.92 59.7821 198.023" stroke="#003D2C" stroke-width="0.5" stroke-miterlimit="10"/>
<path d="M61.553 202.157C61.553 202.157 65.3155 199.861 69.0779 202.157" stroke="#003D2C" stroke-width="0.5" stroke-miterlimit="10"/>
<path d="M60.8892 204.682C60.8892 204.682 63.9877 202.845 69.2994 206.749" stroke="#003D2C" stroke-width="0.5" stroke-miterlimit="10"/>
<path d="M37.6511 199.401C37.6511 199.401 40.0857 197.105 45.6187 199.631" stroke="#003D2C" stroke-width="0.5" stroke-miterlimit="10"/>
<path d="M39.4219 201.697C39.4219 201.697 42.963 199.861 46.2829 202.615" stroke="#003D2C" stroke-width="0.5" stroke-miterlimit="10"/>
<path d="M47.6104 205.371L46.2825 252.212" stroke="#003D2C" stroke-width="0.5" stroke-miterlimit="10"/>
<path d="M65.9058 166.108C65.9058 166.108 70.9217 169.169 72.9874 164.271" stroke="#003D2C" stroke-width="0.5" stroke-miterlimit="10"/>
<path d="M70.9221 166.72C70.9221 166.72 73.2829 185.701 72.6927 198.253" stroke="#003D2C" stroke-width="0.5" stroke-miterlimit="10"/>
<path d="M29.0198 95.3872L31.3805 121.716" stroke="#252525" stroke-width="0.5" stroke-miterlimit="10"/>
<path d="M69.5205 104.572C69.5205 104.572 87.0043 117.659 95.1926 115.134" stroke="#252525" stroke-width="0.5" stroke-miterlimit="10"/>
<path d="M90.324 101.357C90.324 101.357 93.8651 103.424 93.6438 108.246" stroke="#252525" stroke-width="0.5" stroke-miterlimit="10"/>
<path d="M89.4387 99.5202C89.4387 99.5202 93.2012 98.3721 95.4144 102.276" stroke="#252525" stroke-width="0.5" stroke-miterlimit="10"/>
<path d="M68.8564 83.677C68.8564 83.677 59.5615 88.7286 65.7579 100.438" stroke="#252525" stroke-width="0.5" stroke-miterlimit="10"/>
<path d="M55.6882 68.4081C55.6882 68.4081 57.2375 72.5412 62.4386 71.8524" stroke="#A77860" stroke-width="0.5" stroke-miterlimit="10"/>
<path d="M105.78 59.9124L107.513 58.305C107.513 58.305 108.73 58.299 109.376 59.1053" stroke="#EEA886" stroke-width="1.368" stroke-miterlimit="10"/>
<path d="M107.845 60.1801C107.845 60.0653 110.316 58.6876 110.316 58.6876C110.316 58.6876 112.566 59.2616 112.898 60.4862C113.23 61.7109 112.972 62.3615 112.972 62.3615" stroke="#EEA886" stroke-width="1.368" stroke-miterlimit="10"/>
<path d="M110.759 62.3999C110.869 62.3617 113.894 62.553 113.894 62.553C113.894 62.553 115.001 63.3184 114.964 64.8109C114.927 66.3028 114.453 67.7758 114.453 67.7758C114.453 67.7758 113.378 69.365 111.533 69.3261" stroke="#EEA886" stroke-width="1.368" stroke-miterlimit="10"/>
<path d="M112.492 65.6143C112.492 65.6143 112.861 66.2266 112.382 67.3364C111.902 68.4462 111.322 71.3527 109.233 72.7123" stroke="#EEA886" stroke-width="1.368" stroke-miterlimit="10"/>
</svg>
