<svg width="30" height="30" viewBox="0 0 30 30" fill="none" xmlns="http://www.w3.org/2000/svg">
<path d="M11.25 22.0312C11.342 24.3462 13.2711 26.3118 15.8554 26.2486C16.4567 26.2338 17.1998 26.0242 18.6861 25.605C22.263 24.5961 25.3681 22.9005 26.1131 19.1019C26.25 18.4037 26.25 17.618 26.25 16.0466L26.25 13.9534C26.25 12.382 26.25 11.5963 26.1131 10.8981C25.3681 7.09954 22.263 5.40392 18.6861 4.395C17.1998 3.97577 16.4567 3.76616 15.8554 3.75145C13.2711 3.68823 11.342 5.65381 11.25 7.96874" stroke="black" stroke-width="1.5" stroke-linecap="round"/>
<path d="M17.5 15H3.75M17.5 15C17.5 14.1247 15.0071 12.4894 14.375 11.875M17.5 15C17.5 15.8753 15.0071 17.5106 14.375 18.125" stroke="black" stroke-width="1.5" stroke-linecap="round" stroke-linejoin="round"/>
</svg>
